%TF.GenerationSoftware,KiCad,Pcbnew,9.0.6*%
%TF.CreationDate,2026-05-27T23:23:12+02:00*%
%TF.ProjectId,cpiii-plasma-hdmi,63706969-692d-4706-9c61-736d612d6864,rev?*%
%TF.SameCoordinates,Original*%
%TF.FileFunction,Legend,Top*%
%TF.FilePolarity,Positive*%
%FSLAX46Y46*%
G04 Gerber Fmt 4.6, Leading zero omitted, Abs format (unit mm)*
G04 Created by KiCad (PCBNEW 9.0.6) date 2026-05-27 23:23:12*
%MOMM*%
%LPD*%
G01*
G04 APERTURE LIST*
%ADD10C,0.100000*%
%ADD11C,0.150000*%
%ADD12C,0.120000*%
%ADD13C,0.160000*%
%ADD14C,0.000000*%
G04 APERTURE END LIST*
D10*
X156780074Y-76372419D02*
X156303884Y-76372419D01*
X156303884Y-76372419D02*
X156256265Y-76848609D01*
X156256265Y-76848609D02*
X156303884Y-76800990D01*
X156303884Y-76800990D02*
X156399122Y-76753371D01*
X156399122Y-76753371D02*
X156637217Y-76753371D01*
X156637217Y-76753371D02*
X156732455Y-76800990D01*
X156732455Y-76800990D02*
X156780074Y-76848609D01*
X156780074Y-76848609D02*
X156827693Y-76943847D01*
X156827693Y-76943847D02*
X156827693Y-77181942D01*
X156827693Y-77181942D02*
X156780074Y-77277180D01*
X156780074Y-77277180D02*
X156732455Y-77324800D01*
X156732455Y-77324800D02*
X156637217Y-77372419D01*
X156637217Y-77372419D02*
X156399122Y-77372419D01*
X156399122Y-77372419D02*
X156303884Y-77324800D01*
X156303884Y-77324800D02*
X156256265Y-77277180D01*
X157113408Y-76372419D02*
X157446741Y-77372419D01*
X157446741Y-77372419D02*
X157780074Y-76372419D01*
X159589598Y-76324800D02*
X158732456Y-77610514D01*
X160684837Y-77372419D02*
X160684837Y-76372419D01*
X160684837Y-76372419D02*
X161065789Y-76372419D01*
X161065789Y-76372419D02*
X161161027Y-76420038D01*
X161161027Y-76420038D02*
X161208646Y-76467657D01*
X161208646Y-76467657D02*
X161256265Y-76562895D01*
X161256265Y-76562895D02*
X161256265Y-76705752D01*
X161256265Y-76705752D02*
X161208646Y-76800990D01*
X161208646Y-76800990D02*
X161161027Y-76848609D01*
X161161027Y-76848609D02*
X161065789Y-76896228D01*
X161065789Y-76896228D02*
X160684837Y-76896228D01*
X161827694Y-77372419D02*
X161732456Y-77324800D01*
X161732456Y-77324800D02*
X161684837Y-77277180D01*
X161684837Y-77277180D02*
X161637218Y-77181942D01*
X161637218Y-77181942D02*
X161637218Y-76896228D01*
X161637218Y-76896228D02*
X161684837Y-76800990D01*
X161684837Y-76800990D02*
X161732456Y-76753371D01*
X161732456Y-76753371D02*
X161827694Y-76705752D01*
X161827694Y-76705752D02*
X161970551Y-76705752D01*
X161970551Y-76705752D02*
X162065789Y-76753371D01*
X162065789Y-76753371D02*
X162113408Y-76800990D01*
X162113408Y-76800990D02*
X162161027Y-76896228D01*
X162161027Y-76896228D02*
X162161027Y-77181942D01*
X162161027Y-77181942D02*
X162113408Y-77277180D01*
X162113408Y-77277180D02*
X162065789Y-77324800D01*
X162065789Y-77324800D02*
X161970551Y-77372419D01*
X161970551Y-77372419D02*
X161827694Y-77372419D01*
X162494361Y-76705752D02*
X162684837Y-77372419D01*
X162684837Y-77372419D02*
X162875313Y-76896228D01*
X162875313Y-76896228D02*
X163065789Y-77372419D01*
X163065789Y-77372419D02*
X163256265Y-76705752D01*
X164018170Y-77324800D02*
X163922932Y-77372419D01*
X163922932Y-77372419D02*
X163732456Y-77372419D01*
X163732456Y-77372419D02*
X163637218Y-77324800D01*
X163637218Y-77324800D02*
X163589599Y-77229561D01*
X163589599Y-77229561D02*
X163589599Y-76848609D01*
X163589599Y-76848609D02*
X163637218Y-76753371D01*
X163637218Y-76753371D02*
X163732456Y-76705752D01*
X163732456Y-76705752D02*
X163922932Y-76705752D01*
X163922932Y-76705752D02*
X164018170Y-76753371D01*
X164018170Y-76753371D02*
X164065789Y-76848609D01*
X164065789Y-76848609D02*
X164065789Y-76943847D01*
X164065789Y-76943847D02*
X163589599Y-77039085D01*
X164494361Y-77372419D02*
X164494361Y-76705752D01*
X164494361Y-76896228D02*
X164541980Y-76800990D01*
X164541980Y-76800990D02*
X164589599Y-76753371D01*
X164589599Y-76753371D02*
X164684837Y-76705752D01*
X164684837Y-76705752D02*
X164780075Y-76705752D01*
X165732457Y-76372419D02*
X166303885Y-76372419D01*
X166018171Y-77372419D02*
X166018171Y-76372419D01*
X167065790Y-77372419D02*
X167065790Y-76848609D01*
X167065790Y-76848609D02*
X167018171Y-76753371D01*
X167018171Y-76753371D02*
X166922933Y-76705752D01*
X166922933Y-76705752D02*
X166732457Y-76705752D01*
X166732457Y-76705752D02*
X166637219Y-76753371D01*
X167065790Y-77324800D02*
X166970552Y-77372419D01*
X166970552Y-77372419D02*
X166732457Y-77372419D01*
X166732457Y-77372419D02*
X166637219Y-77324800D01*
X166637219Y-77324800D02*
X166589600Y-77229561D01*
X166589600Y-77229561D02*
X166589600Y-77134323D01*
X166589600Y-77134323D02*
X166637219Y-77039085D01*
X166637219Y-77039085D02*
X166732457Y-76991466D01*
X166732457Y-76991466D02*
X166970552Y-76991466D01*
X166970552Y-76991466D02*
X167065790Y-76943847D01*
X167541981Y-76705752D02*
X167541981Y-77372419D01*
X167541981Y-76800990D02*
X167589600Y-76753371D01*
X167589600Y-76753371D02*
X167684838Y-76705752D01*
X167684838Y-76705752D02*
X167827695Y-76705752D01*
X167827695Y-76705752D02*
X167922933Y-76753371D01*
X167922933Y-76753371D02*
X167970552Y-76848609D01*
X167970552Y-76848609D02*
X167970552Y-77372419D01*
X168875314Y-76705752D02*
X168875314Y-77515276D01*
X168875314Y-77515276D02*
X168827695Y-77610514D01*
X168827695Y-77610514D02*
X168780076Y-77658133D01*
X168780076Y-77658133D02*
X168684838Y-77705752D01*
X168684838Y-77705752D02*
X168541981Y-77705752D01*
X168541981Y-77705752D02*
X168446743Y-77658133D01*
X168875314Y-77324800D02*
X168780076Y-77372419D01*
X168780076Y-77372419D02*
X168589600Y-77372419D01*
X168589600Y-77372419D02*
X168494362Y-77324800D01*
X168494362Y-77324800D02*
X168446743Y-77277180D01*
X168446743Y-77277180D02*
X168399124Y-77181942D01*
X168399124Y-77181942D02*
X168399124Y-76896228D01*
X168399124Y-76896228D02*
X168446743Y-76800990D01*
X168446743Y-76800990D02*
X168494362Y-76753371D01*
X168494362Y-76753371D02*
X168589600Y-76705752D01*
X168589600Y-76705752D02*
X168780076Y-76705752D01*
X168780076Y-76705752D02*
X168875314Y-76753371D01*
X170113410Y-77372419D02*
X170113410Y-76372419D01*
X170113410Y-76372419D02*
X170684838Y-77372419D01*
X170684838Y-77372419D02*
X170684838Y-76372419D01*
X171589600Y-77372419D02*
X171589600Y-76848609D01*
X171589600Y-76848609D02*
X171541981Y-76753371D01*
X171541981Y-76753371D02*
X171446743Y-76705752D01*
X171446743Y-76705752D02*
X171256267Y-76705752D01*
X171256267Y-76705752D02*
X171161029Y-76753371D01*
X171589600Y-77324800D02*
X171494362Y-77372419D01*
X171494362Y-77372419D02*
X171256267Y-77372419D01*
X171256267Y-77372419D02*
X171161029Y-77324800D01*
X171161029Y-77324800D02*
X171113410Y-77229561D01*
X171113410Y-77229561D02*
X171113410Y-77134323D01*
X171113410Y-77134323D02*
X171161029Y-77039085D01*
X171161029Y-77039085D02*
X171256267Y-76991466D01*
X171256267Y-76991466D02*
X171494362Y-76991466D01*
X171494362Y-76991466D02*
X171589600Y-76943847D01*
X172065791Y-76705752D02*
X172065791Y-77372419D01*
X172065791Y-76800990D02*
X172113410Y-76753371D01*
X172113410Y-76753371D02*
X172208648Y-76705752D01*
X172208648Y-76705752D02*
X172351505Y-76705752D01*
X172351505Y-76705752D02*
X172446743Y-76753371D01*
X172446743Y-76753371D02*
X172494362Y-76848609D01*
X172494362Y-76848609D02*
X172494362Y-77372419D01*
X173113410Y-77372419D02*
X173018172Y-77324800D01*
X173018172Y-77324800D02*
X172970553Y-77277180D01*
X172970553Y-77277180D02*
X172922934Y-77181942D01*
X172922934Y-77181942D02*
X172922934Y-76896228D01*
X172922934Y-76896228D02*
X172970553Y-76800990D01*
X172970553Y-76800990D02*
X173018172Y-76753371D01*
X173018172Y-76753371D02*
X173113410Y-76705752D01*
X173113410Y-76705752D02*
X173256267Y-76705752D01*
X173256267Y-76705752D02*
X173351505Y-76753371D01*
X173351505Y-76753371D02*
X173399124Y-76800990D01*
X173399124Y-76800990D02*
X173446743Y-76896228D01*
X173446743Y-76896228D02*
X173446743Y-77181942D01*
X173446743Y-77181942D02*
X173399124Y-77277180D01*
X173399124Y-77277180D02*
X173351505Y-77324800D01*
X173351505Y-77324800D02*
X173256267Y-77372419D01*
X173256267Y-77372419D02*
X173113410Y-77372419D01*
X174494363Y-76705752D02*
X174875315Y-76705752D01*
X174637220Y-77372419D02*
X174637220Y-76515276D01*
X174637220Y-76515276D02*
X174684839Y-76420038D01*
X174684839Y-76420038D02*
X174780077Y-76372419D01*
X174780077Y-76372419D02*
X174875315Y-76372419D01*
X175208649Y-77372419D02*
X175208649Y-76705752D01*
X175208649Y-76896228D02*
X175256268Y-76800990D01*
X175256268Y-76800990D02*
X175303887Y-76753371D01*
X175303887Y-76753371D02*
X175399125Y-76705752D01*
X175399125Y-76705752D02*
X175494363Y-76705752D01*
X175970554Y-77372419D02*
X175875316Y-77324800D01*
X175875316Y-77324800D02*
X175827697Y-77277180D01*
X175827697Y-77277180D02*
X175780078Y-77181942D01*
X175780078Y-77181942D02*
X175780078Y-76896228D01*
X175780078Y-76896228D02*
X175827697Y-76800990D01*
X175827697Y-76800990D02*
X175875316Y-76753371D01*
X175875316Y-76753371D02*
X175970554Y-76705752D01*
X175970554Y-76705752D02*
X176113411Y-76705752D01*
X176113411Y-76705752D02*
X176208649Y-76753371D01*
X176208649Y-76753371D02*
X176256268Y-76800990D01*
X176256268Y-76800990D02*
X176303887Y-76896228D01*
X176303887Y-76896228D02*
X176303887Y-77181942D01*
X176303887Y-77181942D02*
X176256268Y-77277180D01*
X176256268Y-77277180D02*
X176208649Y-77324800D01*
X176208649Y-77324800D02*
X176113411Y-77372419D01*
X176113411Y-77372419D02*
X175970554Y-77372419D01*
X176732459Y-77372419D02*
X176732459Y-76705752D01*
X176732459Y-76800990D02*
X176780078Y-76753371D01*
X176780078Y-76753371D02*
X176875316Y-76705752D01*
X176875316Y-76705752D02*
X177018173Y-76705752D01*
X177018173Y-76705752D02*
X177113411Y-76753371D01*
X177113411Y-76753371D02*
X177161030Y-76848609D01*
X177161030Y-76848609D02*
X177161030Y-77372419D01*
X177161030Y-76848609D02*
X177208649Y-76753371D01*
X177208649Y-76753371D02*
X177303887Y-76705752D01*
X177303887Y-76705752D02*
X177446744Y-76705752D01*
X177446744Y-76705752D02*
X177541983Y-76753371D01*
X177541983Y-76753371D02*
X177589602Y-76848609D01*
X177589602Y-76848609D02*
X177589602Y-77372419D01*
X179399125Y-77277180D02*
X179351506Y-77324800D01*
X179351506Y-77324800D02*
X179208649Y-77372419D01*
X179208649Y-77372419D02*
X179113411Y-77372419D01*
X179113411Y-77372419D02*
X178970554Y-77324800D01*
X178970554Y-77324800D02*
X178875316Y-77229561D01*
X178875316Y-77229561D02*
X178827697Y-77134323D01*
X178827697Y-77134323D02*
X178780078Y-76943847D01*
X178780078Y-76943847D02*
X178780078Y-76800990D01*
X178780078Y-76800990D02*
X178827697Y-76610514D01*
X178827697Y-76610514D02*
X178875316Y-76515276D01*
X178875316Y-76515276D02*
X178970554Y-76420038D01*
X178970554Y-76420038D02*
X179113411Y-76372419D01*
X179113411Y-76372419D02*
X179208649Y-76372419D01*
X179208649Y-76372419D02*
X179351506Y-76420038D01*
X179351506Y-76420038D02*
X179399125Y-76467657D01*
X179970554Y-77372419D02*
X179875316Y-77324800D01*
X179875316Y-77324800D02*
X179827697Y-77277180D01*
X179827697Y-77277180D02*
X179780078Y-77181942D01*
X179780078Y-77181942D02*
X179780078Y-76896228D01*
X179780078Y-76896228D02*
X179827697Y-76800990D01*
X179827697Y-76800990D02*
X179875316Y-76753371D01*
X179875316Y-76753371D02*
X179970554Y-76705752D01*
X179970554Y-76705752D02*
X180113411Y-76705752D01*
X180113411Y-76705752D02*
X180208649Y-76753371D01*
X180208649Y-76753371D02*
X180256268Y-76800990D01*
X180256268Y-76800990D02*
X180303887Y-76896228D01*
X180303887Y-76896228D02*
X180303887Y-77181942D01*
X180303887Y-77181942D02*
X180256268Y-77277180D01*
X180256268Y-77277180D02*
X180208649Y-77324800D01*
X180208649Y-77324800D02*
X180113411Y-77372419D01*
X180113411Y-77372419D02*
X179970554Y-77372419D01*
X180732459Y-77372419D02*
X180732459Y-76705752D01*
X180732459Y-76800990D02*
X180780078Y-76753371D01*
X180780078Y-76753371D02*
X180875316Y-76705752D01*
X180875316Y-76705752D02*
X181018173Y-76705752D01*
X181018173Y-76705752D02*
X181113411Y-76753371D01*
X181113411Y-76753371D02*
X181161030Y-76848609D01*
X181161030Y-76848609D02*
X181161030Y-77372419D01*
X181161030Y-76848609D02*
X181208649Y-76753371D01*
X181208649Y-76753371D02*
X181303887Y-76705752D01*
X181303887Y-76705752D02*
X181446744Y-76705752D01*
X181446744Y-76705752D02*
X181541983Y-76753371D01*
X181541983Y-76753371D02*
X181589602Y-76848609D01*
X181589602Y-76848609D02*
X181589602Y-77372419D01*
X182065792Y-76705752D02*
X182065792Y-77705752D01*
X182065792Y-76753371D02*
X182161030Y-76705752D01*
X182161030Y-76705752D02*
X182351506Y-76705752D01*
X182351506Y-76705752D02*
X182446744Y-76753371D01*
X182446744Y-76753371D02*
X182494363Y-76800990D01*
X182494363Y-76800990D02*
X182541982Y-76896228D01*
X182541982Y-76896228D02*
X182541982Y-77181942D01*
X182541982Y-77181942D02*
X182494363Y-77277180D01*
X182494363Y-77277180D02*
X182446744Y-77324800D01*
X182446744Y-77324800D02*
X182351506Y-77372419D01*
X182351506Y-77372419D02*
X182161030Y-77372419D01*
X182161030Y-77372419D02*
X182065792Y-77324800D01*
X183399125Y-77372419D02*
X183399125Y-76848609D01*
X183399125Y-76848609D02*
X183351506Y-76753371D01*
X183351506Y-76753371D02*
X183256268Y-76705752D01*
X183256268Y-76705752D02*
X183065792Y-76705752D01*
X183065792Y-76705752D02*
X182970554Y-76753371D01*
X183399125Y-77324800D02*
X183303887Y-77372419D01*
X183303887Y-77372419D02*
X183065792Y-77372419D01*
X183065792Y-77372419D02*
X182970554Y-77324800D01*
X182970554Y-77324800D02*
X182922935Y-77229561D01*
X182922935Y-77229561D02*
X182922935Y-77134323D01*
X182922935Y-77134323D02*
X182970554Y-77039085D01*
X182970554Y-77039085D02*
X183065792Y-76991466D01*
X183065792Y-76991466D02*
X183303887Y-76991466D01*
X183303887Y-76991466D02*
X183399125Y-76943847D01*
X184303887Y-76705752D02*
X184303887Y-77705752D01*
X184303887Y-77324800D02*
X184208649Y-77372419D01*
X184208649Y-77372419D02*
X184018173Y-77372419D01*
X184018173Y-77372419D02*
X183922935Y-77324800D01*
X183922935Y-77324800D02*
X183875316Y-77277180D01*
X183875316Y-77277180D02*
X183827697Y-77181942D01*
X183827697Y-77181942D02*
X183827697Y-76896228D01*
X183827697Y-76896228D02*
X183875316Y-76800990D01*
X183875316Y-76800990D02*
X183922935Y-76753371D01*
X183922935Y-76753371D02*
X184018173Y-76705752D01*
X184018173Y-76705752D02*
X184208649Y-76705752D01*
X184208649Y-76705752D02*
X184303887Y-76753371D01*
X156375312Y-62667236D02*
X156327693Y-62714856D01*
X156327693Y-62714856D02*
X156184836Y-62762475D01*
X156184836Y-62762475D02*
X156089598Y-62762475D01*
X156089598Y-62762475D02*
X155946741Y-62714856D01*
X155946741Y-62714856D02*
X155851503Y-62619617D01*
X155851503Y-62619617D02*
X155803884Y-62524379D01*
X155803884Y-62524379D02*
X155756265Y-62333903D01*
X155756265Y-62333903D02*
X155756265Y-62191046D01*
X155756265Y-62191046D02*
X155803884Y-62000570D01*
X155803884Y-62000570D02*
X155851503Y-61905332D01*
X155851503Y-61905332D02*
X155946741Y-61810094D01*
X155946741Y-61810094D02*
X156089598Y-61762475D01*
X156089598Y-61762475D02*
X156184836Y-61762475D01*
X156184836Y-61762475D02*
X156327693Y-61810094D01*
X156327693Y-61810094D02*
X156375312Y-61857713D01*
X156994360Y-61762475D02*
X157184836Y-61762475D01*
X157184836Y-61762475D02*
X157280074Y-61810094D01*
X157280074Y-61810094D02*
X157375312Y-61905332D01*
X157375312Y-61905332D02*
X157422931Y-62095808D01*
X157422931Y-62095808D02*
X157422931Y-62429141D01*
X157422931Y-62429141D02*
X157375312Y-62619617D01*
X157375312Y-62619617D02*
X157280074Y-62714856D01*
X157280074Y-62714856D02*
X157184836Y-62762475D01*
X157184836Y-62762475D02*
X156994360Y-62762475D01*
X156994360Y-62762475D02*
X156899122Y-62714856D01*
X156899122Y-62714856D02*
X156803884Y-62619617D01*
X156803884Y-62619617D02*
X156756265Y-62429141D01*
X156756265Y-62429141D02*
X156756265Y-62095808D01*
X156756265Y-62095808D02*
X156803884Y-61905332D01*
X156803884Y-61905332D02*
X156899122Y-61810094D01*
X156899122Y-61810094D02*
X156994360Y-61762475D01*
X157851503Y-62762475D02*
X157851503Y-61762475D01*
X157851503Y-61762475D02*
X158184836Y-62476760D01*
X158184836Y-62476760D02*
X158518169Y-61762475D01*
X158518169Y-61762475D02*
X158518169Y-62762475D01*
X158994360Y-62762475D02*
X158994360Y-61762475D01*
X158994360Y-61762475D02*
X159375312Y-61762475D01*
X159375312Y-61762475D02*
X159470550Y-61810094D01*
X159470550Y-61810094D02*
X159518169Y-61857713D01*
X159518169Y-61857713D02*
X159565788Y-61952951D01*
X159565788Y-61952951D02*
X159565788Y-62095808D01*
X159565788Y-62095808D02*
X159518169Y-62191046D01*
X159518169Y-62191046D02*
X159470550Y-62238665D01*
X159470550Y-62238665D02*
X159375312Y-62286284D01*
X159375312Y-62286284D02*
X158994360Y-62286284D01*
X159946741Y-62476760D02*
X160422931Y-62476760D01*
X159851503Y-62762475D02*
X160184836Y-61762475D01*
X160184836Y-61762475D02*
X160518169Y-62762475D01*
X161518169Y-62857713D02*
X161422931Y-62810094D01*
X161422931Y-62810094D02*
X161327693Y-62714856D01*
X161327693Y-62714856D02*
X161184836Y-62571998D01*
X161184836Y-62571998D02*
X161089598Y-62524379D01*
X161089598Y-62524379D02*
X160994360Y-62524379D01*
X161041979Y-62762475D02*
X160946741Y-62714856D01*
X160946741Y-62714856D02*
X160851503Y-62619617D01*
X160851503Y-62619617D02*
X160803884Y-62429141D01*
X160803884Y-62429141D02*
X160803884Y-62095808D01*
X160803884Y-62095808D02*
X160851503Y-61905332D01*
X160851503Y-61905332D02*
X160946741Y-61810094D01*
X160946741Y-61810094D02*
X161041979Y-61762475D01*
X161041979Y-61762475D02*
X161232455Y-61762475D01*
X161232455Y-61762475D02*
X161327693Y-61810094D01*
X161327693Y-61810094D02*
X161422931Y-61905332D01*
X161422931Y-61905332D02*
X161470550Y-62095808D01*
X161470550Y-62095808D02*
X161470550Y-62429141D01*
X161470550Y-62429141D02*
X161422931Y-62619617D01*
X161422931Y-62619617D02*
X161327693Y-62714856D01*
X161327693Y-62714856D02*
X161232455Y-62762475D01*
X161232455Y-62762475D02*
X161041979Y-62762475D01*
X162661027Y-62762475D02*
X162661027Y-61762475D01*
X162661027Y-61762475D02*
X163041979Y-61762475D01*
X163041979Y-61762475D02*
X163137217Y-61810094D01*
X163137217Y-61810094D02*
X163184836Y-61857713D01*
X163184836Y-61857713D02*
X163232455Y-61952951D01*
X163232455Y-61952951D02*
X163232455Y-62095808D01*
X163232455Y-62095808D02*
X163184836Y-62191046D01*
X163184836Y-62191046D02*
X163137217Y-62238665D01*
X163137217Y-62238665D02*
X163041979Y-62286284D01*
X163041979Y-62286284D02*
X162661027Y-62286284D01*
X163803884Y-62762475D02*
X163708646Y-62714856D01*
X163708646Y-62714856D02*
X163661027Y-62667236D01*
X163661027Y-62667236D02*
X163613408Y-62571998D01*
X163613408Y-62571998D02*
X163613408Y-62286284D01*
X163613408Y-62286284D02*
X163661027Y-62191046D01*
X163661027Y-62191046D02*
X163708646Y-62143427D01*
X163708646Y-62143427D02*
X163803884Y-62095808D01*
X163803884Y-62095808D02*
X163946741Y-62095808D01*
X163946741Y-62095808D02*
X164041979Y-62143427D01*
X164041979Y-62143427D02*
X164089598Y-62191046D01*
X164089598Y-62191046D02*
X164137217Y-62286284D01*
X164137217Y-62286284D02*
X164137217Y-62571998D01*
X164137217Y-62571998D02*
X164089598Y-62667236D01*
X164089598Y-62667236D02*
X164041979Y-62714856D01*
X164041979Y-62714856D02*
X163946741Y-62762475D01*
X163946741Y-62762475D02*
X163803884Y-62762475D01*
X164565789Y-62762475D02*
X164565789Y-62095808D01*
X164565789Y-62286284D02*
X164613408Y-62191046D01*
X164613408Y-62191046D02*
X164661027Y-62143427D01*
X164661027Y-62143427D02*
X164756265Y-62095808D01*
X164756265Y-62095808D02*
X164851503Y-62095808D01*
X165041980Y-62095808D02*
X165422932Y-62095808D01*
X165184837Y-61762475D02*
X165184837Y-62619617D01*
X165184837Y-62619617D02*
X165232456Y-62714856D01*
X165232456Y-62714856D02*
X165327694Y-62762475D01*
X165327694Y-62762475D02*
X165422932Y-62762475D01*
X166184837Y-62762475D02*
X166184837Y-62238665D01*
X166184837Y-62238665D02*
X166137218Y-62143427D01*
X166137218Y-62143427D02*
X166041980Y-62095808D01*
X166041980Y-62095808D02*
X165851504Y-62095808D01*
X165851504Y-62095808D02*
X165756266Y-62143427D01*
X166184837Y-62714856D02*
X166089599Y-62762475D01*
X166089599Y-62762475D02*
X165851504Y-62762475D01*
X165851504Y-62762475D02*
X165756266Y-62714856D01*
X165756266Y-62714856D02*
X165708647Y-62619617D01*
X165708647Y-62619617D02*
X165708647Y-62524379D01*
X165708647Y-62524379D02*
X165756266Y-62429141D01*
X165756266Y-62429141D02*
X165851504Y-62381522D01*
X165851504Y-62381522D02*
X166089599Y-62381522D01*
X166089599Y-62381522D02*
X166184837Y-62333903D01*
X166661028Y-62762475D02*
X166661028Y-61762475D01*
X166661028Y-62143427D02*
X166756266Y-62095808D01*
X166756266Y-62095808D02*
X166946742Y-62095808D01*
X166946742Y-62095808D02*
X167041980Y-62143427D01*
X167041980Y-62143427D02*
X167089599Y-62191046D01*
X167089599Y-62191046D02*
X167137218Y-62286284D01*
X167137218Y-62286284D02*
X167137218Y-62571998D01*
X167137218Y-62571998D02*
X167089599Y-62667236D01*
X167089599Y-62667236D02*
X167041980Y-62714856D01*
X167041980Y-62714856D02*
X166946742Y-62762475D01*
X166946742Y-62762475D02*
X166756266Y-62762475D01*
X166756266Y-62762475D02*
X166661028Y-62714856D01*
X167708647Y-62762475D02*
X167613409Y-62714856D01*
X167613409Y-62714856D02*
X167565790Y-62619617D01*
X167565790Y-62619617D02*
X167565790Y-61762475D01*
X168470552Y-62714856D02*
X168375314Y-62762475D01*
X168375314Y-62762475D02*
X168184838Y-62762475D01*
X168184838Y-62762475D02*
X168089600Y-62714856D01*
X168089600Y-62714856D02*
X168041981Y-62619617D01*
X168041981Y-62619617D02*
X168041981Y-62238665D01*
X168041981Y-62238665D02*
X168089600Y-62143427D01*
X168089600Y-62143427D02*
X168184838Y-62095808D01*
X168184838Y-62095808D02*
X168375314Y-62095808D01*
X168375314Y-62095808D02*
X168470552Y-62143427D01*
X168470552Y-62143427D02*
X168518171Y-62238665D01*
X168518171Y-62238665D02*
X168518171Y-62333903D01*
X168518171Y-62333903D02*
X168041981Y-62429141D01*
X169708648Y-62762475D02*
X169708648Y-61762475D01*
X170184838Y-62762475D02*
X170184838Y-61762475D01*
X170661028Y-62762475D02*
X170661028Y-61762475D01*
X171899123Y-62381522D02*
X172661028Y-62381522D01*
X173899123Y-62762475D02*
X173899123Y-61762475D01*
X173899123Y-61762475D02*
X174280075Y-61762475D01*
X174280075Y-61762475D02*
X174375313Y-61810094D01*
X174375313Y-61810094D02*
X174422932Y-61857713D01*
X174422932Y-61857713D02*
X174470551Y-61952951D01*
X174470551Y-61952951D02*
X174470551Y-62095808D01*
X174470551Y-62095808D02*
X174422932Y-62191046D01*
X174422932Y-62191046D02*
X174375313Y-62238665D01*
X174375313Y-62238665D02*
X174280075Y-62286284D01*
X174280075Y-62286284D02*
X173899123Y-62286284D01*
X175041980Y-62762475D02*
X174946742Y-62714856D01*
X174946742Y-62714856D02*
X174899123Y-62619617D01*
X174899123Y-62619617D02*
X174899123Y-61762475D01*
X175851504Y-62762475D02*
X175851504Y-62238665D01*
X175851504Y-62238665D02*
X175803885Y-62143427D01*
X175803885Y-62143427D02*
X175708647Y-62095808D01*
X175708647Y-62095808D02*
X175518171Y-62095808D01*
X175518171Y-62095808D02*
X175422933Y-62143427D01*
X175851504Y-62714856D02*
X175756266Y-62762475D01*
X175756266Y-62762475D02*
X175518171Y-62762475D01*
X175518171Y-62762475D02*
X175422933Y-62714856D01*
X175422933Y-62714856D02*
X175375314Y-62619617D01*
X175375314Y-62619617D02*
X175375314Y-62524379D01*
X175375314Y-62524379D02*
X175422933Y-62429141D01*
X175422933Y-62429141D02*
X175518171Y-62381522D01*
X175518171Y-62381522D02*
X175756266Y-62381522D01*
X175756266Y-62381522D02*
X175851504Y-62333903D01*
X176280076Y-62714856D02*
X176375314Y-62762475D01*
X176375314Y-62762475D02*
X176565790Y-62762475D01*
X176565790Y-62762475D02*
X176661028Y-62714856D01*
X176661028Y-62714856D02*
X176708647Y-62619617D01*
X176708647Y-62619617D02*
X176708647Y-62571998D01*
X176708647Y-62571998D02*
X176661028Y-62476760D01*
X176661028Y-62476760D02*
X176565790Y-62429141D01*
X176565790Y-62429141D02*
X176422933Y-62429141D01*
X176422933Y-62429141D02*
X176327695Y-62381522D01*
X176327695Y-62381522D02*
X176280076Y-62286284D01*
X176280076Y-62286284D02*
X176280076Y-62238665D01*
X176280076Y-62238665D02*
X176327695Y-62143427D01*
X176327695Y-62143427D02*
X176422933Y-62095808D01*
X176422933Y-62095808D02*
X176565790Y-62095808D01*
X176565790Y-62095808D02*
X176661028Y-62143427D01*
X177137219Y-62762475D02*
X177137219Y-62095808D01*
X177137219Y-62191046D02*
X177184838Y-62143427D01*
X177184838Y-62143427D02*
X177280076Y-62095808D01*
X177280076Y-62095808D02*
X177422933Y-62095808D01*
X177422933Y-62095808D02*
X177518171Y-62143427D01*
X177518171Y-62143427D02*
X177565790Y-62238665D01*
X177565790Y-62238665D02*
X177565790Y-62762475D01*
X177565790Y-62238665D02*
X177613409Y-62143427D01*
X177613409Y-62143427D02*
X177708647Y-62095808D01*
X177708647Y-62095808D02*
X177851504Y-62095808D01*
X177851504Y-62095808D02*
X177946743Y-62143427D01*
X177946743Y-62143427D02*
X177994362Y-62238665D01*
X177994362Y-62238665D02*
X177994362Y-62762475D01*
X178899123Y-62762475D02*
X178899123Y-62238665D01*
X178899123Y-62238665D02*
X178851504Y-62143427D01*
X178851504Y-62143427D02*
X178756266Y-62095808D01*
X178756266Y-62095808D02*
X178565790Y-62095808D01*
X178565790Y-62095808D02*
X178470552Y-62143427D01*
X178899123Y-62714856D02*
X178803885Y-62762475D01*
X178803885Y-62762475D02*
X178565790Y-62762475D01*
X178565790Y-62762475D02*
X178470552Y-62714856D01*
X178470552Y-62714856D02*
X178422933Y-62619617D01*
X178422933Y-62619617D02*
X178422933Y-62524379D01*
X178422933Y-62524379D02*
X178470552Y-62429141D01*
X178470552Y-62429141D02*
X178565790Y-62381522D01*
X178565790Y-62381522D02*
X178803885Y-62381522D01*
X178803885Y-62381522D02*
X178899123Y-62333903D01*
X179994362Y-62095808D02*
X180375314Y-62095808D01*
X180137219Y-61762475D02*
X180137219Y-62619617D01*
X180137219Y-62619617D02*
X180184838Y-62714856D01*
X180184838Y-62714856D02*
X180280076Y-62762475D01*
X180280076Y-62762475D02*
X180375314Y-62762475D01*
X180851505Y-62762475D02*
X180756267Y-62714856D01*
X180756267Y-62714856D02*
X180708648Y-62667236D01*
X180708648Y-62667236D02*
X180661029Y-62571998D01*
X180661029Y-62571998D02*
X180661029Y-62286284D01*
X180661029Y-62286284D02*
X180708648Y-62191046D01*
X180708648Y-62191046D02*
X180756267Y-62143427D01*
X180756267Y-62143427D02*
X180851505Y-62095808D01*
X180851505Y-62095808D02*
X180994362Y-62095808D01*
X180994362Y-62095808D02*
X181089600Y-62143427D01*
X181089600Y-62143427D02*
X181137219Y-62191046D01*
X181137219Y-62191046D02*
X181184838Y-62286284D01*
X181184838Y-62286284D02*
X181184838Y-62571998D01*
X181184838Y-62571998D02*
X181137219Y-62667236D01*
X181137219Y-62667236D02*
X181089600Y-62714856D01*
X181089600Y-62714856D02*
X180994362Y-62762475D01*
X180994362Y-62762475D02*
X180851505Y-62762475D01*
X182375315Y-62762475D02*
X182375315Y-61762475D01*
X182375315Y-62238665D02*
X182946743Y-62238665D01*
X182946743Y-62762475D02*
X182946743Y-61762475D01*
X183422934Y-62762475D02*
X183422934Y-61762475D01*
X183422934Y-61762475D02*
X183661029Y-61762475D01*
X183661029Y-61762475D02*
X183803886Y-61810094D01*
X183803886Y-61810094D02*
X183899124Y-61905332D01*
X183899124Y-61905332D02*
X183946743Y-62000570D01*
X183946743Y-62000570D02*
X183994362Y-62191046D01*
X183994362Y-62191046D02*
X183994362Y-62333903D01*
X183994362Y-62333903D02*
X183946743Y-62524379D01*
X183946743Y-62524379D02*
X183899124Y-62619617D01*
X183899124Y-62619617D02*
X183803886Y-62714856D01*
X183803886Y-62714856D02*
X183661029Y-62762475D01*
X183661029Y-62762475D02*
X183422934Y-62762475D01*
X184422934Y-62762475D02*
X184422934Y-61762475D01*
X184422934Y-61762475D02*
X184756267Y-62476760D01*
X184756267Y-62476760D02*
X185089600Y-61762475D01*
X185089600Y-61762475D02*
X185089600Y-62762475D01*
X185565791Y-62762475D02*
X185565791Y-61762475D01*
X187232457Y-62714856D02*
X187137219Y-62762475D01*
X187137219Y-62762475D02*
X186946743Y-62762475D01*
X186946743Y-62762475D02*
X186851505Y-62714856D01*
X186851505Y-62714856D02*
X186803886Y-62667236D01*
X186803886Y-62667236D02*
X186756267Y-62571998D01*
X186756267Y-62571998D02*
X186756267Y-62286284D01*
X186756267Y-62286284D02*
X186803886Y-62191046D01*
X186803886Y-62191046D02*
X186851505Y-62143427D01*
X186851505Y-62143427D02*
X186946743Y-62095808D01*
X186946743Y-62095808D02*
X187137219Y-62095808D01*
X187137219Y-62095808D02*
X187232457Y-62143427D01*
X187803886Y-62762475D02*
X187708648Y-62714856D01*
X187708648Y-62714856D02*
X187661029Y-62667236D01*
X187661029Y-62667236D02*
X187613410Y-62571998D01*
X187613410Y-62571998D02*
X187613410Y-62286284D01*
X187613410Y-62286284D02*
X187661029Y-62191046D01*
X187661029Y-62191046D02*
X187708648Y-62143427D01*
X187708648Y-62143427D02*
X187803886Y-62095808D01*
X187803886Y-62095808D02*
X187946743Y-62095808D01*
X187946743Y-62095808D02*
X188041981Y-62143427D01*
X188041981Y-62143427D02*
X188089600Y-62191046D01*
X188089600Y-62191046D02*
X188137219Y-62286284D01*
X188137219Y-62286284D02*
X188137219Y-62571998D01*
X188137219Y-62571998D02*
X188089600Y-62667236D01*
X188089600Y-62667236D02*
X188041981Y-62714856D01*
X188041981Y-62714856D02*
X187946743Y-62762475D01*
X187946743Y-62762475D02*
X187803886Y-62762475D01*
X188565791Y-62095808D02*
X188565791Y-62762475D01*
X188565791Y-62191046D02*
X188613410Y-62143427D01*
X188613410Y-62143427D02*
X188708648Y-62095808D01*
X188708648Y-62095808D02*
X188851505Y-62095808D01*
X188851505Y-62095808D02*
X188946743Y-62143427D01*
X188946743Y-62143427D02*
X188994362Y-62238665D01*
X188994362Y-62238665D02*
X188994362Y-62762475D01*
X189375315Y-62095808D02*
X189613410Y-62762475D01*
X189613410Y-62762475D02*
X189851505Y-62095808D01*
X190613410Y-62714856D02*
X190518172Y-62762475D01*
X190518172Y-62762475D02*
X190327696Y-62762475D01*
X190327696Y-62762475D02*
X190232458Y-62714856D01*
X190232458Y-62714856D02*
X190184839Y-62619617D01*
X190184839Y-62619617D02*
X190184839Y-62238665D01*
X190184839Y-62238665D02*
X190232458Y-62143427D01*
X190232458Y-62143427D02*
X190327696Y-62095808D01*
X190327696Y-62095808D02*
X190518172Y-62095808D01*
X190518172Y-62095808D02*
X190613410Y-62143427D01*
X190613410Y-62143427D02*
X190661029Y-62238665D01*
X190661029Y-62238665D02*
X190661029Y-62333903D01*
X190661029Y-62333903D02*
X190184839Y-62429141D01*
X191089601Y-62762475D02*
X191089601Y-62095808D01*
X191089601Y-62286284D02*
X191137220Y-62191046D01*
X191137220Y-62191046D02*
X191184839Y-62143427D01*
X191184839Y-62143427D02*
X191280077Y-62095808D01*
X191280077Y-62095808D02*
X191375315Y-62095808D01*
X191565792Y-62095808D02*
X191946744Y-62095808D01*
X191708649Y-61762475D02*
X191708649Y-62619617D01*
X191708649Y-62619617D02*
X191756268Y-62714856D01*
X191756268Y-62714856D02*
X191851506Y-62762475D01*
X191851506Y-62762475D02*
X191946744Y-62762475D01*
X192661030Y-62714856D02*
X192565792Y-62762475D01*
X192565792Y-62762475D02*
X192375316Y-62762475D01*
X192375316Y-62762475D02*
X192280078Y-62714856D01*
X192280078Y-62714856D02*
X192232459Y-62619617D01*
X192232459Y-62619617D02*
X192232459Y-62238665D01*
X192232459Y-62238665D02*
X192280078Y-62143427D01*
X192280078Y-62143427D02*
X192375316Y-62095808D01*
X192375316Y-62095808D02*
X192565792Y-62095808D01*
X192565792Y-62095808D02*
X192661030Y-62143427D01*
X192661030Y-62143427D02*
X192708649Y-62238665D01*
X192708649Y-62238665D02*
X192708649Y-62333903D01*
X192708649Y-62333903D02*
X192232459Y-62429141D01*
X193137221Y-62762475D02*
X193137221Y-62095808D01*
X193137221Y-62286284D02*
X193184840Y-62191046D01*
X193184840Y-62191046D02*
X193232459Y-62143427D01*
X193232459Y-62143427D02*
X193327697Y-62095808D01*
X193327697Y-62095808D02*
X193422935Y-62095808D01*
X155803884Y-64372419D02*
X155803884Y-63372419D01*
X156375312Y-64372419D02*
X155946741Y-63800990D01*
X156375312Y-63372419D02*
X155803884Y-63943847D01*
X156708646Y-63372419D02*
X156946741Y-64372419D01*
X156946741Y-64372419D02*
X157137217Y-63658133D01*
X157137217Y-63658133D02*
X157327693Y-64372419D01*
X157327693Y-64372419D02*
X157565789Y-63372419D01*
X157899122Y-64086704D02*
X158375312Y-64086704D01*
X157803884Y-64372419D02*
X158137217Y-63372419D01*
X158137217Y-63372419D02*
X158470550Y-64372419D01*
X158756265Y-64324800D02*
X158899122Y-64372419D01*
X158899122Y-64372419D02*
X159137217Y-64372419D01*
X159137217Y-64372419D02*
X159232455Y-64324800D01*
X159232455Y-64324800D02*
X159280074Y-64277180D01*
X159280074Y-64277180D02*
X159327693Y-64181942D01*
X159327693Y-64181942D02*
X159327693Y-64086704D01*
X159327693Y-64086704D02*
X159280074Y-63991466D01*
X159280074Y-63991466D02*
X159232455Y-63943847D01*
X159232455Y-63943847D02*
X159137217Y-63896228D01*
X159137217Y-63896228D02*
X158946741Y-63848609D01*
X158946741Y-63848609D02*
X158851503Y-63800990D01*
X158851503Y-63800990D02*
X158803884Y-63753371D01*
X158803884Y-63753371D02*
X158756265Y-63658133D01*
X158756265Y-63658133D02*
X158756265Y-63562895D01*
X158756265Y-63562895D02*
X158803884Y-63467657D01*
X158803884Y-63467657D02*
X158851503Y-63420038D01*
X158851503Y-63420038D02*
X158946741Y-63372419D01*
X158946741Y-63372419D02*
X159184836Y-63372419D01*
X159184836Y-63372419D02*
X159327693Y-63420038D01*
X160708646Y-63372419D02*
X160803884Y-63372419D01*
X160803884Y-63372419D02*
X160899122Y-63420038D01*
X160899122Y-63420038D02*
X160946741Y-63467657D01*
X160946741Y-63467657D02*
X160994360Y-63562895D01*
X160994360Y-63562895D02*
X161041979Y-63753371D01*
X161041979Y-63753371D02*
X161041979Y-63991466D01*
X161041979Y-63991466D02*
X160994360Y-64181942D01*
X160994360Y-64181942D02*
X160946741Y-64277180D01*
X160946741Y-64277180D02*
X160899122Y-64324800D01*
X160899122Y-64324800D02*
X160803884Y-64372419D01*
X160803884Y-64372419D02*
X160708646Y-64372419D01*
X160708646Y-64372419D02*
X160613408Y-64324800D01*
X160613408Y-64324800D02*
X160565789Y-64277180D01*
X160565789Y-64277180D02*
X160518170Y-64181942D01*
X160518170Y-64181942D02*
X160470551Y-63991466D01*
X160470551Y-63991466D02*
X160470551Y-63753371D01*
X160470551Y-63753371D02*
X160518170Y-63562895D01*
X160518170Y-63562895D02*
X160565789Y-63467657D01*
X160565789Y-63467657D02*
X160613408Y-63420038D01*
X160613408Y-63420038D02*
X160708646Y-63372419D01*
X161899122Y-63372419D02*
X161708646Y-63372419D01*
X161708646Y-63372419D02*
X161613408Y-63420038D01*
X161613408Y-63420038D02*
X161565789Y-63467657D01*
X161565789Y-63467657D02*
X161470551Y-63610514D01*
X161470551Y-63610514D02*
X161422932Y-63800990D01*
X161422932Y-63800990D02*
X161422932Y-64181942D01*
X161422932Y-64181942D02*
X161470551Y-64277180D01*
X161470551Y-64277180D02*
X161518170Y-64324800D01*
X161518170Y-64324800D02*
X161613408Y-64372419D01*
X161613408Y-64372419D02*
X161803884Y-64372419D01*
X161803884Y-64372419D02*
X161899122Y-64324800D01*
X161899122Y-64324800D02*
X161946741Y-64277180D01*
X161946741Y-64277180D02*
X161994360Y-64181942D01*
X161994360Y-64181942D02*
X161994360Y-63943847D01*
X161994360Y-63943847D02*
X161946741Y-63848609D01*
X161946741Y-63848609D02*
X161899122Y-63800990D01*
X161899122Y-63800990D02*
X161803884Y-63753371D01*
X161803884Y-63753371D02*
X161613408Y-63753371D01*
X161613408Y-63753371D02*
X161518170Y-63800990D01*
X161518170Y-63800990D02*
X161470551Y-63848609D01*
X161470551Y-63848609D02*
X161422932Y-63943847D01*
X162422932Y-64277180D02*
X162470551Y-64324800D01*
X162470551Y-64324800D02*
X162422932Y-64372419D01*
X162422932Y-64372419D02*
X162375313Y-64324800D01*
X162375313Y-64324800D02*
X162422932Y-64277180D01*
X162422932Y-64277180D02*
X162422932Y-64372419D01*
X162851503Y-63467657D02*
X162899122Y-63420038D01*
X162899122Y-63420038D02*
X162994360Y-63372419D01*
X162994360Y-63372419D02*
X163232455Y-63372419D01*
X163232455Y-63372419D02*
X163327693Y-63420038D01*
X163327693Y-63420038D02*
X163375312Y-63467657D01*
X163375312Y-63467657D02*
X163422931Y-63562895D01*
X163422931Y-63562895D02*
X163422931Y-63658133D01*
X163422931Y-63658133D02*
X163375312Y-63800990D01*
X163375312Y-63800990D02*
X162803884Y-64372419D01*
X162803884Y-64372419D02*
X163422931Y-64372419D01*
X164041979Y-63372419D02*
X164137217Y-63372419D01*
X164137217Y-63372419D02*
X164232455Y-63420038D01*
X164232455Y-63420038D02*
X164280074Y-63467657D01*
X164280074Y-63467657D02*
X164327693Y-63562895D01*
X164327693Y-63562895D02*
X164375312Y-63753371D01*
X164375312Y-63753371D02*
X164375312Y-63991466D01*
X164375312Y-63991466D02*
X164327693Y-64181942D01*
X164327693Y-64181942D02*
X164280074Y-64277180D01*
X164280074Y-64277180D02*
X164232455Y-64324800D01*
X164232455Y-64324800D02*
X164137217Y-64372419D01*
X164137217Y-64372419D02*
X164041979Y-64372419D01*
X164041979Y-64372419D02*
X163946741Y-64324800D01*
X163946741Y-64324800D02*
X163899122Y-64277180D01*
X163899122Y-64277180D02*
X163851503Y-64181942D01*
X163851503Y-64181942D02*
X163803884Y-63991466D01*
X163803884Y-63991466D02*
X163803884Y-63753371D01*
X163803884Y-63753371D02*
X163851503Y-63562895D01*
X163851503Y-63562895D02*
X163899122Y-63467657D01*
X163899122Y-63467657D02*
X163946741Y-63420038D01*
X163946741Y-63420038D02*
X164041979Y-63372419D01*
X164756265Y-63467657D02*
X164803884Y-63420038D01*
X164803884Y-63420038D02*
X164899122Y-63372419D01*
X164899122Y-63372419D02*
X165137217Y-63372419D01*
X165137217Y-63372419D02*
X165232455Y-63420038D01*
X165232455Y-63420038D02*
X165280074Y-63467657D01*
X165280074Y-63467657D02*
X165327693Y-63562895D01*
X165327693Y-63562895D02*
X165327693Y-63658133D01*
X165327693Y-63658133D02*
X165280074Y-63800990D01*
X165280074Y-63800990D02*
X164708646Y-64372419D01*
X164708646Y-64372419D02*
X165327693Y-64372419D01*
X166184836Y-63372419D02*
X165994360Y-63372419D01*
X165994360Y-63372419D02*
X165899122Y-63420038D01*
X165899122Y-63420038D02*
X165851503Y-63467657D01*
X165851503Y-63467657D02*
X165756265Y-63610514D01*
X165756265Y-63610514D02*
X165708646Y-63800990D01*
X165708646Y-63800990D02*
X165708646Y-64181942D01*
X165708646Y-64181942D02*
X165756265Y-64277180D01*
X165756265Y-64277180D02*
X165803884Y-64324800D01*
X165803884Y-64324800D02*
X165899122Y-64372419D01*
X165899122Y-64372419D02*
X166089598Y-64372419D01*
X166089598Y-64372419D02*
X166184836Y-64324800D01*
X166184836Y-64324800D02*
X166232455Y-64277180D01*
X166232455Y-64277180D02*
X166280074Y-64181942D01*
X166280074Y-64181942D02*
X166280074Y-63943847D01*
X166280074Y-63943847D02*
X166232455Y-63848609D01*
X166232455Y-63848609D02*
X166184836Y-63800990D01*
X166184836Y-63800990D02*
X166089598Y-63753371D01*
X166089598Y-63753371D02*
X165899122Y-63753371D01*
X165899122Y-63753371D02*
X165803884Y-63800990D01*
X165803884Y-63800990D02*
X165756265Y-63848609D01*
X165756265Y-63848609D02*
X165708646Y-63943847D01*
X167470551Y-64372419D02*
X167470551Y-63372419D01*
X167470551Y-63753371D02*
X167565789Y-63705752D01*
X167565789Y-63705752D02*
X167756265Y-63705752D01*
X167756265Y-63705752D02*
X167851503Y-63753371D01*
X167851503Y-63753371D02*
X167899122Y-63800990D01*
X167899122Y-63800990D02*
X167946741Y-63896228D01*
X167946741Y-63896228D02*
X167946741Y-64181942D01*
X167946741Y-64181942D02*
X167899122Y-64277180D01*
X167899122Y-64277180D02*
X167851503Y-64324800D01*
X167851503Y-64324800D02*
X167756265Y-64372419D01*
X167756265Y-64372419D02*
X167565789Y-64372419D01*
X167565789Y-64372419D02*
X167470551Y-64324800D01*
X168280075Y-63705752D02*
X168518170Y-64372419D01*
X168756265Y-63705752D02*
X168518170Y-64372419D01*
X168518170Y-64372419D02*
X168422932Y-64610514D01*
X168422932Y-64610514D02*
X168375313Y-64658133D01*
X168375313Y-64658133D02*
X168280075Y-64705752D01*
X170327694Y-63705752D02*
X170327694Y-64705752D01*
X170327694Y-64324800D02*
X170232456Y-64372419D01*
X170232456Y-64372419D02*
X170041980Y-64372419D01*
X170041980Y-64372419D02*
X169946742Y-64324800D01*
X169946742Y-64324800D02*
X169899123Y-64277180D01*
X169899123Y-64277180D02*
X169851504Y-64181942D01*
X169851504Y-64181942D02*
X169851504Y-63896228D01*
X169851504Y-63896228D02*
X169899123Y-63800990D01*
X169899123Y-63800990D02*
X169946742Y-63753371D01*
X169946742Y-63753371D02*
X170041980Y-63705752D01*
X170041980Y-63705752D02*
X170232456Y-63705752D01*
X170232456Y-63705752D02*
X170327694Y-63753371D01*
X170803885Y-64372419D02*
X170803885Y-63372419D01*
X170803885Y-63753371D02*
X170899123Y-63705752D01*
X170899123Y-63705752D02*
X171089599Y-63705752D01*
X171089599Y-63705752D02*
X171184837Y-63753371D01*
X171184837Y-63753371D02*
X171232456Y-63800990D01*
X171232456Y-63800990D02*
X171280075Y-63896228D01*
X171280075Y-63896228D02*
X171280075Y-64181942D01*
X171280075Y-64181942D02*
X171232456Y-64277180D01*
X171232456Y-64277180D02*
X171184837Y-64324800D01*
X171184837Y-64324800D02*
X171089599Y-64372419D01*
X171089599Y-64372419D02*
X170899123Y-64372419D01*
X170899123Y-64372419D02*
X170803885Y-64324800D01*
X172137218Y-63705752D02*
X172137218Y-64372419D01*
X171708647Y-63705752D02*
X171708647Y-64229561D01*
X171708647Y-64229561D02*
X171756266Y-64324800D01*
X171756266Y-64324800D02*
X171851504Y-64372419D01*
X171851504Y-64372419D02*
X171994361Y-64372419D01*
X171994361Y-64372419D02*
X172089599Y-64324800D01*
X172089599Y-64324800D02*
X172137218Y-64277180D01*
X172565790Y-64324800D02*
X172661028Y-64372419D01*
X172661028Y-64372419D02*
X172851504Y-64372419D01*
X172851504Y-64372419D02*
X172946742Y-64324800D01*
X172946742Y-64324800D02*
X172994361Y-64229561D01*
X172994361Y-64229561D02*
X172994361Y-64181942D01*
X172994361Y-64181942D02*
X172946742Y-64086704D01*
X172946742Y-64086704D02*
X172851504Y-64039085D01*
X172851504Y-64039085D02*
X172708647Y-64039085D01*
X172708647Y-64039085D02*
X172613409Y-63991466D01*
X172613409Y-63991466D02*
X172565790Y-63896228D01*
X172565790Y-63896228D02*
X172565790Y-63848609D01*
X172565790Y-63848609D02*
X172613409Y-63753371D01*
X172613409Y-63753371D02*
X172708647Y-63705752D01*
X172708647Y-63705752D02*
X172851504Y-63705752D01*
X172851504Y-63705752D02*
X172946742Y-63753371D01*
X174994362Y-64372419D02*
X174946743Y-64372419D01*
X174946743Y-64372419D02*
X174851504Y-64324800D01*
X174851504Y-64324800D02*
X174708647Y-64181942D01*
X174708647Y-64181942D02*
X174470552Y-63896228D01*
X174470552Y-63896228D02*
X174375314Y-63753371D01*
X174375314Y-63753371D02*
X174327695Y-63610514D01*
X174327695Y-63610514D02*
X174327695Y-63515276D01*
X174327695Y-63515276D02*
X174375314Y-63420038D01*
X174375314Y-63420038D02*
X174470552Y-63372419D01*
X174470552Y-63372419D02*
X174518171Y-63372419D01*
X174518171Y-63372419D02*
X174613409Y-63420038D01*
X174613409Y-63420038D02*
X174661028Y-63515276D01*
X174661028Y-63515276D02*
X174661028Y-63562895D01*
X174661028Y-63562895D02*
X174613409Y-63658133D01*
X174613409Y-63658133D02*
X174565790Y-63705752D01*
X174565790Y-63705752D02*
X174280076Y-63896228D01*
X174280076Y-63896228D02*
X174232457Y-63943847D01*
X174232457Y-63943847D02*
X174184838Y-64039085D01*
X174184838Y-64039085D02*
X174184838Y-64181942D01*
X174184838Y-64181942D02*
X174232457Y-64277180D01*
X174232457Y-64277180D02*
X174280076Y-64324800D01*
X174280076Y-64324800D02*
X174375314Y-64372419D01*
X174375314Y-64372419D02*
X174518171Y-64372419D01*
X174518171Y-64372419D02*
X174613409Y-64324800D01*
X174613409Y-64324800D02*
X174661028Y-64277180D01*
X174661028Y-64277180D02*
X174803885Y-64086704D01*
X174803885Y-64086704D02*
X174851504Y-63943847D01*
X174851504Y-63943847D02*
X174851504Y-63848609D01*
X176184838Y-64372419D02*
X176184838Y-63372419D01*
X176613409Y-64372419D02*
X176613409Y-63848609D01*
X176613409Y-63848609D02*
X176565790Y-63753371D01*
X176565790Y-63753371D02*
X176470552Y-63705752D01*
X176470552Y-63705752D02*
X176327695Y-63705752D01*
X176327695Y-63705752D02*
X176232457Y-63753371D01*
X176232457Y-63753371D02*
X176184838Y-63800990D01*
X177518171Y-64372419D02*
X177518171Y-63848609D01*
X177518171Y-63848609D02*
X177470552Y-63753371D01*
X177470552Y-63753371D02*
X177375314Y-63705752D01*
X177375314Y-63705752D02*
X177184838Y-63705752D01*
X177184838Y-63705752D02*
X177089600Y-63753371D01*
X177518171Y-64324800D02*
X177422933Y-64372419D01*
X177422933Y-64372419D02*
X177184838Y-64372419D01*
X177184838Y-64372419D02*
X177089600Y-64324800D01*
X177089600Y-64324800D02*
X177041981Y-64229561D01*
X177041981Y-64229561D02*
X177041981Y-64134323D01*
X177041981Y-64134323D02*
X177089600Y-64039085D01*
X177089600Y-64039085D02*
X177184838Y-63991466D01*
X177184838Y-63991466D02*
X177422933Y-63991466D01*
X177422933Y-63991466D02*
X177518171Y-63943847D01*
X177899124Y-63705752D02*
X178089600Y-64372419D01*
X178089600Y-64372419D02*
X178280076Y-63896228D01*
X178280076Y-63896228D02*
X178470552Y-64372419D01*
X178470552Y-64372419D02*
X178661028Y-63705752D01*
X179041981Y-64372419D02*
X179041981Y-63705752D01*
X179041981Y-63372419D02*
X178994362Y-63420038D01*
X178994362Y-63420038D02*
X179041981Y-63467657D01*
X179041981Y-63467657D02*
X179089600Y-63420038D01*
X179089600Y-63420038D02*
X179041981Y-63372419D01*
X179041981Y-63372419D02*
X179041981Y-63467657D01*
X179422933Y-64372419D02*
X179946742Y-63705752D01*
X179422933Y-63705752D02*
X179946742Y-64372419D01*
X181803885Y-63324800D02*
X180946743Y-64610514D01*
X182899124Y-64372419D02*
X182899124Y-63372419D01*
X182899124Y-63372419D02*
X183280076Y-63372419D01*
X183280076Y-63372419D02*
X183375314Y-63420038D01*
X183375314Y-63420038D02*
X183422933Y-63467657D01*
X183422933Y-63467657D02*
X183470552Y-63562895D01*
X183470552Y-63562895D02*
X183470552Y-63705752D01*
X183470552Y-63705752D02*
X183422933Y-63800990D01*
X183422933Y-63800990D02*
X183375314Y-63848609D01*
X183375314Y-63848609D02*
X183280076Y-63896228D01*
X183280076Y-63896228D02*
X182899124Y-63896228D01*
X183756267Y-63372419D02*
X184327695Y-63372419D01*
X184041981Y-64372419D02*
X184041981Y-63372419D01*
X184851505Y-63372419D02*
X185041981Y-63372419D01*
X185041981Y-63372419D02*
X185137219Y-63420038D01*
X185137219Y-63420038D02*
X185232457Y-63515276D01*
X185232457Y-63515276D02*
X185280076Y-63705752D01*
X185280076Y-63705752D02*
X185280076Y-64039085D01*
X185280076Y-64039085D02*
X185232457Y-64229561D01*
X185232457Y-64229561D02*
X185137219Y-64324800D01*
X185137219Y-64324800D02*
X185041981Y-64372419D01*
X185041981Y-64372419D02*
X184851505Y-64372419D01*
X184851505Y-64372419D02*
X184756267Y-64324800D01*
X184756267Y-64324800D02*
X184661029Y-64229561D01*
X184661029Y-64229561D02*
X184613410Y-64039085D01*
X184613410Y-64039085D02*
X184613410Y-63705752D01*
X184613410Y-63705752D02*
X184661029Y-63515276D01*
X184661029Y-63515276D02*
X184756267Y-63420038D01*
X184756267Y-63420038D02*
X184851505Y-63372419D01*
X185708648Y-64372419D02*
X185708648Y-63372419D01*
X185708648Y-63372419D02*
X185946743Y-63372419D01*
X185946743Y-63372419D02*
X186089600Y-63420038D01*
X186089600Y-63420038D02*
X186184838Y-63515276D01*
X186184838Y-63515276D02*
X186232457Y-63610514D01*
X186232457Y-63610514D02*
X186280076Y-63800990D01*
X186280076Y-63800990D02*
X186280076Y-63943847D01*
X186280076Y-63943847D02*
X186232457Y-64134323D01*
X186232457Y-64134323D02*
X186184838Y-64229561D01*
X186184838Y-64229561D02*
X186089600Y-64324800D01*
X186089600Y-64324800D02*
X185946743Y-64372419D01*
X185946743Y-64372419D02*
X185708648Y-64372419D01*
X186565791Y-63372419D02*
X187137219Y-63372419D01*
X186851505Y-64372419D02*
X186851505Y-63372419D01*
D11*
X146358333Y-76709580D02*
X146310714Y-76757200D01*
X146310714Y-76757200D02*
X146167857Y-76804819D01*
X146167857Y-76804819D02*
X146072619Y-76804819D01*
X146072619Y-76804819D02*
X145929762Y-76757200D01*
X145929762Y-76757200D02*
X145834524Y-76661961D01*
X145834524Y-76661961D02*
X145786905Y-76566723D01*
X145786905Y-76566723D02*
X145739286Y-76376247D01*
X145739286Y-76376247D02*
X145739286Y-76233390D01*
X145739286Y-76233390D02*
X145786905Y-76042914D01*
X145786905Y-76042914D02*
X145834524Y-75947676D01*
X145834524Y-75947676D02*
X145929762Y-75852438D01*
X145929762Y-75852438D02*
X146072619Y-75804819D01*
X146072619Y-75804819D02*
X146167857Y-75804819D01*
X146167857Y-75804819D02*
X146310714Y-75852438D01*
X146310714Y-75852438D02*
X146358333Y-75900057D01*
X146739286Y-75900057D02*
X146786905Y-75852438D01*
X146786905Y-75852438D02*
X146882143Y-75804819D01*
X146882143Y-75804819D02*
X147120238Y-75804819D01*
X147120238Y-75804819D02*
X147215476Y-75852438D01*
X147215476Y-75852438D02*
X147263095Y-75900057D01*
X147263095Y-75900057D02*
X147310714Y-75995295D01*
X147310714Y-75995295D02*
X147310714Y-76090533D01*
X147310714Y-76090533D02*
X147263095Y-76233390D01*
X147263095Y-76233390D02*
X146691667Y-76804819D01*
X146691667Y-76804819D02*
X147310714Y-76804819D01*
X144814693Y-66166666D02*
X144862313Y-66214285D01*
X144862313Y-66214285D02*
X144909932Y-66357142D01*
X144909932Y-66357142D02*
X144909932Y-66452380D01*
X144909932Y-66452380D02*
X144862313Y-66595237D01*
X144862313Y-66595237D02*
X144767074Y-66690475D01*
X144767074Y-66690475D02*
X144671836Y-66738094D01*
X144671836Y-66738094D02*
X144481360Y-66785713D01*
X144481360Y-66785713D02*
X144338503Y-66785713D01*
X144338503Y-66785713D02*
X144148027Y-66738094D01*
X144148027Y-66738094D02*
X144052789Y-66690475D01*
X144052789Y-66690475D02*
X143957551Y-66595237D01*
X143957551Y-66595237D02*
X143909932Y-66452380D01*
X143909932Y-66452380D02*
X143909932Y-66357142D01*
X143909932Y-66357142D02*
X143957551Y-66214285D01*
X143957551Y-66214285D02*
X144005170Y-66166666D01*
X144909932Y-65214285D02*
X144909932Y-65785713D01*
X144909932Y-65499999D02*
X143909932Y-65499999D01*
X143909932Y-65499999D02*
X144052789Y-65595237D01*
X144052789Y-65595237D02*
X144148027Y-65690475D01*
X144148027Y-65690475D02*
X144195646Y-65785713D01*
X141704819Y-70333333D02*
X142419104Y-70333333D01*
X142419104Y-70333333D02*
X142561961Y-70380952D01*
X142561961Y-70380952D02*
X142657200Y-70476190D01*
X142657200Y-70476190D02*
X142704819Y-70619047D01*
X142704819Y-70619047D02*
X142704819Y-70714285D01*
X142038152Y-69428571D02*
X142704819Y-69428571D01*
X141657200Y-69666666D02*
X142371485Y-69904761D01*
X142371485Y-69904761D02*
X142371485Y-69285714D01*
X188238095Y-75454819D02*
X188238095Y-76264342D01*
X188238095Y-76264342D02*
X188285714Y-76359580D01*
X188285714Y-76359580D02*
X188333333Y-76407200D01*
X188333333Y-76407200D02*
X188428571Y-76454819D01*
X188428571Y-76454819D02*
X188619047Y-76454819D01*
X188619047Y-76454819D02*
X188714285Y-76407200D01*
X188714285Y-76407200D02*
X188761904Y-76359580D01*
X188761904Y-76359580D02*
X188809523Y-76264342D01*
X188809523Y-76264342D02*
X188809523Y-75454819D01*
X189238095Y-75550057D02*
X189285714Y-75502438D01*
X189285714Y-75502438D02*
X189380952Y-75454819D01*
X189380952Y-75454819D02*
X189619047Y-75454819D01*
X189619047Y-75454819D02*
X189714285Y-75502438D01*
X189714285Y-75502438D02*
X189761904Y-75550057D01*
X189761904Y-75550057D02*
X189809523Y-75645295D01*
X189809523Y-75645295D02*
X189809523Y-75740533D01*
X189809523Y-75740533D02*
X189761904Y-75883390D01*
X189761904Y-75883390D02*
X189190476Y-76454819D01*
X189190476Y-76454819D02*
X189809523Y-76454819D01*
X187009580Y-73666666D02*
X187057200Y-73714285D01*
X187057200Y-73714285D02*
X187104819Y-73857142D01*
X187104819Y-73857142D02*
X187104819Y-73952380D01*
X187104819Y-73952380D02*
X187057200Y-74095237D01*
X187057200Y-74095237D02*
X186961961Y-74190475D01*
X186961961Y-74190475D02*
X186866723Y-74238094D01*
X186866723Y-74238094D02*
X186676247Y-74285713D01*
X186676247Y-74285713D02*
X186533390Y-74285713D01*
X186533390Y-74285713D02*
X186342914Y-74238094D01*
X186342914Y-74238094D02*
X186247676Y-74190475D01*
X186247676Y-74190475D02*
X186152438Y-74095237D01*
X186152438Y-74095237D02*
X186104819Y-73952380D01*
X186104819Y-73952380D02*
X186104819Y-73857142D01*
X186104819Y-73857142D02*
X186152438Y-73714285D01*
X186152438Y-73714285D02*
X186200057Y-73666666D01*
X186438152Y-72809523D02*
X187104819Y-72809523D01*
X186057200Y-73047618D02*
X186771485Y-73285713D01*
X186771485Y-73285713D02*
X186771485Y-72666666D01*
X181166666Y-73914819D02*
X181166666Y-74629104D01*
X181166666Y-74629104D02*
X181119047Y-74771961D01*
X181119047Y-74771961D02*
X181023809Y-74867200D01*
X181023809Y-74867200D02*
X180880952Y-74914819D01*
X180880952Y-74914819D02*
X180785714Y-74914819D01*
X181595238Y-74010057D02*
X181642857Y-73962438D01*
X181642857Y-73962438D02*
X181738095Y-73914819D01*
X181738095Y-73914819D02*
X181976190Y-73914819D01*
X181976190Y-73914819D02*
X182071428Y-73962438D01*
X182071428Y-73962438D02*
X182119047Y-74010057D01*
X182119047Y-74010057D02*
X182166666Y-74105295D01*
X182166666Y-74105295D02*
X182166666Y-74200533D01*
X182166666Y-74200533D02*
X182119047Y-74343390D01*
X182119047Y-74343390D02*
X181547619Y-74914819D01*
X181547619Y-74914819D02*
X182166666Y-74914819D01*
X154454819Y-74833333D02*
X155169104Y-74833333D01*
X155169104Y-74833333D02*
X155311961Y-74880952D01*
X155311961Y-74880952D02*
X155407200Y-74976190D01*
X155407200Y-74976190D02*
X155454819Y-75119047D01*
X155454819Y-75119047D02*
X155454819Y-75214285D01*
X155454819Y-73833333D02*
X155454819Y-74404761D01*
X155454819Y-74119047D02*
X154454819Y-74119047D01*
X154454819Y-74119047D02*
X154597676Y-74214285D01*
X154597676Y-74214285D02*
X154692914Y-74309523D01*
X154692914Y-74309523D02*
X154740533Y-74404761D01*
D12*
%TO.C,C2*%
X147236252Y-73590000D02*
X145813748Y-73590000D01*
X147236252Y-75410000D02*
X145813748Y-75410000D01*
%TO.C,C1*%
X144355113Y-68783000D02*
X144355113Y-68217000D01*
X144395113Y-69017000D02*
X144395113Y-67983000D01*
X144435113Y-69177000D02*
X144435113Y-67823000D01*
X144475113Y-69305000D02*
X144475113Y-67695000D01*
X144515113Y-69414000D02*
X144515113Y-67586000D01*
X144555113Y-69511000D02*
X144555113Y-67489000D01*
X144595113Y-69598000D02*
X144595113Y-67402000D01*
X144635113Y-69677000D02*
X144635113Y-67323000D01*
X144675113Y-69751000D02*
X144675113Y-67249000D01*
X144715113Y-69819000D02*
X144715113Y-67181000D01*
X144755113Y-69883000D02*
X144755113Y-67117000D01*
X144795113Y-69943000D02*
X144795113Y-67057000D01*
X144835113Y-69999000D02*
X144835113Y-67001000D01*
X144875113Y-70053000D02*
X144875113Y-66947000D01*
X144915113Y-70104000D02*
X144915113Y-66896000D01*
X144955113Y-67460000D02*
X144955113Y-66848000D01*
X144955113Y-70152000D02*
X144955113Y-69540000D01*
X144995113Y-67460000D02*
X144995113Y-66801000D01*
X144995113Y-70199000D02*
X144995113Y-69540000D01*
X145035113Y-67460000D02*
X145035113Y-66757000D01*
X145035113Y-70243000D02*
X145035113Y-69540000D01*
X145075113Y-67460000D02*
X145075113Y-66715000D01*
X145075113Y-70285000D02*
X145075113Y-69540000D01*
X145115113Y-67460000D02*
X145115113Y-66675000D01*
X145115113Y-70325000D02*
X145115113Y-69540000D01*
X145155113Y-67460000D02*
X145155113Y-66636000D01*
X145155113Y-70364000D02*
X145155113Y-69540000D01*
X145195113Y-67460000D02*
X145195113Y-66599000D01*
X145195113Y-70401000D02*
X145195113Y-69540000D01*
X145235113Y-67460000D02*
X145235113Y-66564000D01*
X145235113Y-70436000D02*
X145235113Y-69540000D01*
X145275113Y-67460000D02*
X145275113Y-66530000D01*
X145275113Y-70470000D02*
X145275113Y-69540000D01*
X145315113Y-67460000D02*
X145315113Y-66497000D01*
X145315113Y-70503000D02*
X145315113Y-69540000D01*
X145355113Y-67460000D02*
X145355113Y-66465000D01*
X145355113Y-70535000D02*
X145355113Y-69540000D01*
X145395113Y-67460000D02*
X145395113Y-66435000D01*
X145395113Y-70565000D02*
X145395113Y-69540000D01*
X145435113Y-67460000D02*
X145435113Y-66406000D01*
X145435113Y-70594000D02*
X145435113Y-69540000D01*
X145475113Y-67460000D02*
X145475113Y-66378000D01*
X145475113Y-70622000D02*
X145475113Y-69540000D01*
X145515113Y-67460000D02*
X145515113Y-66351000D01*
X145515113Y-70649000D02*
X145515113Y-69540000D01*
X145555113Y-67460000D02*
X145555113Y-66325000D01*
X145555113Y-70675000D02*
X145555113Y-69540000D01*
X145595113Y-67460000D02*
X145595113Y-66301000D01*
X145595113Y-70699000D02*
X145595113Y-69540000D01*
X145635113Y-67460000D02*
X145635113Y-66277000D01*
X145635113Y-70723000D02*
X145635113Y-69540000D01*
X145675113Y-67460000D02*
X145675113Y-66254000D01*
X145675113Y-70746000D02*
X145675113Y-69540000D01*
X145715113Y-67460000D02*
X145715113Y-66232000D01*
X145715113Y-70768000D02*
X145715113Y-69540000D01*
X145755113Y-67460000D02*
X145755113Y-66211000D01*
X145755113Y-70789000D02*
X145755113Y-69540000D01*
X145795113Y-67460000D02*
X145795113Y-66191000D01*
X145795113Y-70809000D02*
X145795113Y-69540000D01*
X145835113Y-67460000D02*
X145835113Y-66171000D01*
X145835113Y-70829000D02*
X145835113Y-69540000D01*
X145875113Y-67460000D02*
X145875113Y-66153000D01*
X145875113Y-70847000D02*
X145875113Y-69540000D01*
X145915113Y-67460000D02*
X145915113Y-66135000D01*
X145915113Y-70865000D02*
X145915113Y-69540000D01*
X145955113Y-67460000D02*
X145955113Y-66118000D01*
X145955113Y-70882000D02*
X145955113Y-69540000D01*
X145995113Y-67460000D02*
X145995113Y-66102000D01*
X145995113Y-70898000D02*
X145995113Y-69540000D01*
X146035113Y-67460000D02*
X146035113Y-66087000D01*
X146035113Y-70913000D02*
X146035113Y-69540000D01*
X146075113Y-67460000D02*
X146075113Y-66072000D01*
X146075113Y-70928000D02*
X146075113Y-69540000D01*
X146115113Y-67460000D02*
X146115113Y-66058000D01*
X146115113Y-70942000D02*
X146115113Y-69540000D01*
X146155113Y-67460000D02*
X146155113Y-66045000D01*
X146155113Y-70955000D02*
X146155113Y-69540000D01*
X146195113Y-67460000D02*
X146195113Y-66033000D01*
X146195113Y-70967000D02*
X146195113Y-69540000D01*
X146235113Y-67460000D02*
X146235113Y-66021000D01*
X146235113Y-70979000D02*
X146235113Y-69540000D01*
X146275113Y-67460000D02*
X146275113Y-66010000D01*
X146275113Y-70990000D02*
X146275113Y-69540000D01*
X146315113Y-67460000D02*
X146315113Y-65999000D01*
X146315113Y-71001000D02*
X146315113Y-69540000D01*
X146355113Y-67460000D02*
X146355113Y-65990000D01*
X146355113Y-71010000D02*
X146355113Y-69540000D01*
X146395113Y-67460000D02*
X146395113Y-65981000D01*
X146395113Y-71019000D02*
X146395113Y-69540000D01*
X146435113Y-67460000D02*
X146435113Y-65972000D01*
X146435113Y-71028000D02*
X146435113Y-69540000D01*
X146475113Y-67460000D02*
X146475113Y-65964000D01*
X146475113Y-71036000D02*
X146475113Y-69540000D01*
X146515113Y-67460000D02*
X146515113Y-65957000D01*
X146515113Y-71043000D02*
X146515113Y-69540000D01*
X146555113Y-67460000D02*
X146555113Y-65951000D01*
X146555113Y-71049000D02*
X146555113Y-69540000D01*
X146595113Y-67460000D02*
X146595113Y-65945000D01*
X146595113Y-71055000D02*
X146595113Y-69540000D01*
X146635113Y-67460000D02*
X146635113Y-65940000D01*
X146635113Y-71060000D02*
X146635113Y-69540000D01*
X146675113Y-67460000D02*
X146675113Y-65935000D01*
X146675113Y-71065000D02*
X146675113Y-69540000D01*
X146715113Y-67460000D02*
X146715113Y-65931000D01*
X146715113Y-71069000D02*
X146715113Y-69540000D01*
X146755113Y-67460000D02*
X146755113Y-65928000D01*
X146755113Y-71072000D02*
X146755113Y-69540000D01*
X146795113Y-67460000D02*
X146795113Y-65925000D01*
X146795113Y-71075000D02*
X146795113Y-69540000D01*
X146835113Y-67460000D02*
X146835113Y-65923000D01*
X146835113Y-71077000D02*
X146835113Y-69540000D01*
X146875113Y-67460000D02*
X146875113Y-65921000D01*
X146875113Y-71079000D02*
X146875113Y-69540000D01*
X146915113Y-67460000D02*
X146915113Y-65920000D01*
X146915113Y-71080000D02*
X146915113Y-69540000D01*
X146955113Y-67460000D02*
X146955113Y-65920000D01*
X146955113Y-71080000D02*
X146955113Y-69540000D01*
X149509888Y-70225000D02*
X149509888Y-69725000D01*
X149759888Y-69975000D02*
X149259888Y-69975000D01*
X149575113Y-68500000D02*
G75*
G02*
X144335113Y-68500000I-2620000J0D01*
G01*
X144335113Y-68500000D02*
G75*
G02*
X149575113Y-68500000I2620000J0D01*
G01*
%TO.C,J4*%
X127000000Y-62750000D02*
X127000000Y-77250000D01*
X127000000Y-77250000D02*
X127500000Y-77250000D01*
X127500000Y-62750000D02*
X127000000Y-62750000D01*
X127500000Y-63750000D02*
X127500000Y-62750000D01*
X127500000Y-76250000D02*
X135500000Y-76250000D01*
X127500000Y-77250000D02*
X127500000Y-76250000D01*
X135500000Y-63750000D02*
X127500000Y-63750000D01*
X139000000Y-76250000D02*
X141000000Y-76250000D01*
X141000000Y-63750000D02*
X139000000Y-63750000D01*
X141000000Y-76250000D02*
X141000000Y-63750000D01*
X141250000Y-66000000D02*
X141250000Y-67000000D01*
%TO.C,U2*%
X189990000Y-66640000D02*
X190225000Y-66640000D01*
X189990000Y-74360000D02*
X189990000Y-66640000D01*
X190225000Y-74360000D02*
X189990000Y-74360000D01*
X202775000Y-66640000D02*
X203010000Y-66640000D01*
X203010000Y-66640000D02*
X203010000Y-74360000D01*
X203010000Y-74360000D02*
X202775000Y-74360000D01*
X190220000Y-75150000D02*
X189750000Y-75490000D01*
X189750000Y-74810000D01*
X190220000Y-75150000D01*
G36*
X190220000Y-75150000D02*
G01*
X189750000Y-75490000D01*
X189750000Y-74810000D01*
X190220000Y-75150000D01*
G37*
%TO.C,C4*%
X187590000Y-74211252D02*
X187590000Y-72788748D01*
X189410000Y-74211252D02*
X189410000Y-72788748D01*
%TO.C,U1*%
D13*
X204090000Y-83408450D02*
X134090000Y-83408450D01*
X134090000Y-57408450D01*
X204090000Y-57408450D01*
X204090000Y-83408450D01*
D14*
%TO.C,a*%
G36*
X148769420Y-61905687D02*
G01*
X148769420Y-62096459D01*
X148578647Y-62096459D01*
X148387875Y-62096459D01*
X148387875Y-62914056D01*
X148387875Y-63731652D01*
X148074868Y-63731652D01*
X147761862Y-63731652D01*
X147754643Y-62920869D01*
X147747424Y-62110086D01*
X147563465Y-62102027D01*
X147379506Y-62093969D01*
X147379506Y-61904441D01*
X147379506Y-61714914D01*
X148074463Y-61714914D01*
X148769420Y-61714914D01*
X148769420Y-61905687D01*
G37*
G36*
X154893423Y-61720344D02*
G01*
X154899697Y-61778111D01*
X154901390Y-61880028D01*
X154901394Y-61887844D01*
X154901394Y-62093858D01*
X154731061Y-62101972D01*
X154560729Y-62110086D01*
X154553510Y-62920869D01*
X154546291Y-63731652D01*
X154260943Y-63731652D01*
X153975596Y-63731652D01*
X153968377Y-62920869D01*
X153961158Y-62110086D01*
X153797639Y-62102212D01*
X153634119Y-62094338D01*
X153643169Y-61904626D01*
X153652219Y-61714914D01*
X154233698Y-61714914D01*
X154408403Y-61714164D01*
X154566203Y-61712068D01*
X154698400Y-61708856D01*
X154796294Y-61704759D01*
X154851187Y-61700006D01*
X154858285Y-61698372D01*
X154880357Y-61697004D01*
X154893423Y-61720344D01*
G37*
G36*
X152659817Y-61719326D02*
G01*
X152871208Y-61725282D01*
X153035982Y-61734903D01*
X153162002Y-61750152D01*
X153257131Y-61772991D01*
X153329232Y-61805384D01*
X153386168Y-61849294D01*
X153435801Y-61906684D01*
X153441588Y-61914498D01*
X153458340Y-61939857D01*
X153471394Y-61969097D01*
X153481210Y-62008903D01*
X153488248Y-62065962D01*
X153492967Y-62146957D01*
X153495826Y-62258574D01*
X153497285Y-62407499D01*
X153497803Y-62600416D01*
X153497853Y-62733293D01*
X153497987Y-62989478D01*
X153495489Y-63196513D01*
X153486007Y-63359730D01*
X153465190Y-63484459D01*
X153428686Y-63576031D01*
X153372145Y-63639777D01*
X153291215Y-63681026D01*
X153181544Y-63705110D01*
X153038782Y-63717359D01*
X152858578Y-63723104D01*
X152687070Y-63726544D01*
X152148819Y-63738016D01*
X152148819Y-63380981D01*
X152748390Y-63380981D01*
X152823336Y-63372357D01*
X152898282Y-63363734D01*
X152905625Y-62736931D01*
X152907662Y-62534565D01*
X152908151Y-62379853D01*
X152906685Y-62265955D01*
X152902858Y-62186029D01*
X152896262Y-62133237D01*
X152886492Y-62100737D01*
X152873141Y-62081688D01*
X152866349Y-62076040D01*
X152830971Y-62051919D01*
X152803479Y-62041113D01*
X152782880Y-62048975D01*
X152768180Y-62080858D01*
X152758387Y-62142114D01*
X152752505Y-62238097D01*
X152749542Y-62374158D01*
X152748503Y-62555650D01*
X152748390Y-62711467D01*
X152748390Y-63380981D01*
X152148819Y-63380981D01*
X152148819Y-62723527D01*
X152148819Y-62711467D01*
X152148819Y-61709037D01*
X152659817Y-61719326D01*
G37*
G36*
X146473336Y-61719263D02*
G01*
X146661252Y-61722991D01*
X146803090Y-61727382D01*
X146907278Y-61733295D01*
X146982245Y-61741592D01*
X147036419Y-61753132D01*
X147078229Y-61768778D01*
X147106973Y-61783974D01*
X147181919Y-61836596D01*
X147235003Y-61899766D01*
X147269261Y-61982925D01*
X147287729Y-62095513D01*
X147293445Y-62246973D01*
X147292041Y-62359404D01*
X147287507Y-62503447D01*
X147280880Y-62603691D01*
X147270452Y-62670838D01*
X147254518Y-62715595D01*
X147231369Y-62748666D01*
X147229677Y-62750552D01*
X147148354Y-62820345D01*
X147046059Y-62867449D01*
X146910838Y-62896118D01*
X146788468Y-62907604D01*
X146561909Y-62921739D01*
X146561909Y-63326695D01*
X146561909Y-63731652D01*
X146265690Y-63731652D01*
X145969470Y-63731652D01*
X145952577Y-63629453D01*
X145948497Y-63577961D01*
X145944753Y-63479266D01*
X145941470Y-63340668D01*
X145938772Y-63169469D01*
X145936784Y-62972971D01*
X145935628Y-62758476D01*
X145935385Y-62618619D01*
X145935313Y-62400166D01*
X146564454Y-62400166D01*
X146568796Y-62483924D01*
X146583447Y-62532171D01*
X146611330Y-62554314D01*
X146655371Y-62559760D01*
X146657115Y-62559764D01*
X146720474Y-62540638D01*
X146753356Y-62489857D01*
X146777534Y-62385746D01*
X146780285Y-62272696D01*
X146763086Y-62170431D01*
X146727416Y-62098671D01*
X146723753Y-62094783D01*
X146663435Y-62047083D01*
X146619669Y-62044254D01*
X146590285Y-62088748D01*
X146573113Y-62183022D01*
X146567497Y-62271492D01*
X146564454Y-62400166D01*
X145935313Y-62400166D01*
X145935085Y-61709985D01*
X146473336Y-61719263D01*
G37*
G36*
X147474233Y-63930506D02*
G01*
X147590337Y-63994883D01*
X147747505Y-64092669D01*
X147801930Y-64128005D01*
X148030333Y-64272698D01*
X148243389Y-64398426D01*
X148436676Y-64503126D01*
X148605774Y-64584734D01*
X148746262Y-64641189D01*
X148853718Y-64670428D01*
X148923722Y-64670389D01*
X148942159Y-64659943D01*
X148951541Y-64629197D01*
X148925589Y-64586570D01*
X148860791Y-64528845D01*
X148753636Y-64452804D01*
X148628226Y-64372363D01*
X148500177Y-64285212D01*
X148405107Y-64205232D01*
X148347600Y-64137266D01*
X148332243Y-64086159D01*
X148341141Y-64069087D01*
X148375131Y-64067623D01*
X148451127Y-64080969D01*
X148559539Y-64106360D01*
X148690779Y-64141029D01*
X148835256Y-64182212D01*
X148983382Y-64227142D01*
X149125567Y-64273054D01*
X149252223Y-64317183D01*
X149353759Y-64356763D01*
X149382332Y-64369372D01*
X149590459Y-64491519D01*
X149762145Y-64650093D01*
X149899891Y-64848184D01*
X150006200Y-65088885D01*
X150033630Y-65174206D01*
X150062909Y-65273146D01*
X150076794Y-65338799D01*
X150068432Y-65374991D01*
X150030972Y-65385547D01*
X149957561Y-65374294D01*
X149841348Y-65345056D01*
X149764162Y-65324655D01*
X149639693Y-65295145D01*
X149481412Y-65262300D01*
X149309521Y-65230097D01*
X149144223Y-65202515D01*
X149142082Y-65202185D01*
X148886401Y-65159318D01*
X148675807Y-65114511D01*
X148500928Y-65063608D01*
X148352388Y-65002455D01*
X148220816Y-64926896D01*
X148096836Y-64832778D01*
X147971075Y-64715944D01*
X147914482Y-64658070D01*
X147831999Y-64566949D01*
X147738002Y-64455241D01*
X147640159Y-64332989D01*
X147546133Y-64210233D01*
X147463591Y-64097017D01*
X147400197Y-64003383D01*
X147363618Y-63939373D01*
X147360847Y-63932765D01*
X147360634Y-63899955D01*
X147398047Y-63899033D01*
X147474233Y-63930506D01*
G37*
G36*
X153255211Y-63900110D02*
G01*
X153260154Y-63923961D01*
X153234269Y-63981726D01*
X153182661Y-64066335D01*
X153110438Y-64170718D01*
X153022705Y-64287805D01*
X152924569Y-64410526D01*
X152821137Y-64531812D01*
X152717513Y-64644592D01*
X152717473Y-64644635D01*
X152585016Y-64775726D01*
X152460369Y-64881429D01*
X152334018Y-64966021D01*
X152196445Y-65033778D01*
X152038134Y-65088976D01*
X151849571Y-65135892D01*
X151621238Y-65178803D01*
X151477427Y-65201911D01*
X151215407Y-65246414D01*
X150963672Y-65296884D01*
X150738895Y-65349804D01*
X150615825Y-65383648D01*
X150576490Y-65379689D01*
X150568251Y-65348242D01*
X150579395Y-65283409D01*
X150608681Y-65185546D01*
X150650199Y-65070536D01*
X150698041Y-64954263D01*
X150746297Y-64852609D01*
X150765876Y-64817052D01*
X150884438Y-64655852D01*
X151035538Y-64511142D01*
X151154076Y-64428314D01*
X151229354Y-64391011D01*
X151337952Y-64346377D01*
X151470674Y-64297271D01*
X151618324Y-64246551D01*
X151771708Y-64197077D01*
X151921629Y-64151707D01*
X152058891Y-64113300D01*
X152174300Y-64084715D01*
X152258658Y-64068810D01*
X152302771Y-64068445D01*
X152305755Y-64070277D01*
X152313106Y-64099060D01*
X152286555Y-64141355D01*
X152222579Y-64200462D01*
X152117656Y-64279680D01*
X151983508Y-64372103D01*
X151850527Y-64464551D01*
X151761497Y-64534494D01*
X151712430Y-64585373D01*
X151699141Y-64617382D01*
X151721356Y-64656531D01*
X151784505Y-64667365D01*
X151883339Y-64650526D01*
X152012614Y-64606653D01*
X152101156Y-64568294D01*
X152197550Y-64519625D01*
X152326816Y-64448799D01*
X152477166Y-64362844D01*
X152636810Y-64268784D01*
X152793960Y-64173647D01*
X152936827Y-64084458D01*
X153053624Y-64008245D01*
X153123761Y-63958790D01*
X153190027Y-63918027D01*
X153244812Y-63899748D01*
X153255211Y-63900110D01*
G37*
G36*
X150526920Y-61343719D02*
G01*
X150627669Y-61365824D01*
X150743655Y-61395575D01*
X150863087Y-61429641D01*
X150974172Y-61464692D01*
X151065119Y-61497394D01*
X151124136Y-61524417D01*
X151140437Y-61539808D01*
X151132144Y-61578430D01*
X151110253Y-61653220D01*
X151079264Y-61748929D01*
X151074905Y-61761810D01*
X151009361Y-61954518D01*
X151105130Y-62045929D01*
X151181327Y-62128001D01*
X151252679Y-62219359D01*
X151268258Y-62242478D01*
X151335617Y-62347617D01*
X151517379Y-62328985D01*
X151620129Y-62317332D01*
X151707759Y-62305428D01*
X151756639Y-62296797D01*
X151783918Y-62294187D01*
X151803055Y-62308054D01*
X151817607Y-62347933D01*
X151831130Y-62423356D01*
X151846353Y-62537329D01*
X151862499Y-62662226D01*
X151878024Y-62778134D01*
X151890396Y-62866296D01*
X151893929Y-62889811D01*
X151909290Y-62988206D01*
X151708829Y-63007004D01*
X151581131Y-63020104D01*
X151496308Y-63034803D01*
X151442920Y-63057224D01*
X151409522Y-63093493D01*
X151384674Y-63149733D01*
X151371838Y-63187382D01*
X151327162Y-63321892D01*
X151472271Y-63486745D01*
X151539959Y-63566228D01*
X151590795Y-63630852D01*
X151616070Y-63669383D01*
X151617381Y-63673861D01*
X151597819Y-63698945D01*
X151544279Y-63751862D01*
X151464481Y-63825342D01*
X151366147Y-63912114D01*
X151344849Y-63930497D01*
X151072317Y-64164871D01*
X150908797Y-64005132D01*
X150745278Y-63845392D01*
X150555064Y-63894153D01*
X150364850Y-63942914D01*
X150297433Y-64150695D01*
X150264405Y-64246889D01*
X150236269Y-64318731D01*
X150217894Y-64354085D01*
X150215115Y-64355786D01*
X150184867Y-64347288D01*
X150112706Y-64325954D01*
X150008857Y-64294835D01*
X149883548Y-64256981D01*
X149859549Y-64249702D01*
X149714364Y-64205516D01*
X149614769Y-64170465D01*
X149554780Y-64136045D01*
X149528412Y-64093751D01*
X149529683Y-64035080D01*
X149552609Y-63951527D01*
X149583658Y-63857604D01*
X149633403Y-63706818D01*
X149554585Y-63631305D01*
X149493421Y-63563356D01*
X149425259Y-63474220D01*
X149391786Y-63424920D01*
X149329778Y-63341349D01*
X149281817Y-63307001D01*
X149263452Y-63307084D01*
X149215070Y-63316063D01*
X149130503Y-63327166D01*
X149027883Y-63338017D01*
X149025907Y-63338202D01*
X148832715Y-63356284D01*
X148799823Y-63101103D01*
X148784051Y-62978061D01*
X148769839Y-62865983D01*
X148759426Y-62782575D01*
X148756657Y-62759781D01*
X148751960Y-62720403D01*
X149848044Y-62720403D01*
X149848766Y-62855363D01*
X149897550Y-62985557D01*
X149993479Y-63102818D01*
X150072264Y-63162915D01*
X150158170Y-63212317D01*
X150230460Y-63234163D01*
X150317364Y-63235826D01*
X150344423Y-63233972D01*
X150458248Y-63214086D01*
X150547846Y-63177629D01*
X150560765Y-63168941D01*
X150672463Y-63059576D01*
X150735747Y-62931275D01*
X150751768Y-62849488D01*
X150747671Y-62703910D01*
X150696679Y-62580562D01*
X150606106Y-62479108D01*
X150468587Y-62388684D01*
X150325076Y-62349861D01*
X150182145Y-62362750D01*
X150046366Y-62427461D01*
X149994448Y-62468854D01*
X149896300Y-62588845D01*
X149848044Y-62720403D01*
X148751960Y-62720403D01*
X148746382Y-62673639D01*
X148914607Y-62656148D01*
X149058408Y-62639455D01*
X149155573Y-62623436D01*
X149213913Y-62606234D01*
X149241238Y-62585992D01*
X149244979Y-62577634D01*
X149257677Y-62533599D01*
X149279405Y-62460346D01*
X149288779Y-62429100D01*
X149324008Y-62312063D01*
X149169353Y-62155778D01*
X149097464Y-62081474D01*
X149043360Y-62022397D01*
X149016218Y-61988673D01*
X149014699Y-61985129D01*
X149034170Y-61962887D01*
X149087249Y-61912765D01*
X149165934Y-61842091D01*
X149262224Y-61758192D01*
X149266791Y-61754267D01*
X149364714Y-61669187D01*
X149446450Y-61596312D01*
X149503619Y-61543246D01*
X149527839Y-61517592D01*
X149527968Y-61517328D01*
X149549969Y-61498290D01*
X149588670Y-61512935D01*
X149649409Y-61564744D01*
X149730234Y-61649199D01*
X149803601Y-61726911D01*
X149854283Y-61770506D01*
X149894824Y-61787455D01*
X149937770Y-61785232D01*
X149953066Y-61781928D01*
X150035238Y-61765322D01*
X150133874Y-61748756D01*
X150156468Y-61745444D01*
X150276241Y-61728541D01*
X150333614Y-61545691D01*
X150366039Y-61450468D01*
X150396320Y-61375265D01*
X150417999Y-61336086D01*
X150418302Y-61335778D01*
X150453201Y-61332594D01*
X150526920Y-61343719D01*
G37*
D12*
%TO.C,J2*%
X152220000Y-67030000D02*
X165520000Y-67030000D01*
X152220000Y-73430000D02*
X152220000Y-67030000D01*
X165520000Y-67030000D02*
X165520000Y-65720000D01*
X169620000Y-65720000D02*
X169620000Y-67030000D01*
X169620000Y-67030000D02*
X182920000Y-67030000D01*
X178500000Y-64330000D02*
X179000000Y-65330000D01*
X179000000Y-65330000D02*
X179500000Y-64330000D01*
X179500000Y-64330000D02*
X178500000Y-64330000D01*
X182920000Y-67030000D02*
X182920000Y-73430000D01*
X182920000Y-73430000D02*
X152220000Y-73430000D01*
%TO.C,J1*%
X150120000Y-78380000D02*
X150120000Y-77000000D01*
X151500000Y-78380000D02*
X150120000Y-78380000D01*
X152770000Y-78380000D02*
X155420000Y-78380000D01*
X152770000Y-78380000D02*
X152770000Y-75620000D01*
X155420000Y-78380000D02*
X155420000Y-75620000D01*
X152770000Y-75620000D02*
X155420000Y-75620000D01*
%TD*%
M02*
