%TF.GenerationSoftware,KiCad,Pcbnew,9.0.6*%
%TF.CreationDate,2026-05-27T23:23:12+02:00*%
%TF.ProjectId,cpiii-plasma-hdmi,63706969-692d-4706-9c61-736d612d6864,rev?*%
%TF.SameCoordinates,Original*%
%TF.FileFunction,Copper,L1,Top*%
%TF.FilePolarity,Positive*%
%FSLAX46Y46*%
G04 Gerber Fmt 4.6, Leading zero omitted, Abs format (unit mm)*
G04 Created by KiCad (PCBNEW 9.0.6) date 2026-05-27 23:23:12*
%MOMM*%
%LPD*%
G01*
G04 APERTURE LIST*
G04 Aperture macros list*
%AMRoundRect*
0 Rectangle with rounded corners*
0 $1 Rounding radius*
0 $2 $3 $4 $5 $6 $7 $8 $9 X,Y pos of 4 corners*
0 Add a 4 corners polygon primitive as box body*
4,1,4,$2,$3,$4,$5,$6,$7,$8,$9,$2,$3,0*
0 Add four circle primitives for the rounded corners*
1,1,$1+$1,$2,$3*
1,1,$1+$1,$4,$5*
1,1,$1+$1,$6,$7*
1,1,$1+$1,$8,$9*
0 Add four rect primitives between the rounded corners*
20,1,$1+$1,$2,$3,$4,$5,0*
20,1,$1+$1,$4,$5,$6,$7,0*
20,1,$1+$1,$6,$7,$8,$9,0*
20,1,$1+$1,$8,$9,$2,$3,0*%
G04 Aperture macros list end*
%TA.AperFunction,SMDPad,CuDef*%
%ADD10RoundRect,0.250000X0.325000X0.650000X-0.325000X0.650000X-0.325000X-0.650000X0.325000X-0.650000X0*%
%TD*%
%TA.AperFunction,ComponentPad*%
%ADD11RoundRect,0.250000X0.550000X0.550000X-0.550000X0.550000X-0.550000X-0.550000X0.550000X-0.550000X0*%
%TD*%
%TA.AperFunction,ComponentPad*%
%ADD12C,1.600000*%
%TD*%
%TA.AperFunction,ComponentPad*%
%ADD13R,1.600000X1.600000*%
%TD*%
%TA.AperFunction,ComponentPad*%
%ADD14C,3.000000*%
%TD*%
%TA.AperFunction,SMDPad,CuDef*%
%ADD15RoundRect,0.150000X0.150000X-0.875000X0.150000X0.875000X-0.150000X0.875000X-0.150000X-0.875000X0*%
%TD*%
%TA.AperFunction,SMDPad,CuDef*%
%ADD16RoundRect,0.250000X0.650000X-0.325000X0.650000X0.325000X-0.650000X0.325000X-0.650000X-0.325000X0*%
%TD*%
%TA.AperFunction,ComponentPad*%
%ADD17R,1.600000X2.000000*%
%TD*%
%TA.AperFunction,ComponentPad*%
%ADD18O,1.600000X2.000000*%
%TD*%
%TA.AperFunction,ComponentPad*%
%ADD19RoundRect,0.250000X-0.600000X0.600000X-0.600000X-0.600000X0.600000X-0.600000X0.600000X0.600000X0*%
%TD*%
%TA.AperFunction,ComponentPad*%
%ADD20C,1.700000*%
%TD*%
%TA.AperFunction,ComponentPad*%
%ADD21R,1.700000X1.700000*%
%TD*%
%TA.AperFunction,ViaPad*%
%ADD22C,0.600000*%
%TD*%
%TA.AperFunction,Conductor*%
%ADD23C,0.200000*%
%TD*%
G04 APERTURE END LIST*
D10*
%TO.P,C2,1*%
%TO.N,PLS_VDC*%
X148000000Y-74500000D03*
%TO.P,C2,2*%
%TO.N,GND*%
X145050000Y-74500000D03*
%TD*%
D11*
%TO.P,C1,1*%
%TO.N,PLS_VDC*%
X147955113Y-68500000D03*
D12*
%TO.P,C1,2*%
%TO.N,GND*%
X145955113Y-68500000D03*
%TD*%
D13*
%TO.P,J4,1,VBUS*%
%TO.N,PLS_VDC*%
X139990000Y-66500000D03*
D12*
%TO.P,J4,2,D-*%
%TO.N,unconnected-(J4-D--Pad2)*%
X139990000Y-69000000D03*
%TO.P,J4,3,D+*%
%TO.N,unconnected-(J4-D+-Pad3)*%
X139990000Y-71000000D03*
%TO.P,J4,4,GND*%
%TO.N,GND*%
X139990000Y-73500000D03*
D14*
%TO.P,J4,5,Shield*%
%TO.N,unconnected-(J4-Shield-Pad5)*%
X137280000Y-63430000D03*
X137280000Y-76570000D03*
%TD*%
D15*
%TO.P,U2,1,DIR*%
%TO.N,3V3*%
X190785000Y-75150000D03*
%TO.P,U2,2,A1*%
%TO.N,/PLS_ENA*%
X192055000Y-75150000D03*
%TO.P,U2,3,A2*%
%TO.N,/PLS_VS*%
X193325000Y-75150000D03*
%TO.P,U2,4,A3*%
%TO.N,/PLS_HS*%
X194595000Y-75150000D03*
%TO.P,U2,5,A4*%
%TO.N,/PLS_PCLK*%
X195865000Y-75150000D03*
%TO.P,U2,6,A5*%
%TO.N,/PLS_DATA3*%
X197135000Y-75150000D03*
%TO.P,U2,7,A6*%
%TO.N,/PLS_DATA2*%
X198405000Y-75150000D03*
%TO.P,U2,8,A7*%
%TO.N,/PLS_DATA1*%
X199675000Y-75150000D03*
%TO.P,U2,9,A8*%
%TO.N,/PLS_DATA0*%
X200945000Y-75150000D03*
%TO.P,U2,10,GND*%
%TO.N,GND*%
X202215000Y-75150000D03*
%TO.P,U2,11,B8*%
%TO.N,/TG_DATA0*%
X202215000Y-65850000D03*
%TO.P,U2,12,B7*%
%TO.N,/TG_DATA1*%
X200945000Y-65850000D03*
%TO.P,U2,13,B6*%
%TO.N,/TG_DATA2*%
X199675000Y-65850000D03*
%TO.P,U2,14,B5*%
%TO.N,/TG_DATA3*%
X198405000Y-65850000D03*
%TO.P,U2,15,B4*%
%TO.N,/TG_PCLK*%
X197135000Y-65850000D03*
%TO.P,U2,16,B3*%
%TO.N,/TG_HS*%
X195865000Y-65850000D03*
%TO.P,U2,17,B2*%
%TO.N,/TG_VS*%
X194595000Y-65850000D03*
%TO.P,U2,18,B1*%
%TO.N,/TG_ENA*%
X193325000Y-65850000D03*
%TO.P,U2,19,~{OE}*%
%TO.N,GND*%
X192055000Y-65850000D03*
%TO.P,U2,20,Vcc*%
%TO.N,3V3*%
X190785000Y-65850000D03*
%TD*%
D16*
%TO.P,C4,1*%
%TO.N,3V3*%
X188500000Y-74975000D03*
%TO.P,C4,2*%
%TO.N,GND*%
X188500000Y-72025000D03*
%TD*%
D17*
%TO.P,U1,1,38_IOB31B*%
%TO.N,unconnected-(U1-38_IOB31B-Pad1)*%
X201500000Y-59000000D03*
D18*
%TO.P,U1,2,37_IOB31A*%
%TO.N,unconnected-(U1-37_IOB31A-Pad2)*%
X198960000Y-59000000D03*
%TO.P,U1,3,36_IOB29B*%
%TO.N,unconnected-(U1-36_IOB29B-Pad3)*%
X196420000Y-59000000D03*
%TO.P,U1,4,39_IOB33A*%
%TO.N,unconnected-(U1-39_IOB33A-Pad4)*%
X193880000Y-59000000D03*
%TO.P,U1,5,25_IOB8A*%
%TO.N,/TG_DATA0*%
X191340000Y-59000000D03*
%TO.P,U1,6,26_IOB8B*%
%TO.N,/TG_DATA1*%
X188800000Y-59000000D03*
%TO.P,U1,7,27_IOB11A*%
%TO.N,/TG_DATA2*%
X186260000Y-59000000D03*
%TO.P,U1,8,28_IOB11B*%
%TO.N,/TG_DATA3*%
X183720000Y-59000000D03*
%TO.P,U1,9,29_IOB13A*%
%TO.N,/TG_PCLK*%
X181180000Y-59000000D03*
%TO.P,U1,10,30_IOB13B*%
%TO.N,/TG_HS*%
X178640000Y-59000000D03*
%TO.P,U1,11,33_IOB23A*%
%TO.N,/TG_VS*%
X176100000Y-59000000D03*
%TO.P,U1,12,34_IOB23B*%
%TO.N,/TG_ENA*%
X173560000Y-59000000D03*
%TO.P,U1,13,40_IOB33B*%
%TO.N,unconnected-(U1-40_IOB33B-Pad13)*%
X171020000Y-59000000D03*
%TO.P,U1,14,35_IOB29A*%
%TO.N,unconnected-(U1-35_IOB29A-Pad14)*%
X168480000Y-59000000D03*
%TO.P,U1,15,41_IOB41A*%
%TO.N,unconnected-(U1-41_IOB41A-Pad15)*%
X165940000Y-59000000D03*
%TO.P,U1,16,42_IOB41B*%
%TO.N,unconnected-(U1-42_IOB41B-Pad16)*%
X163400000Y-59000000D03*
%TO.P,U1,17,51_IOR17B*%
%TO.N,unconnected-(U1-51_IOR17B-Pad17)*%
X160860000Y-59000000D03*
%TO.P,U1,18,53_IOR15B*%
%TO.N,unconnected-(U1-53_IOR15B-Pad18)*%
X158320000Y-59000000D03*
%TO.P,U1,19,54_IOR15A*%
%TO.N,unconnected-(U1-54_IOR15A-Pad19)*%
X155780000Y-59000000D03*
%TO.P,U1,20,55_IOR14B*%
%TO.N,unconnected-(U1-55_IOR14B-Pad20)*%
X153240000Y-59000000D03*
%TO.P,U1,21,56_IOR14A*%
%TO.N,unconnected-(U1-56_IOR14A-Pad21)*%
X150700000Y-59000000D03*
%TO.P,U1,22,57_IOR13A*%
%TO.N,unconnected-(U1-57_IOR13A-Pad22)*%
X148160000Y-59000000D03*
%TO.P,U1,23,68_IOT42B*%
%TO.N,unconnected-(U1-68_IOT42B-Pad23)*%
X145620000Y-59000000D03*
%TO.P,U1,24,69_IOT42A*%
%TO.N,unconnected-(U1-69_IOT42A-Pad24)*%
X143080000Y-59000000D03*
%TO.P,U1,25,3V3*%
%TO.N,3V3*%
X143080000Y-81816900D03*
%TO.P,U1,26,GND*%
%TO.N,GND*%
X145620000Y-81816900D03*
%TO.P,U1,27,32_IOB15B*%
%TO.N,unconnected-(U1-32_IOB15B-Pad27)*%
X148160000Y-81816900D03*
%TO.P,U1,28,31_IOB15A*%
%TO.N,unconnected-(U1-31_IOB15A-Pad28)*%
X150700000Y-81816900D03*
%TO.P,U1,29,49_IOR24A*%
%TO.N,unconnected-(U1-49_IOR24A-Pad29)*%
X153240000Y-81816900D03*
%TO.P,U1,30,48_IOR24B*%
%TO.N,unconnected-(U1-48_IOR24B-Pad30)*%
X155780000Y-81816900D03*
%TO.P,U1,31,5V*%
%TO.N,/TG_5V*%
X158320000Y-81816900D03*
%TO.P,U1,32,70_IOT41B*%
%TO.N,unconnected-(U1-70_IOT41B-Pad32)*%
X160860000Y-81816900D03*
%TO.P,U1,33,71_IOT41A*%
%TO.N,unconnected-(U1-71_IOT41A-Pad33)*%
X163400000Y-81816900D03*
%TO.P,U1,34,72_IOT39B*%
%TO.N,unconnected-(U1-72_IOT39B-Pad34)*%
X165940000Y-81816900D03*
%TO.P,U1,35,73_IOT39A*%
%TO.N,unconnected-(U1-73_IOT39A-Pad35)*%
X168480000Y-81816900D03*
%TO.P,U1,36,74_IOT38B*%
%TO.N,unconnected-(U1-74_IOT38B-Pad36)*%
X171020000Y-81816900D03*
%TO.P,U1,37,75_IOT38A*%
%TO.N,unconnected-(U1-75_IOT38A-Pad37)*%
X173560000Y-81816900D03*
%TO.P,U1,38,76_IOT37B*%
%TO.N,unconnected-(U1-76_IOT37B-Pad38)*%
X176100000Y-81816900D03*
%TO.P,U1,39,77_IOT37A*%
%TO.N,unconnected-(U1-77_IOT37A-Pad39)*%
X178640000Y-81816900D03*
%TO.P,U1,40,79_IOT12B_1V8*%
%TO.N,unconnected-(U1-79_IOT12B_1V8-Pad40)*%
X181180000Y-81816900D03*
%TO.P,U1,41,80_IOT12A_1V8*%
%TO.N,unconnected-(U1-80_IOT12A_1V8-Pad41)*%
X183720000Y-81816900D03*
%TO.P,U1,42,81_IOT11B_1V8*%
%TO.N,unconnected-(U1-81_IOT11B_1V8-Pad42)*%
X186260000Y-81816900D03*
%TO.P,U1,43,82_IOT11A_1V8*%
%TO.N,unconnected-(U1-82_IOT11A_1V8-Pad43)*%
X188800000Y-81816900D03*
%TO.P,U1,44,83_IOT10B_1V8*%
%TO.N,unconnected-(U1-83_IOT10B_1V8-Pad44)*%
X191340000Y-81816900D03*
%TO.P,U1,45,84_IOT10A_1V8*%
%TO.N,unconnected-(U1-84_IOT10A_1V8-Pad45)*%
X193880000Y-81816900D03*
%TO.P,U1,46,85_IOT8B_1V8*%
%TO.N,unconnected-(U1-85_IOT8B_1V8-Pad46)*%
X196420000Y-81816900D03*
%TO.P,U1,47,86_IOT8A_1V8*%
%TO.N,unconnected-(U1-86_IOT8A_1V8-Pad47)*%
X198960000Y-81816900D03*
D17*
%TO.P,U1,48,63_IOR5A*%
%TO.N,unconnected-(U1-63_IOR5A-Pad48)*%
X201500000Y-81816900D03*
%TD*%
D19*
%TO.P,J2,1,Pin_1*%
%TO.N,GND*%
X179000000Y-68960000D03*
D20*
%TO.P,J2,2,Pin_2*%
%TO.N,/PLS_ENA*%
X179000000Y-71500000D03*
%TO.P,J2,3,Pin_3*%
%TO.N,GND*%
X176460000Y-68960000D03*
%TO.P,J2,4,Pin_4*%
%TO.N,/PLS_VS*%
X176460000Y-71500000D03*
%TO.P,J2,5,Pin_5*%
%TO.N,GND*%
X173920000Y-68960000D03*
%TO.P,J2,6,Pin_6*%
%TO.N,/PLS_HS*%
X173920000Y-71500000D03*
%TO.P,J2,7,Pin_7*%
%TO.N,GND*%
X171380000Y-68960000D03*
%TO.P,J2,8,Pin_8*%
%TO.N,/PLS_PCLK*%
X171380000Y-71500000D03*
%TO.P,J2,9,Pin_9*%
%TO.N,GND*%
X168840000Y-68960000D03*
%TO.P,J2,10,Pin_10*%
%TO.N,/PLS_DATA3*%
X168840000Y-71500000D03*
%TO.P,J2,11,Pin_11*%
%TO.N,GND*%
X166300000Y-68960000D03*
%TO.P,J2,12,Pin_12*%
%TO.N,/PLS_DATA2*%
X166300000Y-71500000D03*
%TO.P,J2,13,Pin_13*%
%TO.N,GND*%
X163760000Y-68960000D03*
%TO.P,J2,14,Pin_14*%
%TO.N,/PLS_DATA1*%
X163760000Y-71500000D03*
%TO.P,J2,15,Pin_15*%
%TO.N,GND*%
X161220000Y-68960000D03*
%TO.P,J2,16,Pin_16*%
%TO.N,/PLS_DATA0*%
X161220000Y-71500000D03*
%TO.P,J2,17,Pin_17*%
%TO.N,PLS_VDC*%
X158680000Y-68960000D03*
%TO.P,J2,18,Pin_18*%
X158680000Y-71500000D03*
%TO.P,J2,19,Pin_19*%
X156140000Y-68960000D03*
%TO.P,J2,20,Pin_20*%
X156140000Y-71500000D03*
%TD*%
D21*
%TO.P,J1,1,Pin_1*%
%TO.N,PLS_VDC*%
X151500000Y-77000000D03*
D20*
%TO.P,J1,2,Pin_2*%
%TO.N,/TG_5V*%
X154040000Y-77000000D03*
%TD*%
D22*
%TO.N,GND*%
X201000000Y-70500000D03*
X192500000Y-70500000D03*
X167000000Y-62500000D03*
X171500000Y-62500000D03*
X154500000Y-79500000D03*
X136000000Y-59000000D03*
X137000000Y-73000000D03*
X176000000Y-66000000D03*
X148500000Y-78500000D03*
X162500000Y-66000000D03*
X158000000Y-62500000D03*
X151000000Y-72000000D03*
X158000000Y-76500000D03*
X184500000Y-70000000D03*
X202500000Y-79500000D03*
X143500000Y-65500000D03*
X202500000Y-61000000D03*
X144000000Y-78500000D03*
X161000000Y-76500000D03*
X164500000Y-79000000D03*
X188500000Y-70000000D03*
X151000000Y-62500000D03*
X171500000Y-66000000D03*
X147500000Y-66000000D03*
X137000000Y-66500000D03*
X151000000Y-66000000D03*
X167000000Y-66000000D03*
X137500000Y-77000000D03*
X147500000Y-62500000D03*
X137500000Y-81500000D03*
X161000000Y-79000000D03*
X143500000Y-73000000D03*
X140000000Y-59000000D03*
X184500000Y-73500000D03*
X197000000Y-70500000D03*
X158000000Y-79000000D03*
X162500000Y-62500000D03*
X158000000Y-66000000D03*
X154500000Y-62500000D03*
X154500000Y-66000000D03*
X188500000Y-66000000D03*
X184500000Y-66000000D03*
X143500000Y-62500000D03*
X180000000Y-66000000D03*
%TO.N,3V3*%
X186000000Y-75000000D03*
%TD*%
D23*
%TO.N,/TG_5V*%
X158320000Y-81280000D02*
X158320000Y-81816900D01*
X154040000Y-77000000D02*
X158320000Y-81280000D01*
%TO.N,PLS_VDC*%
X149000000Y-74500000D02*
X151500000Y-77000000D01*
X148000000Y-74500000D02*
X149000000Y-74500000D01*
%TO.N,/PLS_ENA*%
X182000000Y-77000000D02*
X191229999Y-77000000D01*
X192055000Y-76174999D02*
X192055000Y-75150000D01*
X191229999Y-77000000D02*
X192055000Y-76174999D01*
X179000000Y-74000000D02*
X182000000Y-77000000D01*
X179000000Y-71500000D02*
X179000000Y-74000000D01*
%TO.N,/PLS_DATA3*%
X173500000Y-78500000D02*
X173500000Y-78698000D01*
X168840000Y-71500000D02*
X168840000Y-73840000D01*
X173500000Y-78698000D02*
X196000000Y-78698000D01*
X196000000Y-78698000D02*
X197135000Y-77563000D01*
X197135000Y-77563000D02*
X197135000Y-75150000D01*
X168840000Y-73840000D02*
X173500000Y-78500000D01*
%TO.N,/PLS_PCLK*%
X171380000Y-73880000D02*
X175797000Y-78297000D01*
X195865000Y-76932000D02*
X195865000Y-75150000D01*
X194500000Y-78297000D02*
X195865000Y-76932000D01*
X175797000Y-78297000D02*
X194500000Y-78297000D01*
X171380000Y-71500000D02*
X171380000Y-73880000D01*
%TO.N,PLS_VDC*%
X148415113Y-68960000D02*
X147955113Y-68500000D01*
X156140000Y-71500000D02*
X156140000Y-68960000D01*
X146056113Y-66601000D02*
X147955113Y-68500000D01*
X158680000Y-71500000D02*
X158680000Y-68960000D01*
X156140000Y-68960000D02*
X148415113Y-68960000D01*
X148000000Y-68544887D02*
X147955113Y-68500000D01*
X140091000Y-66601000D02*
X146056113Y-66601000D01*
X148415113Y-68960000D02*
X158680000Y-68960000D01*
X156140000Y-71500000D02*
X158680000Y-71500000D01*
X139990000Y-66500000D02*
X140091000Y-66601000D01*
X139710000Y-63430000D02*
X141150000Y-63430000D01*
X148000000Y-74500000D02*
X148000000Y-68544887D01*
%TO.N,/PLS_DATA2*%
X198405000Y-78095000D02*
X198405000Y-75150000D01*
X166300000Y-73800000D02*
X171500000Y-79000000D01*
X166300000Y-71500000D02*
X166300000Y-73800000D01*
X171500000Y-79000000D02*
X171500000Y-79099000D01*
X171500000Y-79099000D02*
X197401000Y-79099000D01*
X197401000Y-79099000D02*
X198405000Y-78095000D01*
%TO.N,/PLS_HS*%
X173920000Y-71500000D02*
X173920000Y-73920000D01*
X177896000Y-77896000D02*
X193000000Y-77896000D01*
X194595000Y-76301000D02*
X194595000Y-75150000D01*
X193000000Y-77896000D02*
X194595000Y-76301000D01*
X173920000Y-73920000D02*
X177896000Y-77896000D01*
%TO.N,/PLS_DATA0*%
X200945000Y-79055000D02*
X200000000Y-80000000D01*
X161220000Y-71500000D02*
X161220000Y-73720000D01*
X200945000Y-75150000D02*
X200945000Y-79055000D01*
X161220000Y-73720000D02*
X167500000Y-80000000D01*
X200000000Y-80000000D02*
X167500000Y-80000000D01*
%TO.N,GND*%
X192055000Y-65850000D02*
X192055000Y-64825001D01*
X147520000Y-76520000D02*
X147500000Y-76500000D01*
X202215000Y-74215000D02*
X202215000Y-75150000D01*
X148000000Y-76520000D02*
X147520000Y-76520000D01*
X148020000Y-76500000D02*
X148000000Y-76520000D01*
%TO.N,/PLS_DATA1*%
X199675000Y-78325000D02*
X198500000Y-79500000D01*
X163760000Y-73760000D02*
X169500000Y-79500000D01*
X198500000Y-79500000D02*
X169500000Y-79500000D01*
X163760000Y-71500000D02*
X163760000Y-73760000D01*
X199675000Y-75150000D02*
X199675000Y-78325000D01*
%TO.N,/PLS_VS*%
X179995000Y-77495000D02*
X192005000Y-77495000D01*
X193325000Y-76174999D02*
X193325000Y-75150000D01*
X176460000Y-71500000D02*
X176460000Y-73960000D01*
X192005000Y-77495000D02*
X193325000Y-76174999D01*
X176460000Y-73960000D02*
X179995000Y-77495000D01*
%TO.N,/TG_ENA*%
X173560000Y-61060000D02*
X173560000Y-59000000D01*
X193325000Y-65850000D02*
X193325000Y-65325000D01*
X176500000Y-64000000D02*
X173560000Y-61060000D01*
X192000000Y-64000000D02*
X176500000Y-64000000D01*
X193325000Y-65325000D02*
X192000000Y-64000000D01*
%TO.N,/TG_VS*%
X176100000Y-60600000D02*
X176100000Y-59000000D01*
X193500000Y-63500000D02*
X179000000Y-63500000D01*
X179000000Y-63500000D02*
X176100000Y-60600000D01*
X194595000Y-65850000D02*
X194595000Y-64595000D01*
X194595000Y-64595000D02*
X193500000Y-63500000D01*
%TO.N,/TG_DATA1*%
X199500000Y-61000000D02*
X200945000Y-62445000D01*
X188800000Y-59300000D02*
X190500000Y-61000000D01*
X200945000Y-62445000D02*
X200945000Y-65850000D01*
X190500000Y-61000000D02*
X199500000Y-61000000D01*
X188800000Y-59000000D02*
X188800000Y-59300000D01*
%TO.N,/TG_DATA2*%
X186260000Y-59000000D02*
X186260000Y-59260000D01*
X188500000Y-61500000D02*
X198000000Y-61500000D01*
X198000000Y-61500000D02*
X199675000Y-63175000D01*
X186260000Y-59260000D02*
X188500000Y-61500000D01*
X199675000Y-63175000D02*
X199675000Y-65850000D01*
%TO.N,/TG_DATA0*%
X202215000Y-62215000D02*
X202215000Y-65850000D01*
X200500000Y-60500000D02*
X202215000Y-62215000D01*
X192840000Y-60500000D02*
X200500000Y-60500000D01*
X191340000Y-59000000D02*
X192840000Y-60500000D01*
%TO.N,/TG_PCLK*%
X181180000Y-59680000D02*
X184000000Y-62500000D01*
X195500000Y-62500000D02*
X197135000Y-64135000D01*
X184000000Y-62500000D02*
X195500000Y-62500000D01*
X197135000Y-64135000D02*
X197135000Y-65850000D01*
X181180000Y-59000000D02*
X181180000Y-59680000D01*
%TO.N,/TG_HS*%
X178640000Y-60140000D02*
X181500000Y-63000000D01*
X181500000Y-63000000D02*
X194500000Y-63000000D01*
X195865000Y-64365000D02*
X195865000Y-65850000D01*
X194500000Y-63000000D02*
X195865000Y-64365000D01*
X178640000Y-59000000D02*
X178640000Y-60140000D01*
%TO.N,3V3*%
X186000000Y-75000000D02*
X190000000Y-75000000D01*
X190150000Y-75150000D02*
X190785000Y-75150000D01*
X190785000Y-65850000D02*
X190785000Y-75150000D01*
X190000000Y-75000000D02*
X190150000Y-75150000D01*
%TO.N,/TG_DATA3*%
X186000000Y-62000000D02*
X196500000Y-62000000D01*
X183720000Y-59000000D02*
X183720000Y-59720000D01*
X183720000Y-59720000D02*
X186000000Y-62000000D01*
X196500000Y-62000000D02*
X198405000Y-63905000D01*
X198405000Y-63905000D02*
X198405000Y-65850000D01*
%TO.N,/TG_5V*%
X157816900Y-81816900D02*
X158320000Y-81816900D01*
%TD*%
%TA.AperFunction,Conductor*%
%TO.N,GND*%
G36*
X141892470Y-58020185D02*
G01*
X141938225Y-58072989D01*
X141948169Y-58142147D01*
X141935916Y-58180795D01*
X141874781Y-58300776D01*
X141811522Y-58495465D01*
X141779500Y-58697648D01*
X141779500Y-59302351D01*
X141811522Y-59504534D01*
X141874781Y-59699223D01*
X141922905Y-59793670D01*
X141964459Y-59875224D01*
X141967715Y-59881613D01*
X142088028Y-60047213D01*
X142232786Y-60191971D01*
X142373327Y-60294078D01*
X142398390Y-60312287D01*
X142479499Y-60353614D01*
X142580776Y-60405218D01*
X142580778Y-60405218D01*
X142580781Y-60405220D01*
X142641944Y-60425093D01*
X142775465Y-60468477D01*
X142847170Y-60479834D01*
X142977648Y-60500500D01*
X142977649Y-60500500D01*
X143182351Y-60500500D01*
X143182352Y-60500500D01*
X143384534Y-60468477D01*
X143579219Y-60405220D01*
X143761610Y-60312287D01*
X143887776Y-60220623D01*
X143927213Y-60191971D01*
X143927215Y-60191968D01*
X143927219Y-60191966D01*
X144071966Y-60047219D01*
X144071968Y-60047215D01*
X144071971Y-60047213D01*
X144192284Y-59881614D01*
X144192285Y-59881613D01*
X144192287Y-59881610D01*
X144239516Y-59788917D01*
X144287489Y-59738123D01*
X144355310Y-59721328D01*
X144421445Y-59743865D01*
X144460483Y-59788917D01*
X144501053Y-59868539D01*
X144507715Y-59881614D01*
X144628028Y-60047213D01*
X144772786Y-60191971D01*
X144913327Y-60294078D01*
X144938390Y-60312287D01*
X145019499Y-60353614D01*
X145120776Y-60405218D01*
X145120778Y-60405218D01*
X145120781Y-60405220D01*
X145181944Y-60425093D01*
X145315465Y-60468477D01*
X145387170Y-60479834D01*
X145517648Y-60500500D01*
X145517649Y-60500500D01*
X145722351Y-60500500D01*
X145722352Y-60500500D01*
X145924534Y-60468477D01*
X146119219Y-60405220D01*
X146301610Y-60312287D01*
X146427776Y-60220623D01*
X146467213Y-60191971D01*
X146467215Y-60191968D01*
X146467219Y-60191966D01*
X146611966Y-60047219D01*
X146611968Y-60047215D01*
X146611971Y-60047213D01*
X146732284Y-59881614D01*
X146732285Y-59881613D01*
X146732287Y-59881610D01*
X146779516Y-59788917D01*
X146827489Y-59738123D01*
X146895310Y-59721328D01*
X146961445Y-59743865D01*
X147000483Y-59788917D01*
X147041053Y-59868539D01*
X147047715Y-59881614D01*
X147168028Y-60047213D01*
X147312786Y-60191971D01*
X147453327Y-60294078D01*
X147478390Y-60312287D01*
X147559499Y-60353614D01*
X147660776Y-60405218D01*
X147660778Y-60405218D01*
X147660781Y-60405220D01*
X147721944Y-60425093D01*
X147855465Y-60468477D01*
X147927170Y-60479834D01*
X148057648Y-60500500D01*
X148057649Y-60500500D01*
X148262351Y-60500500D01*
X148262352Y-60500500D01*
X148464534Y-60468477D01*
X148659219Y-60405220D01*
X148841610Y-60312287D01*
X148967776Y-60220623D01*
X149007213Y-60191971D01*
X149007215Y-60191968D01*
X149007219Y-60191966D01*
X149151966Y-60047219D01*
X149151968Y-60047215D01*
X149151971Y-60047213D01*
X149272284Y-59881614D01*
X149272285Y-59881613D01*
X149272287Y-59881610D01*
X149319516Y-59788917D01*
X149367489Y-59738123D01*
X149435310Y-59721328D01*
X149501445Y-59743865D01*
X149540483Y-59788917D01*
X149581053Y-59868539D01*
X149587715Y-59881614D01*
X149708028Y-60047213D01*
X149852786Y-60191971D01*
X149993327Y-60294078D01*
X150018390Y-60312287D01*
X150099499Y-60353614D01*
X150200776Y-60405218D01*
X150200778Y-60405218D01*
X150200781Y-60405220D01*
X150261944Y-60425093D01*
X150395465Y-60468477D01*
X150467170Y-60479834D01*
X150597648Y-60500500D01*
X150597649Y-60500500D01*
X150802351Y-60500500D01*
X150802352Y-60500500D01*
X151004534Y-60468477D01*
X151199219Y-60405220D01*
X151381610Y-60312287D01*
X151507776Y-60220623D01*
X151547213Y-60191971D01*
X151547215Y-60191968D01*
X151547219Y-60191966D01*
X151691966Y-60047219D01*
X151691968Y-60047215D01*
X151691971Y-60047213D01*
X151812284Y-59881614D01*
X151812285Y-59881613D01*
X151812287Y-59881610D01*
X151859516Y-59788917D01*
X151907489Y-59738123D01*
X151975310Y-59721328D01*
X152041445Y-59743865D01*
X152080483Y-59788917D01*
X152121053Y-59868539D01*
X152127715Y-59881614D01*
X152248028Y-60047213D01*
X152392786Y-60191971D01*
X152533327Y-60294078D01*
X152558390Y-60312287D01*
X152639499Y-60353614D01*
X152740776Y-60405218D01*
X152740778Y-60405218D01*
X152740781Y-60405220D01*
X152801944Y-60425093D01*
X152935465Y-60468477D01*
X153007170Y-60479834D01*
X153137648Y-60500500D01*
X153137649Y-60500500D01*
X153342351Y-60500500D01*
X153342352Y-60500500D01*
X153544534Y-60468477D01*
X153739219Y-60405220D01*
X153921610Y-60312287D01*
X154047776Y-60220623D01*
X154087213Y-60191971D01*
X154087215Y-60191968D01*
X154087219Y-60191966D01*
X154231966Y-60047219D01*
X154231968Y-60047215D01*
X154231971Y-60047213D01*
X154352284Y-59881614D01*
X154352285Y-59881613D01*
X154352287Y-59881610D01*
X154399516Y-59788917D01*
X154447489Y-59738123D01*
X154515310Y-59721328D01*
X154581445Y-59743865D01*
X154620483Y-59788917D01*
X154661053Y-59868539D01*
X154667715Y-59881614D01*
X154788028Y-60047213D01*
X154932786Y-60191971D01*
X155073327Y-60294078D01*
X155098390Y-60312287D01*
X155179499Y-60353614D01*
X155280776Y-60405218D01*
X155280778Y-60405218D01*
X155280781Y-60405220D01*
X155341944Y-60425093D01*
X155475465Y-60468477D01*
X155547170Y-60479834D01*
X155677648Y-60500500D01*
X155677649Y-60500500D01*
X155882351Y-60500500D01*
X155882352Y-60500500D01*
X156084534Y-60468477D01*
X156279219Y-60405220D01*
X156461610Y-60312287D01*
X156587776Y-60220623D01*
X156627213Y-60191971D01*
X156627215Y-60191968D01*
X156627219Y-60191966D01*
X156771966Y-60047219D01*
X156771968Y-60047215D01*
X156771971Y-60047213D01*
X156892284Y-59881614D01*
X156892285Y-59881613D01*
X156892287Y-59881610D01*
X156939516Y-59788917D01*
X156987489Y-59738123D01*
X157055310Y-59721328D01*
X157121445Y-59743865D01*
X157160483Y-59788917D01*
X157201053Y-59868539D01*
X157207715Y-59881614D01*
X157328028Y-60047213D01*
X157472786Y-60191971D01*
X157613327Y-60294078D01*
X157638390Y-60312287D01*
X157719499Y-60353614D01*
X157820776Y-60405218D01*
X157820778Y-60405218D01*
X157820781Y-60405220D01*
X157881944Y-60425093D01*
X158015465Y-60468477D01*
X158087170Y-60479834D01*
X158217648Y-60500500D01*
X158217649Y-60500500D01*
X158422351Y-60500500D01*
X158422352Y-60500500D01*
X158624534Y-60468477D01*
X158819219Y-60405220D01*
X159001610Y-60312287D01*
X159127776Y-60220623D01*
X159167213Y-60191971D01*
X159167215Y-60191968D01*
X159167219Y-60191966D01*
X159311966Y-60047219D01*
X159311968Y-60047215D01*
X159311971Y-60047213D01*
X159432284Y-59881614D01*
X159432285Y-59881613D01*
X159432287Y-59881610D01*
X159479516Y-59788917D01*
X159527489Y-59738123D01*
X159595310Y-59721328D01*
X159661445Y-59743865D01*
X159700483Y-59788917D01*
X159741053Y-59868539D01*
X159747715Y-59881614D01*
X159868028Y-60047213D01*
X160012786Y-60191971D01*
X160153327Y-60294078D01*
X160178390Y-60312287D01*
X160259499Y-60353614D01*
X160360776Y-60405218D01*
X160360778Y-60405218D01*
X160360781Y-60405220D01*
X160421944Y-60425093D01*
X160555465Y-60468477D01*
X160627170Y-60479834D01*
X160757648Y-60500500D01*
X160757649Y-60500500D01*
X160962351Y-60500500D01*
X160962352Y-60500500D01*
X161164534Y-60468477D01*
X161359219Y-60405220D01*
X161541610Y-60312287D01*
X161667776Y-60220623D01*
X161707213Y-60191971D01*
X161707215Y-60191968D01*
X161707219Y-60191966D01*
X161851966Y-60047219D01*
X161851968Y-60047215D01*
X161851971Y-60047213D01*
X161972284Y-59881614D01*
X161972285Y-59881613D01*
X161972287Y-59881610D01*
X162019516Y-59788917D01*
X162067489Y-59738123D01*
X162135310Y-59721328D01*
X162201445Y-59743865D01*
X162240483Y-59788917D01*
X162281053Y-59868539D01*
X162287715Y-59881614D01*
X162408028Y-60047213D01*
X162552786Y-60191971D01*
X162693327Y-60294078D01*
X162718390Y-60312287D01*
X162799499Y-60353614D01*
X162900776Y-60405218D01*
X162900778Y-60405218D01*
X162900781Y-60405220D01*
X162961944Y-60425093D01*
X163095465Y-60468477D01*
X163167170Y-60479834D01*
X163297648Y-60500500D01*
X163297649Y-60500500D01*
X163502351Y-60500500D01*
X163502352Y-60500500D01*
X163704534Y-60468477D01*
X163899219Y-60405220D01*
X164081610Y-60312287D01*
X164207776Y-60220623D01*
X164247213Y-60191971D01*
X164247215Y-60191968D01*
X164247219Y-60191966D01*
X164391966Y-60047219D01*
X164391968Y-60047215D01*
X164391971Y-60047213D01*
X164512284Y-59881614D01*
X164512285Y-59881613D01*
X164512287Y-59881610D01*
X164559516Y-59788917D01*
X164607489Y-59738123D01*
X164675310Y-59721328D01*
X164741445Y-59743865D01*
X164780483Y-59788917D01*
X164821053Y-59868539D01*
X164827715Y-59881614D01*
X164948028Y-60047213D01*
X165092786Y-60191971D01*
X165233327Y-60294078D01*
X165258390Y-60312287D01*
X165339499Y-60353614D01*
X165440776Y-60405218D01*
X165440778Y-60405218D01*
X165440781Y-60405220D01*
X165501944Y-60425093D01*
X165635465Y-60468477D01*
X165707170Y-60479834D01*
X165837648Y-60500500D01*
X165837649Y-60500500D01*
X166042351Y-60500500D01*
X166042352Y-60500500D01*
X166244534Y-60468477D01*
X166439219Y-60405220D01*
X166621610Y-60312287D01*
X166747776Y-60220623D01*
X166787213Y-60191971D01*
X166787215Y-60191968D01*
X166787219Y-60191966D01*
X166931966Y-60047219D01*
X166931968Y-60047215D01*
X166931971Y-60047213D01*
X167052284Y-59881614D01*
X167052285Y-59881613D01*
X167052287Y-59881610D01*
X167099516Y-59788917D01*
X167147489Y-59738123D01*
X167215310Y-59721328D01*
X167281445Y-59743865D01*
X167320483Y-59788917D01*
X167361053Y-59868539D01*
X167367715Y-59881614D01*
X167488028Y-60047213D01*
X167632786Y-60191971D01*
X167773327Y-60294078D01*
X167798390Y-60312287D01*
X167879499Y-60353614D01*
X167980776Y-60405218D01*
X167980778Y-60405218D01*
X167980781Y-60405220D01*
X168041944Y-60425093D01*
X168175465Y-60468477D01*
X168247170Y-60479834D01*
X168377648Y-60500500D01*
X168377649Y-60500500D01*
X168582351Y-60500500D01*
X168582352Y-60500500D01*
X168784534Y-60468477D01*
X168979219Y-60405220D01*
X169161610Y-60312287D01*
X169287776Y-60220623D01*
X169327213Y-60191971D01*
X169327215Y-60191968D01*
X169327219Y-60191966D01*
X169471966Y-60047219D01*
X169471968Y-60047215D01*
X169471971Y-60047213D01*
X169592284Y-59881614D01*
X169592285Y-59881613D01*
X169592287Y-59881610D01*
X169639516Y-59788917D01*
X169687489Y-59738123D01*
X169755310Y-59721328D01*
X169821445Y-59743865D01*
X169860483Y-59788917D01*
X169901053Y-59868539D01*
X169907715Y-59881614D01*
X170028028Y-60047213D01*
X170172786Y-60191971D01*
X170313327Y-60294078D01*
X170338390Y-60312287D01*
X170419499Y-60353614D01*
X170520776Y-60405218D01*
X170520778Y-60405218D01*
X170520781Y-60405220D01*
X170581944Y-60425093D01*
X170715465Y-60468477D01*
X170787170Y-60479834D01*
X170917648Y-60500500D01*
X170917649Y-60500500D01*
X171122351Y-60500500D01*
X171122352Y-60500500D01*
X171324534Y-60468477D01*
X171519219Y-60405220D01*
X171701610Y-60312287D01*
X171827776Y-60220623D01*
X171867213Y-60191971D01*
X171867215Y-60191968D01*
X171867219Y-60191966D01*
X172011966Y-60047219D01*
X172011968Y-60047215D01*
X172011971Y-60047213D01*
X172132284Y-59881614D01*
X172132285Y-59881613D01*
X172132287Y-59881610D01*
X172179516Y-59788917D01*
X172227489Y-59738123D01*
X172295310Y-59721328D01*
X172361445Y-59743865D01*
X172400483Y-59788917D01*
X172441053Y-59868539D01*
X172447715Y-59881614D01*
X172568028Y-60047213D01*
X172568034Y-60047219D01*
X172712781Y-60191966D01*
X172878390Y-60312287D01*
X172891793Y-60319116D01*
X172942589Y-60367088D01*
X172959500Y-60429601D01*
X172959500Y-60973330D01*
X172959499Y-60973348D01*
X172959499Y-61139054D01*
X172959498Y-61139054D01*
X173000423Y-61291785D01*
X173029358Y-61341900D01*
X173029359Y-61341904D01*
X173029360Y-61341904D01*
X173062612Y-61399500D01*
X173079479Y-61428714D01*
X173079481Y-61428717D01*
X173198349Y-61547585D01*
X173198355Y-61547590D01*
X176015139Y-64364374D01*
X176015149Y-64364385D01*
X176019479Y-64368715D01*
X176019480Y-64368716D01*
X176131284Y-64480520D01*
X176218095Y-64530639D01*
X176218097Y-64530641D01*
X176256151Y-64552611D01*
X176268215Y-64559577D01*
X176420943Y-64600501D01*
X176420946Y-64600501D01*
X176586653Y-64600501D01*
X176586669Y-64600500D01*
X189901253Y-64600500D01*
X189968292Y-64620185D01*
X190014047Y-64672989D01*
X190023991Y-64742147D01*
X190020329Y-64759095D01*
X189987402Y-64872426D01*
X189987401Y-64872432D01*
X189984500Y-64909298D01*
X189984500Y-66790701D01*
X189987401Y-66827567D01*
X189987402Y-66827573D01*
X190033254Y-66985393D01*
X190033255Y-66985396D01*
X190116917Y-67126862D01*
X190116923Y-67126870D01*
X190148180Y-67158126D01*
X190181666Y-67219448D01*
X190184500Y-67245808D01*
X190184500Y-73754191D01*
X190164815Y-73821230D01*
X190148181Y-73841872D01*
X190116923Y-73873129D01*
X190116917Y-73873137D01*
X190033255Y-74014603D01*
X190033254Y-74014606D01*
X189985634Y-74178515D01*
X189983210Y-74177810D01*
X189956789Y-74230221D01*
X189896600Y-74265704D01*
X189826782Y-74263012D01*
X189769503Y-74223002D01*
X189760741Y-74210574D01*
X189742712Y-74181344D01*
X189618656Y-74057288D01*
X189512458Y-73991785D01*
X189469336Y-73965187D01*
X189469331Y-73965185D01*
X189450829Y-73959054D01*
X189302797Y-73910001D01*
X189302795Y-73910000D01*
X189200010Y-73899500D01*
X187799998Y-73899500D01*
X187799981Y-73899501D01*
X187697203Y-73910000D01*
X187697200Y-73910001D01*
X187530668Y-73965185D01*
X187530663Y-73965187D01*
X187381342Y-74057289D01*
X187257289Y-74181342D01*
X187240405Y-74208716D01*
X187166389Y-74328717D01*
X187161395Y-74336813D01*
X187159600Y-74335706D01*
X187120313Y-74380337D01*
X187054092Y-74399500D01*
X186579766Y-74399500D01*
X186512727Y-74379815D01*
X186510875Y-74378602D01*
X186379185Y-74290609D01*
X186379172Y-74290602D01*
X186233501Y-74230264D01*
X186233489Y-74230261D01*
X186078845Y-74199500D01*
X186078842Y-74199500D01*
X185921158Y-74199500D01*
X185921155Y-74199500D01*
X185766510Y-74230261D01*
X185766498Y-74230264D01*
X185620827Y-74290602D01*
X185620814Y-74290609D01*
X185489711Y-74378210D01*
X185489707Y-74378213D01*
X185378213Y-74489707D01*
X185378210Y-74489711D01*
X185290609Y-74620814D01*
X185290602Y-74620827D01*
X185230264Y-74766498D01*
X185230261Y-74766510D01*
X185199500Y-74921153D01*
X185199500Y-75078846D01*
X185230261Y-75233489D01*
X185230264Y-75233501D01*
X185290602Y-75379172D01*
X185290609Y-75379185D01*
X185378210Y-75510288D01*
X185378213Y-75510292D01*
X185489707Y-75621786D01*
X185489711Y-75621789D01*
X185620814Y-75709390D01*
X185620827Y-75709397D01*
X185766498Y-75769735D01*
X185766503Y-75769737D01*
X185921153Y-75800499D01*
X185921156Y-75800500D01*
X185921158Y-75800500D01*
X186078844Y-75800500D01*
X186078845Y-75800499D01*
X186233497Y-75769737D01*
X186372769Y-75712049D01*
X186379172Y-75709397D01*
X186379172Y-75709396D01*
X186379179Y-75709394D01*
X186459225Y-75655909D01*
X186510875Y-75621398D01*
X186577553Y-75600520D01*
X186579766Y-75600500D01*
X187084362Y-75600500D01*
X187151401Y-75620185D01*
X187189899Y-75659401D01*
X187257288Y-75768656D01*
X187381344Y-75892712D01*
X187530666Y-75984814D01*
X187697203Y-76039999D01*
X187799991Y-76050500D01*
X189200008Y-76050499D01*
X189302797Y-76039999D01*
X189469334Y-75984814D01*
X189618656Y-75892712D01*
X189742712Y-75768656D01*
X189752438Y-75752886D01*
X189757817Y-75748047D01*
X189760506Y-75741333D01*
X189783443Y-75724998D01*
X189804385Y-75706162D01*
X189811525Y-75704999D01*
X189817419Y-75700803D01*
X189845548Y-75699462D01*
X189873348Y-75694938D01*
X189881693Y-75697739D01*
X189887209Y-75697477D01*
X189919976Y-75710593D01*
X189922498Y-75712049D01*
X189970714Y-75762615D01*
X189984500Y-75819438D01*
X189984500Y-76090701D01*
X189987401Y-76127567D01*
X189987402Y-76127573D01*
X190020329Y-76240905D01*
X190020130Y-76310774D01*
X189982188Y-76369444D01*
X189918550Y-76398288D01*
X189901253Y-76399500D01*
X182300098Y-76399500D01*
X182233059Y-76379815D01*
X182212417Y-76363181D01*
X179636819Y-73787583D01*
X179603334Y-73726260D01*
X179600500Y-73699902D01*
X179600500Y-72785718D01*
X179620185Y-72718679D01*
X179668207Y-72675233D01*
X179707815Y-72655052D01*
X179707815Y-72655051D01*
X179707816Y-72655051D01*
X179799193Y-72588661D01*
X179879786Y-72530109D01*
X179879788Y-72530106D01*
X179879792Y-72530104D01*
X180009910Y-72399986D01*
X187100001Y-72399986D01*
X187110494Y-72502697D01*
X187165641Y-72669119D01*
X187165643Y-72669124D01*
X187257684Y-72818345D01*
X187381654Y-72942315D01*
X187530875Y-73034356D01*
X187530880Y-73034358D01*
X187697302Y-73089505D01*
X187697309Y-73089506D01*
X187800019Y-73099999D01*
X188249999Y-73099999D01*
X188750000Y-73099999D01*
X189199972Y-73099999D01*
X189199986Y-73099998D01*
X189302697Y-73089505D01*
X189469119Y-73034358D01*
X189469124Y-73034356D01*
X189618345Y-72942315D01*
X189742315Y-72818345D01*
X189834356Y-72669124D01*
X189834358Y-72669119D01*
X189889505Y-72502697D01*
X189889506Y-72502690D01*
X189899999Y-72399986D01*
X189900000Y-72399973D01*
X189900000Y-72275000D01*
X188750000Y-72275000D01*
X188750000Y-73099999D01*
X188249999Y-73099999D01*
X188250000Y-73099998D01*
X188250000Y-72275000D01*
X187100001Y-72275000D01*
X187100001Y-72399986D01*
X180009910Y-72399986D01*
X180030104Y-72379792D01*
X180030106Y-72379788D01*
X180030109Y-72379786D01*
X180106239Y-72275000D01*
X180155051Y-72207816D01*
X180251557Y-72018412D01*
X180317246Y-71816243D01*
X180343574Y-71650013D01*
X187100000Y-71650013D01*
X187100000Y-71775000D01*
X188250000Y-71775000D01*
X188750000Y-71775000D01*
X189899999Y-71775000D01*
X189899999Y-71650028D01*
X189899998Y-71650013D01*
X189889505Y-71547302D01*
X189834358Y-71380880D01*
X189834356Y-71380875D01*
X189742315Y-71231654D01*
X189618345Y-71107684D01*
X189469124Y-71015643D01*
X189469119Y-71015641D01*
X189302697Y-70960494D01*
X189302690Y-70960493D01*
X189199986Y-70950000D01*
X188750000Y-70950000D01*
X188750000Y-71775000D01*
X188250000Y-71775000D01*
X188250000Y-70950000D01*
X187800028Y-70950000D01*
X187800012Y-70950001D01*
X187697302Y-70960494D01*
X187530880Y-71015641D01*
X187530875Y-71015643D01*
X187381654Y-71107684D01*
X187257684Y-71231654D01*
X187165643Y-71380875D01*
X187165641Y-71380880D01*
X187110494Y-71547302D01*
X187110493Y-71547309D01*
X187100000Y-71650013D01*
X180343574Y-71650013D01*
X180350500Y-71606287D01*
X180350500Y-71393713D01*
X180317246Y-71183757D01*
X180251557Y-70981588D01*
X180155051Y-70792184D01*
X180155049Y-70792181D01*
X180155048Y-70792179D01*
X180030109Y-70620213D01*
X179879790Y-70469894D01*
X179879785Y-70469890D01*
X179874399Y-70465977D01*
X179831731Y-70410649D01*
X179825750Y-70341036D01*
X179858354Y-70279240D01*
X179908278Y-70247951D01*
X179919117Y-70244359D01*
X179919124Y-70244356D01*
X180068345Y-70152315D01*
X180192315Y-70028345D01*
X180284356Y-69879124D01*
X180284358Y-69879119D01*
X180339505Y-69712697D01*
X180339506Y-69712690D01*
X180349999Y-69609986D01*
X180350000Y-69609973D01*
X180350000Y-69210000D01*
X179433012Y-69210000D01*
X179465925Y-69152993D01*
X179500000Y-69025826D01*
X179500000Y-68894174D01*
X179465925Y-68767007D01*
X179433012Y-68710000D01*
X180349999Y-68710000D01*
X180349999Y-68310028D01*
X180349998Y-68310013D01*
X180339505Y-68207302D01*
X180284358Y-68040880D01*
X180284356Y-68040875D01*
X180192315Y-67891654D01*
X180068345Y-67767684D01*
X179919124Y-67675643D01*
X179919119Y-67675641D01*
X179752697Y-67620494D01*
X179752690Y-67620493D01*
X179649986Y-67610000D01*
X179250000Y-67610000D01*
X179250000Y-68526988D01*
X179192993Y-68494075D01*
X179065826Y-68460000D01*
X178934174Y-68460000D01*
X178807007Y-68494075D01*
X178750000Y-68526988D01*
X178750000Y-67610000D01*
X178350028Y-67610000D01*
X178350012Y-67610001D01*
X178247302Y-67620494D01*
X178080880Y-67675641D01*
X178080875Y-67675643D01*
X177931654Y-67767684D01*
X177807684Y-67891654D01*
X177715643Y-68040875D01*
X177715642Y-68040878D01*
X177691806Y-68112811D01*
X177652033Y-68170255D01*
X177587517Y-68197078D01*
X177576306Y-68197245D01*
X176942962Y-68830590D01*
X176925925Y-68767007D01*
X176860099Y-68652993D01*
X176767007Y-68559901D01*
X176652993Y-68494075D01*
X176589409Y-68477037D01*
X177221716Y-67844728D01*
X177167550Y-67805375D01*
X176978217Y-67708904D01*
X176776129Y-67643242D01*
X176566246Y-67610000D01*
X176353754Y-67610000D01*
X176143872Y-67643242D01*
X176143869Y-67643242D01*
X175941782Y-67708904D01*
X175752439Y-67805380D01*
X175698282Y-67844727D01*
X175698282Y-67844728D01*
X176330591Y-68477037D01*
X176267007Y-68494075D01*
X176152993Y-68559901D01*
X176059901Y-68652993D01*
X175994075Y-68767007D01*
X175977037Y-68830591D01*
X175344728Y-68198282D01*
X175344727Y-68198282D01*
X175305380Y-68252440D01*
X175300483Y-68262051D01*
X175252506Y-68312845D01*
X175184684Y-68329638D01*
X175118550Y-68307098D01*
X175079516Y-68262048D01*
X175074626Y-68252452D01*
X175035270Y-68198282D01*
X175035269Y-68198282D01*
X174402962Y-68830590D01*
X174385925Y-68767007D01*
X174320099Y-68652993D01*
X174227007Y-68559901D01*
X174112993Y-68494075D01*
X174049409Y-68477037D01*
X174681716Y-67844728D01*
X174627550Y-67805375D01*
X174438217Y-67708904D01*
X174236129Y-67643242D01*
X174026246Y-67610000D01*
X173813754Y-67610000D01*
X173603872Y-67643242D01*
X173603869Y-67643242D01*
X173401782Y-67708904D01*
X173212439Y-67805380D01*
X173158282Y-67844727D01*
X173158282Y-67844728D01*
X173790591Y-68477037D01*
X173727007Y-68494075D01*
X173612993Y-68559901D01*
X173519901Y-68652993D01*
X173454075Y-68767007D01*
X173437037Y-68830591D01*
X172804728Y-68198282D01*
X172804727Y-68198282D01*
X172765380Y-68252440D01*
X172760483Y-68262051D01*
X172712506Y-68312845D01*
X172644684Y-68329638D01*
X172578550Y-68307098D01*
X172539516Y-68262048D01*
X172534626Y-68252452D01*
X172495270Y-68198282D01*
X172495269Y-68198282D01*
X171862962Y-68830590D01*
X171845925Y-68767007D01*
X171780099Y-68652993D01*
X171687007Y-68559901D01*
X171572993Y-68494075D01*
X171509409Y-68477037D01*
X172141716Y-67844728D01*
X172087550Y-67805375D01*
X171898217Y-67708904D01*
X171696129Y-67643242D01*
X171486246Y-67610000D01*
X171273754Y-67610000D01*
X171063872Y-67643242D01*
X171063869Y-67643242D01*
X170861782Y-67708904D01*
X170672439Y-67805380D01*
X170618282Y-67844727D01*
X170618282Y-67844728D01*
X171250591Y-68477037D01*
X171187007Y-68494075D01*
X171072993Y-68559901D01*
X170979901Y-68652993D01*
X170914075Y-68767007D01*
X170897037Y-68830591D01*
X170264728Y-68198282D01*
X170264727Y-68198282D01*
X170225380Y-68252440D01*
X170220483Y-68262051D01*
X170172506Y-68312845D01*
X170104684Y-68329638D01*
X170038550Y-68307098D01*
X169999516Y-68262048D01*
X169994626Y-68252452D01*
X169955270Y-68198282D01*
X169955269Y-68198282D01*
X169322962Y-68830590D01*
X169305925Y-68767007D01*
X169240099Y-68652993D01*
X169147007Y-68559901D01*
X169032993Y-68494075D01*
X168969409Y-68477037D01*
X169601716Y-67844728D01*
X169547550Y-67805375D01*
X169358217Y-67708904D01*
X169156129Y-67643242D01*
X168946246Y-67610000D01*
X168733754Y-67610000D01*
X168523872Y-67643242D01*
X168523869Y-67643242D01*
X168321782Y-67708904D01*
X168132439Y-67805380D01*
X168078282Y-67844727D01*
X168078282Y-67844728D01*
X168710591Y-68477037D01*
X168647007Y-68494075D01*
X168532993Y-68559901D01*
X168439901Y-68652993D01*
X168374075Y-68767007D01*
X168357037Y-68830591D01*
X167724728Y-68198282D01*
X167724727Y-68198282D01*
X167685380Y-68252440D01*
X167680483Y-68262051D01*
X167632506Y-68312845D01*
X167564684Y-68329638D01*
X167498550Y-68307098D01*
X167459516Y-68262048D01*
X167454626Y-68252452D01*
X167415270Y-68198282D01*
X167415269Y-68198282D01*
X166782962Y-68830590D01*
X166765925Y-68767007D01*
X166700099Y-68652993D01*
X166607007Y-68559901D01*
X166492993Y-68494075D01*
X166429409Y-68477037D01*
X167061716Y-67844728D01*
X167007550Y-67805375D01*
X166818217Y-67708904D01*
X166616129Y-67643242D01*
X166406246Y-67610000D01*
X166193754Y-67610000D01*
X165983872Y-67643242D01*
X165983869Y-67643242D01*
X165781782Y-67708904D01*
X165592439Y-67805380D01*
X165538282Y-67844727D01*
X165538282Y-67844728D01*
X166170591Y-68477037D01*
X166107007Y-68494075D01*
X165992993Y-68559901D01*
X165899901Y-68652993D01*
X165834075Y-68767007D01*
X165817037Y-68830591D01*
X165184728Y-68198282D01*
X165184727Y-68198282D01*
X165145380Y-68252440D01*
X165140483Y-68262051D01*
X165092506Y-68312845D01*
X165024684Y-68329638D01*
X164958550Y-68307098D01*
X164919516Y-68262048D01*
X164914626Y-68252452D01*
X164875270Y-68198282D01*
X164875269Y-68198282D01*
X164242962Y-68830590D01*
X164225925Y-68767007D01*
X164160099Y-68652993D01*
X164067007Y-68559901D01*
X163952993Y-68494075D01*
X163889409Y-68477037D01*
X164521716Y-67844728D01*
X164467550Y-67805375D01*
X164278217Y-67708904D01*
X164076129Y-67643242D01*
X163866246Y-67610000D01*
X163653754Y-67610000D01*
X163443872Y-67643242D01*
X163443869Y-67643242D01*
X163241782Y-67708904D01*
X163052439Y-67805380D01*
X162998282Y-67844727D01*
X162998282Y-67844728D01*
X163630591Y-68477037D01*
X163567007Y-68494075D01*
X163452993Y-68559901D01*
X163359901Y-68652993D01*
X163294075Y-68767007D01*
X163277037Y-68830591D01*
X162644728Y-68198282D01*
X162644727Y-68198282D01*
X162605380Y-68252440D01*
X162600483Y-68262051D01*
X162552506Y-68312845D01*
X162484684Y-68329638D01*
X162418550Y-68307098D01*
X162379516Y-68262048D01*
X162374626Y-68252452D01*
X162335270Y-68198282D01*
X162335269Y-68198282D01*
X161702962Y-68830590D01*
X161685925Y-68767007D01*
X161620099Y-68652993D01*
X161527007Y-68559901D01*
X161412993Y-68494075D01*
X161349409Y-68477037D01*
X161981716Y-67844728D01*
X161927550Y-67805375D01*
X161738217Y-67708904D01*
X161536129Y-67643242D01*
X161326246Y-67610000D01*
X161113754Y-67610000D01*
X160903872Y-67643242D01*
X160903869Y-67643242D01*
X160701782Y-67708904D01*
X160512439Y-67805380D01*
X160458282Y-67844727D01*
X160458282Y-67844728D01*
X161090591Y-68477037D01*
X161027007Y-68494075D01*
X160912993Y-68559901D01*
X160819901Y-68652993D01*
X160754075Y-68767007D01*
X160737037Y-68830591D01*
X160104728Y-68198282D01*
X160104727Y-68198282D01*
X160065380Y-68252440D01*
X160065376Y-68252446D01*
X160060760Y-68261505D01*
X160012781Y-68312297D01*
X159944959Y-68329087D01*
X159878826Y-68306543D01*
X159839794Y-68261493D01*
X159835051Y-68252184D01*
X159835049Y-68252181D01*
X159835048Y-68252179D01*
X159710109Y-68080213D01*
X159559786Y-67929890D01*
X159387820Y-67804951D01*
X159198414Y-67708444D01*
X159198413Y-67708443D01*
X159198412Y-67708443D01*
X158996243Y-67642754D01*
X158996241Y-67642753D01*
X158996240Y-67642753D01*
X158834957Y-67617208D01*
X158786287Y-67609500D01*
X158573713Y-67609500D01*
X158525042Y-67617208D01*
X158363760Y-67642753D01*
X158161585Y-67708444D01*
X157972179Y-67804951D01*
X157800213Y-67929890D01*
X157649890Y-68080213D01*
X157524949Y-68252182D01*
X157520484Y-68260946D01*
X157472509Y-68311742D01*
X157404688Y-68328536D01*
X157338553Y-68305998D01*
X157299516Y-68260946D01*
X157295050Y-68252182D01*
X157170109Y-68080213D01*
X157019786Y-67929890D01*
X156847820Y-67804951D01*
X156658414Y-67708444D01*
X156658413Y-67708443D01*
X156658412Y-67708443D01*
X156456243Y-67642754D01*
X156456241Y-67642753D01*
X156456240Y-67642753D01*
X156294957Y-67617208D01*
X156246287Y-67609500D01*
X156033713Y-67609500D01*
X155985042Y-67617208D01*
X155823760Y-67642753D01*
X155621585Y-67708444D01*
X155432179Y-67804951D01*
X155260213Y-67929890D01*
X155109890Y-68080213D01*
X154984948Y-68252184D01*
X154984947Y-68252185D01*
X154964765Y-68291795D01*
X154916791Y-68342591D01*
X154854281Y-68359500D01*
X149379612Y-68359500D01*
X149312573Y-68339815D01*
X149266818Y-68287011D01*
X149255612Y-68235500D01*
X149255612Y-67899998D01*
X149255611Y-67899981D01*
X149245112Y-67797203D01*
X149245111Y-67797200D01*
X149227415Y-67743797D01*
X149189927Y-67630666D01*
X149097825Y-67481344D01*
X148973769Y-67357288D01*
X148838719Y-67273989D01*
X148824449Y-67265187D01*
X148824444Y-67265185D01*
X148804152Y-67258461D01*
X148657910Y-67210001D01*
X148657908Y-67210000D01*
X148555129Y-67199500D01*
X148555122Y-67199500D01*
X147555211Y-67199500D01*
X147488172Y-67179815D01*
X147467530Y-67163181D01*
X146543703Y-66239355D01*
X146543701Y-66239352D01*
X146424830Y-66120481D01*
X146424829Y-66120480D01*
X146338017Y-66070360D01*
X146338017Y-66070359D01*
X146338013Y-66070358D01*
X146287898Y-66041423D01*
X146135170Y-66000499D01*
X145977056Y-66000499D01*
X145969460Y-66000499D01*
X145969444Y-66000500D01*
X141414499Y-66000500D01*
X141347460Y-65980815D01*
X141301705Y-65928011D01*
X141290499Y-65876500D01*
X141290499Y-65652129D01*
X141290498Y-65652123D01*
X141290497Y-65652116D01*
X141284091Y-65592517D01*
X141233796Y-65457669D01*
X141233795Y-65457668D01*
X141233793Y-65457664D01*
X141147547Y-65342455D01*
X141147544Y-65342452D01*
X141032335Y-65256206D01*
X141032328Y-65256202D01*
X140897482Y-65205908D01*
X140897483Y-65205908D01*
X140837883Y-65199501D01*
X140837881Y-65199500D01*
X140837873Y-65199500D01*
X140837864Y-65199500D01*
X139142129Y-65199500D01*
X139142123Y-65199501D01*
X139082516Y-65205908D01*
X138947671Y-65256202D01*
X138947664Y-65256206D01*
X138832455Y-65342452D01*
X138832452Y-65342455D01*
X138746206Y-65457664D01*
X138746202Y-65457671D01*
X138695908Y-65592517D01*
X138689501Y-65652116D01*
X138689501Y-65652123D01*
X138689500Y-65652135D01*
X138689500Y-67347870D01*
X138689501Y-67347876D01*
X138695908Y-67407483D01*
X138746202Y-67542328D01*
X138746206Y-67542335D01*
X138832452Y-67657544D01*
X138832455Y-67657547D01*
X138947664Y-67743793D01*
X138947671Y-67743797D01*
X139082514Y-67794090D01*
X139082517Y-67794091D01*
X139082519Y-67794091D01*
X139088033Y-67795394D01*
X139148751Y-67829965D01*
X139181139Y-67891874D01*
X139174915Y-67961466D01*
X139145033Y-68003396D01*
X139146226Y-68004589D01*
X138998032Y-68152782D01*
X138998028Y-68152786D01*
X138877715Y-68318386D01*
X138784781Y-68500776D01*
X138721522Y-68695465D01*
X138689500Y-68897648D01*
X138689500Y-69102351D01*
X138721522Y-69304534D01*
X138784781Y-69499223D01*
X138842173Y-69611859D01*
X138857893Y-69642712D01*
X138877715Y-69681613D01*
X138998028Y-69847213D01*
X139063134Y-69912319D01*
X139096619Y-69973642D01*
X139091635Y-70043334D01*
X139063134Y-70087681D01*
X138998032Y-70152782D01*
X138998028Y-70152786D01*
X138877715Y-70318386D01*
X138784781Y-70500776D01*
X138721522Y-70695465D01*
X138689500Y-70897648D01*
X138689500Y-71102351D01*
X138721522Y-71304534D01*
X138784781Y-71499223D01*
X138839332Y-71606283D01*
X138861613Y-71650013D01*
X138877715Y-71681613D01*
X138998028Y-71847213D01*
X139142786Y-71991971D01*
X139308385Y-72112284D01*
X139308387Y-72112285D01*
X139308390Y-72112287D01*
X139362378Y-72139795D01*
X139413174Y-72187769D01*
X139429969Y-72255590D01*
X139407432Y-72321725D01*
X139362378Y-72360765D01*
X139308644Y-72388143D01*
X139264077Y-72420523D01*
X139264077Y-72420524D01*
X139893250Y-73049697D01*
X139812447Y-73071349D01*
X139707554Y-73131909D01*
X139621909Y-73217554D01*
X139561349Y-73322447D01*
X139539697Y-73403250D01*
X138910524Y-72774077D01*
X138910523Y-72774077D01*
X138878143Y-72818644D01*
X138785244Y-73000968D01*
X138722009Y-73195582D01*
X138690000Y-73397682D01*
X138690000Y-73602317D01*
X138722009Y-73804417D01*
X138785244Y-73999031D01*
X138878141Y-74181350D01*
X138878147Y-74181359D01*
X138910523Y-74225921D01*
X138910524Y-74225922D01*
X139539697Y-73596749D01*
X139561349Y-73677553D01*
X139621909Y-73782446D01*
X139707554Y-73868091D01*
X139812447Y-73928651D01*
X139893249Y-73950302D01*
X139264076Y-74579474D01*
X139308650Y-74611859D01*
X139490968Y-74704755D01*
X139685582Y-74767990D01*
X139887683Y-74800000D01*
X140092317Y-74800000D01*
X140294417Y-74767990D01*
X140489031Y-74704755D01*
X140671349Y-74611859D01*
X140689983Y-74598321D01*
X140715921Y-74579474D01*
X140086749Y-73950302D01*
X140167553Y-73928651D01*
X140272446Y-73868091D01*
X140358091Y-73782446D01*
X140418651Y-73677553D01*
X140440302Y-73596750D01*
X141069474Y-74225922D01*
X141069474Y-74225921D01*
X141101859Y-74181349D01*
X141194755Y-73999031D01*
X141257989Y-73804418D01*
X141258687Y-73800013D01*
X143975000Y-73800013D01*
X143975000Y-74250000D01*
X144800000Y-74250000D01*
X145300000Y-74250000D01*
X146124999Y-74250000D01*
X146124999Y-73800028D01*
X146124998Y-73800013D01*
X146114505Y-73697302D01*
X146059358Y-73530880D01*
X146059356Y-73530875D01*
X145967315Y-73381654D01*
X145843345Y-73257684D01*
X145694124Y-73165643D01*
X145694119Y-73165641D01*
X145527697Y-73110494D01*
X145527690Y-73110493D01*
X145424986Y-73100000D01*
X145300000Y-73100000D01*
X145300000Y-74250000D01*
X144800000Y-74250000D01*
X144800000Y-73100000D01*
X144675027Y-73100000D01*
X144675012Y-73100001D01*
X144572302Y-73110494D01*
X144405880Y-73165641D01*
X144405875Y-73165643D01*
X144256654Y-73257684D01*
X144132684Y-73381654D01*
X144040643Y-73530875D01*
X144040641Y-73530880D01*
X143985494Y-73697302D01*
X143985493Y-73697309D01*
X143975000Y-73800013D01*
X141258687Y-73800013D01*
X141262259Y-73777465D01*
X141262259Y-73777464D01*
X141290000Y-73602317D01*
X141290000Y-73397682D01*
X141257990Y-73195582D01*
X141194755Y-73000968D01*
X141101859Y-72818650D01*
X141069474Y-72774077D01*
X141069474Y-72774076D01*
X140440302Y-73403249D01*
X140418651Y-73322447D01*
X140358091Y-73217554D01*
X140272446Y-73131909D01*
X140167553Y-73071349D01*
X140086748Y-73049697D01*
X140715922Y-72420524D01*
X140715921Y-72420523D01*
X140671359Y-72388147D01*
X140671350Y-72388141D01*
X140617621Y-72360765D01*
X140566825Y-72312791D01*
X140550030Y-72244970D01*
X140572567Y-72178835D01*
X140617621Y-72139795D01*
X140671610Y-72112287D01*
X140721144Y-72076298D01*
X140837213Y-71991971D01*
X140837215Y-71991968D01*
X140837219Y-71991966D01*
X140981966Y-71847219D01*
X140981968Y-71847215D01*
X140981971Y-71847213D01*
X141034732Y-71774590D01*
X141102287Y-71681610D01*
X141195220Y-71499219D01*
X141258477Y-71304534D01*
X141290500Y-71102352D01*
X141290500Y-70897648D01*
X141258477Y-70695466D01*
X141195220Y-70500781D01*
X141195218Y-70500778D01*
X141195218Y-70500776D01*
X141119534Y-70352240D01*
X141102287Y-70318390D01*
X141051468Y-70248443D01*
X140981971Y-70152786D01*
X140916866Y-70087681D01*
X140883381Y-70026358D01*
X140888365Y-69956666D01*
X140916866Y-69912319D01*
X140930621Y-69898564D01*
X140981966Y-69847219D01*
X140981968Y-69847215D01*
X140981971Y-69847213D01*
X141063632Y-69734814D01*
X141102287Y-69681610D01*
X141195220Y-69499219D01*
X141258477Y-69304534D01*
X141290500Y-69102352D01*
X141290500Y-68897648D01*
X141258477Y-68695466D01*
X141195220Y-68500781D01*
X141195218Y-68500778D01*
X141195218Y-68500776D01*
X141168893Y-68449111D01*
X141126829Y-68366557D01*
X141102287Y-68318390D01*
X141061355Y-68262051D01*
X140981971Y-68152786D01*
X140833774Y-68004589D01*
X140835219Y-68003143D01*
X140801737Y-67951806D01*
X140801268Y-67881938D01*
X140838646Y-67822907D01*
X140891967Y-67795394D01*
X140897478Y-67794091D01*
X140897483Y-67794091D01*
X141032331Y-67743796D01*
X141147546Y-67657546D01*
X141233796Y-67542331D01*
X141284091Y-67407483D01*
X141290500Y-67347873D01*
X141290500Y-67325500D01*
X141310185Y-67258461D01*
X141362989Y-67212706D01*
X141414500Y-67201500D01*
X145149017Y-67201500D01*
X145216056Y-67221185D01*
X145261811Y-67273989D01*
X145271755Y-67343147D01*
X145242730Y-67406703D01*
X145229308Y-67419021D01*
X145229190Y-67420524D01*
X145908666Y-68100000D01*
X145902452Y-68100000D01*
X145800719Y-68127259D01*
X145709507Y-68179920D01*
X145635033Y-68254394D01*
X145582372Y-68345606D01*
X145555113Y-68447339D01*
X145555113Y-68453553D01*
X144875637Y-67774077D01*
X144875636Y-67774077D01*
X144843256Y-67818644D01*
X144750357Y-68000968D01*
X144687122Y-68195582D01*
X144655113Y-68397682D01*
X144655113Y-68602317D01*
X144687122Y-68804417D01*
X144750357Y-68999031D01*
X144843254Y-69181350D01*
X144843260Y-69181359D01*
X144875636Y-69225921D01*
X144875637Y-69225922D01*
X145555113Y-68546446D01*
X145555113Y-68552661D01*
X145582372Y-68654394D01*
X145635033Y-68745606D01*
X145709507Y-68820080D01*
X145800719Y-68872741D01*
X145902452Y-68900000D01*
X145908665Y-68900000D01*
X145229189Y-69579474D01*
X145273763Y-69611859D01*
X145456081Y-69704755D01*
X145650695Y-69767990D01*
X145852796Y-69800000D01*
X146057430Y-69800000D01*
X146259530Y-69767990D01*
X146454144Y-69704755D01*
X146636454Y-69611863D01*
X146636462Y-69611858D01*
X146706665Y-69560852D01*
X146772471Y-69537371D01*
X146840525Y-69553196D01*
X146867233Y-69573488D01*
X146936457Y-69642712D01*
X147085779Y-69734814D01*
X147252316Y-69789999D01*
X147282207Y-69793052D01*
X147288102Y-69793655D01*
X147352794Y-69820051D01*
X147392946Y-69877232D01*
X147399500Y-69917013D01*
X147399500Y-73068942D01*
X147379815Y-73135981D01*
X147340598Y-73174479D01*
X147254209Y-73227764D01*
X147206342Y-73257289D01*
X147082289Y-73381342D01*
X146990187Y-73530663D01*
X146990185Y-73530668D01*
X146970105Y-73591265D01*
X146935001Y-73697203D01*
X146935001Y-73697204D01*
X146935000Y-73697204D01*
X146924500Y-73799983D01*
X146924500Y-75200001D01*
X146924501Y-75200018D01*
X146935000Y-75302796D01*
X146935001Y-75302799D01*
X146990185Y-75469331D01*
X146990187Y-75469336D01*
X147001621Y-75487873D01*
X147082288Y-75618656D01*
X147206344Y-75742712D01*
X147355666Y-75834814D01*
X147522203Y-75889999D01*
X147624991Y-75900500D01*
X148375008Y-75900499D01*
X148375016Y-75900498D01*
X148375019Y-75900498D01*
X148451238Y-75892712D01*
X148477797Y-75889999D01*
X148644334Y-75834814D01*
X148793656Y-75742712D01*
X148917712Y-75618656D01*
X148969559Y-75534598D01*
X149021505Y-75487873D01*
X149090467Y-75476650D01*
X149154550Y-75504493D01*
X149162778Y-75512013D01*
X150113181Y-76462416D01*
X150146666Y-76523739D01*
X150149500Y-76550097D01*
X150149500Y-77897870D01*
X150149501Y-77897876D01*
X150155908Y-77957483D01*
X150206202Y-78092328D01*
X150206206Y-78092335D01*
X150292452Y-78207544D01*
X150292455Y-78207547D01*
X150407664Y-78293793D01*
X150407671Y-78293797D01*
X150542517Y-78344091D01*
X150542516Y-78344091D01*
X150549444Y-78344835D01*
X150602127Y-78350500D01*
X152397872Y-78350499D01*
X152457483Y-78344091D01*
X152592331Y-78293796D01*
X152707546Y-78207546D01*
X152793796Y-78092331D01*
X152842810Y-77960916D01*
X152884681Y-77904984D01*
X152950145Y-77880566D01*
X153018418Y-77895417D01*
X153046673Y-77916569D01*
X153160213Y-78030109D01*
X153332179Y-78155048D01*
X153332181Y-78155049D01*
X153332184Y-78155051D01*
X153521588Y-78251557D01*
X153723757Y-78317246D01*
X153933713Y-78350500D01*
X153933714Y-78350500D01*
X154146286Y-78350500D01*
X154146287Y-78350500D01*
X154356243Y-78317246D01*
X154398523Y-78303507D01*
X154468362Y-78301511D01*
X154524522Y-78333757D01*
X156392797Y-80202032D01*
X156426282Y-80263355D01*
X156421298Y-80333047D01*
X156379426Y-80388980D01*
X156313962Y-80413397D01*
X156266798Y-80407644D01*
X156084536Y-80348423D01*
X155922816Y-80322809D01*
X155882352Y-80316400D01*
X155677648Y-80316400D01*
X155653329Y-80320251D01*
X155475465Y-80348422D01*
X155280776Y-80411681D01*
X155098386Y-80504615D01*
X154932786Y-80624928D01*
X154788028Y-80769686D01*
X154667715Y-80935286D01*
X154620485Y-81027980D01*
X154572510Y-81078776D01*
X154504689Y-81095571D01*
X154438554Y-81073034D01*
X154399515Y-81027980D01*
X154393950Y-81017059D01*
X154352287Y-80935290D01*
X154344556Y-80924649D01*
X154231971Y-80769686D01*
X154087213Y-80624928D01*
X153921613Y-80504615D01*
X153921612Y-80504614D01*
X153921610Y-80504613D01*
X153864653Y-80475591D01*
X153739223Y-80411681D01*
X153544534Y-80348422D01*
X153369995Y-80320778D01*
X153342352Y-80316400D01*
X153137648Y-80316400D01*
X153113329Y-80320251D01*
X152935465Y-80348422D01*
X152740776Y-80411681D01*
X152558386Y-80504615D01*
X152392786Y-80624928D01*
X152248028Y-80769686D01*
X152127715Y-80935286D01*
X152080485Y-81027980D01*
X152032510Y-81078776D01*
X151964689Y-81095571D01*
X151898554Y-81073034D01*
X151859515Y-81027980D01*
X151853950Y-81017059D01*
X151812287Y-80935290D01*
X151804556Y-80924649D01*
X151691971Y-80769686D01*
X151547213Y-80624928D01*
X151381613Y-80504615D01*
X151381612Y-80504614D01*
X151381610Y-80504613D01*
X151324653Y-80475591D01*
X151199223Y-80411681D01*
X151004534Y-80348422D01*
X150829995Y-80320778D01*
X150802352Y-80316400D01*
X150597648Y-80316400D01*
X150573329Y-80320251D01*
X150395465Y-80348422D01*
X150200776Y-80411681D01*
X150018386Y-80504615D01*
X149852786Y-80624928D01*
X149708028Y-80769686D01*
X149587715Y-80935286D01*
X149540485Y-81027980D01*
X149492510Y-81078776D01*
X149424689Y-81095571D01*
X149358554Y-81073034D01*
X149319515Y-81027980D01*
X149313950Y-81017059D01*
X149272287Y-80935290D01*
X149264556Y-80924649D01*
X149151971Y-80769686D01*
X149007213Y-80624928D01*
X148841613Y-80504615D01*
X148841612Y-80504614D01*
X148841610Y-80504613D01*
X148784653Y-80475591D01*
X148659223Y-80411681D01*
X148464534Y-80348422D01*
X148289995Y-80320778D01*
X148262352Y-80316400D01*
X148057648Y-80316400D01*
X148033329Y-80320251D01*
X147855465Y-80348422D01*
X147660776Y-80411681D01*
X147478386Y-80504615D01*
X147312786Y-80624928D01*
X147168028Y-80769686D01*
X147047713Y-80935288D01*
X147000203Y-81028530D01*
X146952228Y-81079326D01*
X146884407Y-81096120D01*
X146818272Y-81073582D01*
X146779234Y-81028528D01*
X146773390Y-81017060D01*
X146102961Y-81687488D01*
X146085925Y-81623907D01*
X146020099Y-81509893D01*
X145927007Y-81416801D01*
X145812993Y-81350975D01*
X145749410Y-81333937D01*
X146461761Y-80621586D01*
X146461760Y-80621584D01*
X146301352Y-80505042D01*
X146119031Y-80412144D01*
X145924417Y-80348909D01*
X145722317Y-80316900D01*
X145517683Y-80316900D01*
X145315582Y-80348909D01*
X145120968Y-80412144D01*
X144938649Y-80505041D01*
X144938640Y-80505047D01*
X144778238Y-80621585D01*
X144778237Y-80621586D01*
X145490589Y-81333937D01*
X145427007Y-81350975D01*
X145312993Y-81416801D01*
X145219901Y-81509893D01*
X145154075Y-81623907D01*
X145137037Y-81687489D01*
X144466607Y-81017059D01*
X144466606Y-81017060D01*
X144460764Y-81028527D01*
X144412790Y-81079323D01*
X144344969Y-81096119D01*
X144278834Y-81073582D01*
X144239794Y-81028528D01*
X144192287Y-80935290D01*
X144192285Y-80935287D01*
X144192284Y-80935285D01*
X144071971Y-80769686D01*
X143927213Y-80624928D01*
X143761613Y-80504615D01*
X143761612Y-80504614D01*
X143761610Y-80504613D01*
X143704653Y-80475591D01*
X143579223Y-80411681D01*
X143384534Y-80348422D01*
X143209995Y-80320778D01*
X143182352Y-80316400D01*
X142977648Y-80316400D01*
X142953329Y-80320251D01*
X142775465Y-80348422D01*
X142580776Y-80411681D01*
X142398386Y-80504615D01*
X142232786Y-80624928D01*
X142088028Y-80769686D01*
X141967715Y-80935286D01*
X141874781Y-81117676D01*
X141811522Y-81312365D01*
X141779500Y-81514548D01*
X141779500Y-82119251D01*
X141811523Y-82321435D01*
X141811524Y-82321442D01*
X141816639Y-82337183D01*
X141818634Y-82407024D01*
X141782553Y-82466857D01*
X141719852Y-82497684D01*
X141698708Y-82499500D01*
X134624500Y-82499500D01*
X134557461Y-82479815D01*
X134511706Y-82427011D01*
X134500500Y-82375500D01*
X134500500Y-76438872D01*
X135279500Y-76438872D01*
X135279500Y-76701127D01*
X135294339Y-76813834D01*
X135313730Y-76961116D01*
X135381602Y-77214418D01*
X135381605Y-77214428D01*
X135481953Y-77456690D01*
X135481958Y-77456700D01*
X135613075Y-77683803D01*
X135772718Y-77891851D01*
X135772726Y-77891860D01*
X135958140Y-78077274D01*
X135958148Y-78077281D01*
X135958149Y-78077282D01*
X136006554Y-78114424D01*
X136166196Y-78236924D01*
X136393299Y-78368041D01*
X136393309Y-78368046D01*
X136635571Y-78468394D01*
X136635581Y-78468398D01*
X136888884Y-78536270D01*
X137148880Y-78570500D01*
X137148887Y-78570500D01*
X137411113Y-78570500D01*
X137411120Y-78570500D01*
X137671116Y-78536270D01*
X137924419Y-78468398D01*
X138166697Y-78368043D01*
X138393803Y-78236924D01*
X138601851Y-78077282D01*
X138601855Y-78077277D01*
X138601860Y-78077274D01*
X138787274Y-77891860D01*
X138787277Y-77891855D01*
X138787282Y-77891851D01*
X138946924Y-77683803D01*
X139078043Y-77456697D01*
X139178398Y-77214419D01*
X139246270Y-76961116D01*
X139280500Y-76701120D01*
X139280500Y-76438880D01*
X139246270Y-76178884D01*
X139178398Y-75925581D01*
X139178394Y-75925571D01*
X139078046Y-75683309D01*
X139078041Y-75683299D01*
X138946924Y-75456196D01*
X138787281Y-75248148D01*
X138787274Y-75248140D01*
X138739120Y-75199986D01*
X143975001Y-75199986D01*
X143985494Y-75302697D01*
X144040641Y-75469119D01*
X144040643Y-75469124D01*
X144132684Y-75618345D01*
X144256654Y-75742315D01*
X144405875Y-75834356D01*
X144405880Y-75834358D01*
X144572302Y-75889505D01*
X144572309Y-75889506D01*
X144675019Y-75899999D01*
X144799999Y-75899999D01*
X145300000Y-75899999D01*
X145424972Y-75899999D01*
X145424986Y-75899998D01*
X145527697Y-75889505D01*
X145694119Y-75834358D01*
X145694124Y-75834356D01*
X145843345Y-75742315D01*
X145967315Y-75618345D01*
X146059356Y-75469124D01*
X146059358Y-75469119D01*
X146114505Y-75302697D01*
X146114506Y-75302690D01*
X146124999Y-75199986D01*
X146125000Y-75199973D01*
X146125000Y-74750000D01*
X145300000Y-74750000D01*
X145300000Y-75899999D01*
X144799999Y-75899999D01*
X144800000Y-75899998D01*
X144800000Y-74750000D01*
X143975001Y-74750000D01*
X143975001Y-75199986D01*
X138739120Y-75199986D01*
X138601860Y-75062726D01*
X138601851Y-75062718D01*
X138393803Y-74903075D01*
X138166700Y-74771958D01*
X138166690Y-74771953D01*
X137924428Y-74671605D01*
X137924421Y-74671603D01*
X137924419Y-74671602D01*
X137671116Y-74603730D01*
X137613339Y-74596123D01*
X137411127Y-74569500D01*
X137411120Y-74569500D01*
X137148880Y-74569500D01*
X137148872Y-74569500D01*
X136929968Y-74598321D01*
X136888884Y-74603730D01*
X136635581Y-74671602D01*
X136635571Y-74671605D01*
X136393309Y-74771953D01*
X136393299Y-74771958D01*
X136166196Y-74903075D01*
X135958148Y-75062718D01*
X135772718Y-75248148D01*
X135613075Y-75456196D01*
X135481958Y-75683299D01*
X135481953Y-75683309D01*
X135381605Y-75925571D01*
X135381602Y-75925581D01*
X135330335Y-76116915D01*
X135313730Y-76178885D01*
X135279500Y-76438872D01*
X134500500Y-76438872D01*
X134500500Y-63298872D01*
X135279500Y-63298872D01*
X135279500Y-63561127D01*
X135294258Y-63673215D01*
X135313730Y-63821116D01*
X135358869Y-63989577D01*
X135381602Y-64074418D01*
X135381605Y-64074428D01*
X135481953Y-64316690D01*
X135481958Y-64316700D01*
X135613075Y-64543803D01*
X135772718Y-64751851D01*
X135772726Y-64751860D01*
X135958140Y-64937274D01*
X135958148Y-64937281D01*
X136166196Y-65096924D01*
X136393299Y-65228041D01*
X136393309Y-65228046D01*
X136635571Y-65328394D01*
X136635581Y-65328398D01*
X136888884Y-65396270D01*
X137148880Y-65430500D01*
X137148887Y-65430500D01*
X137411113Y-65430500D01*
X137411120Y-65430500D01*
X137671116Y-65396270D01*
X137924419Y-65328398D01*
X138166697Y-65228043D01*
X138393803Y-65096924D01*
X138601851Y-64937282D01*
X138601855Y-64937277D01*
X138601860Y-64937274D01*
X138787274Y-64751860D01*
X138787277Y-64751855D01*
X138787282Y-64751851D01*
X138946924Y-64543803D01*
X139078043Y-64316697D01*
X139178398Y-64074419D01*
X139196428Y-64007127D01*
X139232791Y-63947469D01*
X139295638Y-63916939D01*
X139365013Y-63925233D01*
X139378201Y-63931834D01*
X139478216Y-63989577D01*
X139630943Y-64030500D01*
X139630945Y-64030500D01*
X141229055Y-64030500D01*
X141229057Y-64030500D01*
X141381784Y-63989577D01*
X141518716Y-63910520D01*
X141630520Y-63798716D01*
X141709577Y-63661784D01*
X141750500Y-63509057D01*
X141750500Y-63350943D01*
X141709577Y-63198216D01*
X141703574Y-63187819D01*
X141630524Y-63061290D01*
X141630518Y-63061282D01*
X141518717Y-62949481D01*
X141518709Y-62949475D01*
X141381790Y-62870426D01*
X141381786Y-62870424D01*
X141381784Y-62870423D01*
X141229057Y-62829500D01*
X139630943Y-62829500D01*
X139478216Y-62870423D01*
X139478211Y-62870425D01*
X139378200Y-62928165D01*
X139310300Y-62944636D01*
X139244273Y-62921783D01*
X139201084Y-62866861D01*
X139196431Y-62852884D01*
X139178398Y-62785581D01*
X139178394Y-62785571D01*
X139078046Y-62543309D01*
X139078041Y-62543299D01*
X138946924Y-62316196D01*
X138824424Y-62156554D01*
X138787282Y-62108149D01*
X138787281Y-62108148D01*
X138787274Y-62108140D01*
X138601860Y-61922726D01*
X138601851Y-61922718D01*
X138393803Y-61763075D01*
X138166700Y-61631958D01*
X138166690Y-61631953D01*
X137924428Y-61531605D01*
X137924421Y-61531603D01*
X137924419Y-61531602D01*
X137671116Y-61463730D01*
X137613339Y-61456123D01*
X137411127Y-61429500D01*
X137411120Y-61429500D01*
X137148880Y-61429500D01*
X137148872Y-61429500D01*
X136917772Y-61459926D01*
X136888884Y-61463730D01*
X136635581Y-61531602D01*
X136635571Y-61531605D01*
X136393309Y-61631953D01*
X136393299Y-61631958D01*
X136166196Y-61763075D01*
X135958148Y-61922718D01*
X135772718Y-62108148D01*
X135613075Y-62316196D01*
X135481958Y-62543299D01*
X135481953Y-62543309D01*
X135381605Y-62785571D01*
X135381602Y-62785581D01*
X135337686Y-62949481D01*
X135313730Y-63038885D01*
X135279500Y-63298872D01*
X134500500Y-63298872D01*
X134500500Y-58124500D01*
X134520185Y-58057461D01*
X134572989Y-58011706D01*
X134624500Y-58000500D01*
X141825431Y-58000500D01*
X141892470Y-58020185D01*
G37*
%TD.AperFunction*%
%TA.AperFunction,Conductor*%
G36*
X203442539Y-58020185D02*
G01*
X203488294Y-58072989D01*
X203499500Y-58124500D01*
X203499500Y-82375500D01*
X203479815Y-82442539D01*
X203427011Y-82488294D01*
X203375500Y-82499500D01*
X202924500Y-82499500D01*
X202857461Y-82479815D01*
X202811706Y-82427011D01*
X202800500Y-82375500D01*
X202800499Y-80769029D01*
X202800498Y-80769023D01*
X202800066Y-80765006D01*
X202794091Y-80709417D01*
X202790916Y-80700905D01*
X202743797Y-80574571D01*
X202743793Y-80574564D01*
X202657547Y-80459355D01*
X202657544Y-80459352D01*
X202542335Y-80373106D01*
X202542328Y-80373102D01*
X202407482Y-80322808D01*
X202407483Y-80322808D01*
X202347883Y-80316401D01*
X202347881Y-80316400D01*
X202347873Y-80316400D01*
X202347865Y-80316400D01*
X200832195Y-80316400D01*
X200765156Y-80296715D01*
X200719401Y-80243911D01*
X200709457Y-80174753D01*
X200738482Y-80111197D01*
X200744500Y-80104733D01*
X201303506Y-79545728D01*
X201303511Y-79545724D01*
X201313714Y-79535520D01*
X201313716Y-79535520D01*
X201425520Y-79423716D01*
X201439501Y-79399500D01*
X201479174Y-79330785D01*
X201479175Y-79330783D01*
X201504574Y-79286790D01*
X201504575Y-79286789D01*
X201504575Y-79286787D01*
X201504577Y-79286785D01*
X201545501Y-79134057D01*
X201545501Y-78975943D01*
X201545501Y-78968348D01*
X201545500Y-78968330D01*
X201545500Y-76690326D01*
X201565185Y-76623287D01*
X201617989Y-76577532D01*
X201687147Y-76567588D01*
X201732621Y-76583594D01*
X201804801Y-76626281D01*
X201962514Y-76672100D01*
X201962511Y-76672100D01*
X201964998Y-76672295D01*
X201965000Y-76672295D01*
X202465000Y-76672295D01*
X202465001Y-76672295D01*
X202467486Y-76672100D01*
X202625198Y-76626281D01*
X202766552Y-76542685D01*
X202766561Y-76542678D01*
X202882678Y-76426561D01*
X202882685Y-76426552D01*
X202966282Y-76285196D01*
X202966283Y-76285193D01*
X203012099Y-76127495D01*
X203012100Y-76127489D01*
X203014999Y-76090649D01*
X203015000Y-76090634D01*
X203015000Y-75400000D01*
X202465000Y-75400000D01*
X202465000Y-76672295D01*
X201965000Y-76672295D01*
X201965000Y-74900000D01*
X202465000Y-74900000D01*
X203015000Y-74900000D01*
X203015000Y-74209365D01*
X203014999Y-74209350D01*
X203012100Y-74172510D01*
X203012099Y-74172504D01*
X202966283Y-74014806D01*
X202966282Y-74014803D01*
X202882685Y-73873447D01*
X202882678Y-73873438D01*
X202766561Y-73757321D01*
X202766552Y-73757314D01*
X202625196Y-73673717D01*
X202625193Y-73673716D01*
X202467494Y-73627900D01*
X202467497Y-73627900D01*
X202465000Y-73627703D01*
X202465000Y-74900000D01*
X201965000Y-74900000D01*
X201965000Y-73627703D01*
X201962503Y-73627900D01*
X201804806Y-73673716D01*
X201804803Y-73673717D01*
X201663449Y-73757313D01*
X201657283Y-73762097D01*
X201655389Y-73759655D01*
X201606580Y-73786239D01*
X201536894Y-73781179D01*
X201504227Y-73760159D01*
X201503031Y-73761702D01*
X201496862Y-73756917D01*
X201400454Y-73699902D01*
X201355398Y-73673256D01*
X201355397Y-73673255D01*
X201355396Y-73673255D01*
X201355393Y-73673254D01*
X201197573Y-73627402D01*
X201197567Y-73627401D01*
X201160701Y-73624500D01*
X201160694Y-73624500D01*
X200729306Y-73624500D01*
X200729298Y-73624500D01*
X200692432Y-73627401D01*
X200692426Y-73627402D01*
X200534606Y-73673254D01*
X200534603Y-73673255D01*
X200393137Y-73756917D01*
X200386969Y-73761702D01*
X200385072Y-73759256D01*
X200336358Y-73785857D01*
X200266666Y-73780873D01*
X200234296Y-73760069D01*
X200233031Y-73761702D01*
X200226862Y-73756917D01*
X200130454Y-73699902D01*
X200085398Y-73673256D01*
X200085397Y-73673255D01*
X200085396Y-73673255D01*
X200085393Y-73673254D01*
X199927573Y-73627402D01*
X199927567Y-73627401D01*
X199890701Y-73624500D01*
X199890694Y-73624500D01*
X199459306Y-73624500D01*
X199459298Y-73624500D01*
X199422432Y-73627401D01*
X199422426Y-73627402D01*
X199264606Y-73673254D01*
X199264603Y-73673255D01*
X199123137Y-73756917D01*
X199116969Y-73761702D01*
X199115072Y-73759256D01*
X199066358Y-73785857D01*
X198996666Y-73780873D01*
X198964296Y-73760069D01*
X198963031Y-73761702D01*
X198956862Y-73756917D01*
X198860454Y-73699902D01*
X198815398Y-73673256D01*
X198815397Y-73673255D01*
X198815396Y-73673255D01*
X198815393Y-73673254D01*
X198657573Y-73627402D01*
X198657567Y-73627401D01*
X198620701Y-73624500D01*
X198620694Y-73624500D01*
X198189306Y-73624500D01*
X198189298Y-73624500D01*
X198152432Y-73627401D01*
X198152426Y-73627402D01*
X197994606Y-73673254D01*
X197994603Y-73673255D01*
X197853137Y-73756917D01*
X197846969Y-73761702D01*
X197845072Y-73759256D01*
X197796358Y-73785857D01*
X197726666Y-73780873D01*
X197694296Y-73760069D01*
X197693031Y-73761702D01*
X197686862Y-73756917D01*
X197590454Y-73699902D01*
X197545398Y-73673256D01*
X197545397Y-73673255D01*
X197545396Y-73673255D01*
X197545393Y-73673254D01*
X197387573Y-73627402D01*
X197387567Y-73627401D01*
X197350701Y-73624500D01*
X197350694Y-73624500D01*
X196919306Y-73624500D01*
X196919298Y-73624500D01*
X196882432Y-73627401D01*
X196882426Y-73627402D01*
X196724606Y-73673254D01*
X196724603Y-73673255D01*
X196583137Y-73756917D01*
X196576969Y-73761702D01*
X196575072Y-73759256D01*
X196526358Y-73785857D01*
X196456666Y-73780873D01*
X196424296Y-73760069D01*
X196423031Y-73761702D01*
X196416862Y-73756917D01*
X196320454Y-73699902D01*
X196275398Y-73673256D01*
X196275397Y-73673255D01*
X196275396Y-73673255D01*
X196275393Y-73673254D01*
X196117573Y-73627402D01*
X196117567Y-73627401D01*
X196080701Y-73624500D01*
X196080694Y-73624500D01*
X195649306Y-73624500D01*
X195649298Y-73624500D01*
X195612432Y-73627401D01*
X195612426Y-73627402D01*
X195454606Y-73673254D01*
X195454603Y-73673255D01*
X195313137Y-73756917D01*
X195306969Y-73761702D01*
X195305072Y-73759256D01*
X195256358Y-73785857D01*
X195186666Y-73780873D01*
X195154296Y-73760069D01*
X195153031Y-73761702D01*
X195146862Y-73756917D01*
X195050454Y-73699902D01*
X195005398Y-73673256D01*
X195005397Y-73673255D01*
X195005396Y-73673255D01*
X195005393Y-73673254D01*
X194847573Y-73627402D01*
X194847567Y-73627401D01*
X194810701Y-73624500D01*
X194810694Y-73624500D01*
X194379306Y-73624500D01*
X194379298Y-73624500D01*
X194342432Y-73627401D01*
X194342426Y-73627402D01*
X194184606Y-73673254D01*
X194184603Y-73673255D01*
X194043137Y-73756917D01*
X194036969Y-73761702D01*
X194035072Y-73759256D01*
X193986358Y-73785857D01*
X193916666Y-73780873D01*
X193884296Y-73760069D01*
X193883031Y-73761702D01*
X193876862Y-73756917D01*
X193780454Y-73699902D01*
X193735398Y-73673256D01*
X193735397Y-73673255D01*
X193735396Y-73673255D01*
X193735393Y-73673254D01*
X193577573Y-73627402D01*
X193577567Y-73627401D01*
X193540701Y-73624500D01*
X193540694Y-73624500D01*
X193109306Y-73624500D01*
X193109298Y-73624500D01*
X193072432Y-73627401D01*
X193072426Y-73627402D01*
X192914606Y-73673254D01*
X192914603Y-73673255D01*
X192773137Y-73756917D01*
X192766969Y-73761702D01*
X192765072Y-73759256D01*
X192716358Y-73785857D01*
X192646666Y-73780873D01*
X192614296Y-73760069D01*
X192613031Y-73761702D01*
X192606862Y-73756917D01*
X192510454Y-73699902D01*
X192465398Y-73673256D01*
X192465397Y-73673255D01*
X192465396Y-73673255D01*
X192465393Y-73673254D01*
X192307573Y-73627402D01*
X192307567Y-73627401D01*
X192270701Y-73624500D01*
X192270694Y-73624500D01*
X191839306Y-73624500D01*
X191839298Y-73624500D01*
X191802432Y-73627401D01*
X191802426Y-73627402D01*
X191644606Y-73673254D01*
X191644599Y-73673257D01*
X191572620Y-73715825D01*
X191504896Y-73733008D01*
X191438634Y-73710848D01*
X191394871Y-73656381D01*
X191385500Y-73609093D01*
X191385500Y-67390326D01*
X191405185Y-67323287D01*
X191457989Y-67277532D01*
X191527147Y-67267588D01*
X191572621Y-67283594D01*
X191644801Y-67326281D01*
X191802514Y-67372100D01*
X191802511Y-67372100D01*
X191804998Y-67372295D01*
X191805000Y-67372295D01*
X191805000Y-65974000D01*
X191824685Y-65906961D01*
X191877489Y-65861206D01*
X191929000Y-65850000D01*
X192181000Y-65850000D01*
X192248039Y-65869685D01*
X192293794Y-65922489D01*
X192305000Y-65974000D01*
X192305000Y-67372295D01*
X192305001Y-67372295D01*
X192307486Y-67372100D01*
X192465198Y-67326281D01*
X192606550Y-67242686D01*
X192612717Y-67237903D01*
X192614630Y-67240369D01*
X192663222Y-67213802D01*
X192732917Y-67218749D01*
X192765762Y-67239853D01*
X192766969Y-67238298D01*
X192773132Y-67243078D01*
X192773135Y-67243081D01*
X192914602Y-67326744D01*
X192956224Y-67338836D01*
X193072426Y-67372597D01*
X193072429Y-67372597D01*
X193072431Y-67372598D01*
X193109306Y-67375500D01*
X193109314Y-67375500D01*
X193540686Y-67375500D01*
X193540694Y-67375500D01*
X193577569Y-67372598D01*
X193577571Y-67372597D01*
X193577573Y-67372597D01*
X193630266Y-67357288D01*
X193735398Y-67326744D01*
X193876865Y-67243081D01*
X193876870Y-67243075D01*
X193883031Y-67238298D01*
X193884933Y-67240750D01*
X193933579Y-67214155D01*
X194003274Y-67219104D01*
X194035695Y-67239940D01*
X194036969Y-67238298D01*
X194043132Y-67243078D01*
X194043135Y-67243081D01*
X194184602Y-67326744D01*
X194226224Y-67338836D01*
X194342426Y-67372597D01*
X194342429Y-67372597D01*
X194342431Y-67372598D01*
X194379306Y-67375500D01*
X194379314Y-67375500D01*
X194810686Y-67375500D01*
X194810694Y-67375500D01*
X194847569Y-67372598D01*
X194847571Y-67372597D01*
X194847573Y-67372597D01*
X194900266Y-67357288D01*
X195005398Y-67326744D01*
X195146865Y-67243081D01*
X195146870Y-67243075D01*
X195153031Y-67238298D01*
X195154933Y-67240750D01*
X195203579Y-67214155D01*
X195273274Y-67219104D01*
X195305695Y-67239940D01*
X195306969Y-67238298D01*
X195313132Y-67243078D01*
X195313135Y-67243081D01*
X195454602Y-67326744D01*
X195496224Y-67338836D01*
X195612426Y-67372597D01*
X195612429Y-67372597D01*
X195612431Y-67372598D01*
X195649306Y-67375500D01*
X195649314Y-67375500D01*
X196080686Y-67375500D01*
X196080694Y-67375500D01*
X196117569Y-67372598D01*
X196117571Y-67372597D01*
X196117573Y-67372597D01*
X196170266Y-67357288D01*
X196275398Y-67326744D01*
X196416865Y-67243081D01*
X196416870Y-67243075D01*
X196423031Y-67238298D01*
X196424933Y-67240750D01*
X196473579Y-67214155D01*
X196543274Y-67219104D01*
X196575695Y-67239940D01*
X196576969Y-67238298D01*
X196583132Y-67243078D01*
X196583135Y-67243081D01*
X196724602Y-67326744D01*
X196766224Y-67338836D01*
X196882426Y-67372597D01*
X196882429Y-67372597D01*
X196882431Y-67372598D01*
X196919306Y-67375500D01*
X196919314Y-67375500D01*
X197350686Y-67375500D01*
X197350694Y-67375500D01*
X197387569Y-67372598D01*
X197387571Y-67372597D01*
X197387573Y-67372597D01*
X197440266Y-67357288D01*
X197545398Y-67326744D01*
X197686865Y-67243081D01*
X197686870Y-67243075D01*
X197693031Y-67238298D01*
X197694933Y-67240750D01*
X197743579Y-67214155D01*
X197813274Y-67219104D01*
X197845695Y-67239940D01*
X197846969Y-67238298D01*
X197853132Y-67243078D01*
X197853135Y-67243081D01*
X197994602Y-67326744D01*
X198036224Y-67338836D01*
X198152426Y-67372597D01*
X198152429Y-67372597D01*
X198152431Y-67372598D01*
X198189306Y-67375500D01*
X198189314Y-67375500D01*
X198620686Y-67375500D01*
X198620694Y-67375500D01*
X198657569Y-67372598D01*
X198657571Y-67372597D01*
X198657573Y-67372597D01*
X198710266Y-67357288D01*
X198815398Y-67326744D01*
X198956865Y-67243081D01*
X198956870Y-67243075D01*
X198963031Y-67238298D01*
X198964933Y-67240750D01*
X199013579Y-67214155D01*
X199083274Y-67219104D01*
X199115695Y-67239940D01*
X199116969Y-67238298D01*
X199123132Y-67243078D01*
X199123135Y-67243081D01*
X199264602Y-67326744D01*
X199306224Y-67338836D01*
X199422426Y-67372597D01*
X199422429Y-67372597D01*
X199422431Y-67372598D01*
X199459306Y-67375500D01*
X199459314Y-67375500D01*
X199890686Y-67375500D01*
X199890694Y-67375500D01*
X199927569Y-67372598D01*
X199927571Y-67372597D01*
X199927573Y-67372597D01*
X199980266Y-67357288D01*
X200085398Y-67326744D01*
X200226865Y-67243081D01*
X200226870Y-67243075D01*
X200233031Y-67238298D01*
X200234933Y-67240750D01*
X200283579Y-67214155D01*
X200353274Y-67219104D01*
X200385695Y-67239940D01*
X200386969Y-67238298D01*
X200393132Y-67243078D01*
X200393135Y-67243081D01*
X200534602Y-67326744D01*
X200576224Y-67338836D01*
X200692426Y-67372597D01*
X200692429Y-67372597D01*
X200692431Y-67372598D01*
X200729306Y-67375500D01*
X200729314Y-67375500D01*
X201160686Y-67375500D01*
X201160694Y-67375500D01*
X201197569Y-67372598D01*
X201197571Y-67372597D01*
X201197573Y-67372597D01*
X201250266Y-67357288D01*
X201355398Y-67326744D01*
X201496865Y-67243081D01*
X201496870Y-67243075D01*
X201503031Y-67238298D01*
X201504933Y-67240750D01*
X201553579Y-67214155D01*
X201623274Y-67219104D01*
X201655695Y-67239940D01*
X201656969Y-67238298D01*
X201663132Y-67243078D01*
X201663135Y-67243081D01*
X201804602Y-67326744D01*
X201846224Y-67338836D01*
X201962426Y-67372597D01*
X201962429Y-67372597D01*
X201962431Y-67372598D01*
X201999306Y-67375500D01*
X201999314Y-67375500D01*
X202430686Y-67375500D01*
X202430694Y-67375500D01*
X202467569Y-67372598D01*
X202467571Y-67372597D01*
X202467573Y-67372597D01*
X202520266Y-67357288D01*
X202625398Y-67326744D01*
X202766865Y-67243081D01*
X202883081Y-67126865D01*
X202966744Y-66985398D01*
X203012598Y-66827569D01*
X203015500Y-66790694D01*
X203015500Y-64909306D01*
X203012598Y-64872431D01*
X202966744Y-64714602D01*
X202883081Y-64573135D01*
X202883079Y-64573133D01*
X202883076Y-64573129D01*
X202851819Y-64541872D01*
X202818334Y-64480549D01*
X202815500Y-64454191D01*
X202815500Y-62135946D01*
X202815499Y-62135939D01*
X202800258Y-62079057D01*
X202774577Y-61983215D01*
X202738624Y-61920943D01*
X202695520Y-61846284D01*
X202583716Y-61734480D01*
X202583715Y-61734479D01*
X202579385Y-61730149D01*
X202579374Y-61730139D01*
X201561415Y-60712180D01*
X201527930Y-60650857D01*
X201532914Y-60581165D01*
X201574786Y-60525232D01*
X201640250Y-60500815D01*
X201649096Y-60500499D01*
X202347871Y-60500499D01*
X202347872Y-60500499D01*
X202407483Y-60494091D01*
X202542331Y-60443796D01*
X202657546Y-60357546D01*
X202743796Y-60242331D01*
X202794091Y-60107483D01*
X202800500Y-60047873D01*
X202800499Y-58124499D01*
X202820184Y-58057461D01*
X202872987Y-58011706D01*
X202924499Y-58000500D01*
X203375500Y-58000500D01*
X203442539Y-58020185D01*
G37*
%TD.AperFunction*%
%TA.AperFunction,Conductor*%
G36*
X154921320Y-69580185D02*
G01*
X154964765Y-69628205D01*
X154984947Y-69667814D01*
X154984948Y-69667815D01*
X155109890Y-69839786D01*
X155260213Y-69990109D01*
X155432182Y-70115050D01*
X155440946Y-70119516D01*
X155491742Y-70167491D01*
X155508536Y-70235312D01*
X155485998Y-70301447D01*
X155440946Y-70340484D01*
X155432182Y-70344949D01*
X155260213Y-70469890D01*
X155109890Y-70620213D01*
X154984951Y-70792179D01*
X154888444Y-70981585D01*
X154822753Y-71183760D01*
X154791533Y-71380875D01*
X154789500Y-71393713D01*
X154789500Y-71606287D01*
X154796426Y-71650013D01*
X154822753Y-71816239D01*
X154888444Y-72018414D01*
X154984951Y-72207820D01*
X155109890Y-72379786D01*
X155260213Y-72530109D01*
X155432179Y-72655048D01*
X155432181Y-72655049D01*
X155432184Y-72655051D01*
X155621588Y-72751557D01*
X155823757Y-72817246D01*
X156033713Y-72850500D01*
X156033714Y-72850500D01*
X156246286Y-72850500D01*
X156246287Y-72850500D01*
X156456243Y-72817246D01*
X156658412Y-72751557D01*
X156847816Y-72655051D01*
X156869789Y-72639086D01*
X157019786Y-72530109D01*
X157019788Y-72530106D01*
X157019792Y-72530104D01*
X157170104Y-72379792D01*
X157170106Y-72379788D01*
X157170109Y-72379786D01*
X157295048Y-72207820D01*
X157295049Y-72207819D01*
X157295051Y-72207816D01*
X157299514Y-72199055D01*
X157347488Y-72148259D01*
X157415308Y-72131463D01*
X157481444Y-72153999D01*
X157520486Y-72199056D01*
X157524951Y-72207820D01*
X157649890Y-72379786D01*
X157800213Y-72530109D01*
X157972179Y-72655048D01*
X157972181Y-72655049D01*
X157972184Y-72655051D01*
X158161588Y-72751557D01*
X158363757Y-72817246D01*
X158573713Y-72850500D01*
X158573714Y-72850500D01*
X158786286Y-72850500D01*
X158786287Y-72850500D01*
X158996243Y-72817246D01*
X159198412Y-72751557D01*
X159387816Y-72655051D01*
X159409789Y-72639086D01*
X159559786Y-72530109D01*
X159559788Y-72530106D01*
X159559792Y-72530104D01*
X159710104Y-72379792D01*
X159710106Y-72379788D01*
X159710109Y-72379786D01*
X159835048Y-72207820D01*
X159835049Y-72207819D01*
X159835051Y-72207816D01*
X159839514Y-72199054D01*
X159887488Y-72148259D01*
X159955308Y-72131463D01*
X160021444Y-72153999D01*
X160060486Y-72199056D01*
X160064951Y-72207820D01*
X160189890Y-72379786D01*
X160340213Y-72530109D01*
X160512184Y-72655051D01*
X160512184Y-72655052D01*
X160551793Y-72675233D01*
X160602590Y-72723206D01*
X160619500Y-72785718D01*
X160619500Y-73633330D01*
X160619499Y-73633348D01*
X160619499Y-73799054D01*
X160619498Y-73799054D01*
X160657379Y-73940423D01*
X160660423Y-73951785D01*
X160683517Y-73991784D01*
X160706612Y-74031786D01*
X160739479Y-74088715D01*
X160858349Y-74207585D01*
X160858355Y-74207590D01*
X167015139Y-80364374D01*
X167015149Y-80364385D01*
X167019479Y-80368715D01*
X167019480Y-80368716D01*
X167131284Y-80480520D01*
X167218095Y-80530639D01*
X167268215Y-80559577D01*
X167410700Y-80597755D01*
X167415555Y-80599500D01*
X167439771Y-80617177D01*
X167465375Y-80632784D01*
X167467696Y-80637563D01*
X167471988Y-80640696D01*
X167482803Y-80668662D01*
X167495904Y-80695631D01*
X167495273Y-80700905D01*
X167497190Y-80705862D01*
X167491167Y-80735240D01*
X167487609Y-80765006D01*
X167483630Y-80772012D01*
X167483160Y-80774308D01*
X167481169Y-80776347D01*
X167473940Y-80789079D01*
X167367712Y-80935290D01*
X167320485Y-81027980D01*
X167272510Y-81078776D01*
X167204689Y-81095571D01*
X167138554Y-81073034D01*
X167099515Y-81027980D01*
X167093950Y-81017059D01*
X167052287Y-80935290D01*
X167044556Y-80924649D01*
X166931971Y-80769686D01*
X166787213Y-80624928D01*
X166621613Y-80504615D01*
X166621612Y-80504614D01*
X166621610Y-80504613D01*
X166564653Y-80475591D01*
X166439223Y-80411681D01*
X166244534Y-80348422D01*
X166069995Y-80320778D01*
X166042352Y-80316400D01*
X165837648Y-80316400D01*
X165813329Y-80320251D01*
X165635465Y-80348422D01*
X165440776Y-80411681D01*
X165258386Y-80504615D01*
X165092786Y-80624928D01*
X164948028Y-80769686D01*
X164827715Y-80935286D01*
X164780485Y-81027980D01*
X164732510Y-81078776D01*
X164664689Y-81095571D01*
X164598554Y-81073034D01*
X164559515Y-81027980D01*
X164553950Y-81017059D01*
X164512287Y-80935290D01*
X164504556Y-80924649D01*
X164391971Y-80769686D01*
X164247213Y-80624928D01*
X164081613Y-80504615D01*
X164081612Y-80504614D01*
X164081610Y-80504613D01*
X164024653Y-80475591D01*
X163899223Y-80411681D01*
X163704534Y-80348422D01*
X163529995Y-80320778D01*
X163502352Y-80316400D01*
X163297648Y-80316400D01*
X163273329Y-80320251D01*
X163095465Y-80348422D01*
X162900776Y-80411681D01*
X162718386Y-80504615D01*
X162552786Y-80624928D01*
X162408028Y-80769686D01*
X162287715Y-80935286D01*
X162240485Y-81027980D01*
X162192510Y-81078776D01*
X162124689Y-81095571D01*
X162058554Y-81073034D01*
X162019515Y-81027980D01*
X162013950Y-81017059D01*
X161972287Y-80935290D01*
X161964556Y-80924649D01*
X161851971Y-80769686D01*
X161707213Y-80624928D01*
X161541613Y-80504615D01*
X161541612Y-80504614D01*
X161541610Y-80504613D01*
X161484653Y-80475591D01*
X161359223Y-80411681D01*
X161164534Y-80348422D01*
X160989995Y-80320778D01*
X160962352Y-80316400D01*
X160757648Y-80316400D01*
X160733329Y-80320251D01*
X160555465Y-80348422D01*
X160360776Y-80411681D01*
X160178386Y-80504615D01*
X160012786Y-80624928D01*
X159868028Y-80769686D01*
X159747715Y-80935286D01*
X159700485Y-81027980D01*
X159652510Y-81078776D01*
X159584689Y-81095571D01*
X159518554Y-81073034D01*
X159479515Y-81027980D01*
X159473950Y-81017059D01*
X159432287Y-80935290D01*
X159424556Y-80924649D01*
X159311971Y-80769686D01*
X159167213Y-80624928D01*
X159001613Y-80504615D01*
X159001612Y-80504614D01*
X159001610Y-80504613D01*
X158944653Y-80475591D01*
X158819223Y-80411681D01*
X158624534Y-80348422D01*
X158449995Y-80320778D01*
X158422352Y-80316400D01*
X158256997Y-80316400D01*
X158189958Y-80296715D01*
X158169316Y-80280081D01*
X155373757Y-77484522D01*
X155340272Y-77423199D01*
X155343507Y-77358523D01*
X155357246Y-77316243D01*
X155390500Y-77106287D01*
X155390500Y-76893713D01*
X155357246Y-76683757D01*
X155291557Y-76481588D01*
X155195051Y-76292184D01*
X155195049Y-76292181D01*
X155195048Y-76292179D01*
X155070109Y-76120213D01*
X154919786Y-75969890D01*
X154747820Y-75844951D01*
X154558414Y-75748444D01*
X154558413Y-75748443D01*
X154558412Y-75748443D01*
X154356243Y-75682754D01*
X154356241Y-75682753D01*
X154356240Y-75682753D01*
X154194957Y-75657208D01*
X154146287Y-75649500D01*
X153933713Y-75649500D01*
X153885042Y-75657208D01*
X153723760Y-75682753D01*
X153521585Y-75748444D01*
X153332179Y-75844951D01*
X153160215Y-75969889D01*
X153046673Y-76083431D01*
X152985350Y-76116915D01*
X152915658Y-76111931D01*
X152859725Y-76070059D01*
X152842810Y-76039082D01*
X152793797Y-75907671D01*
X152793793Y-75907664D01*
X152707547Y-75792455D01*
X152707544Y-75792452D01*
X152592335Y-75706206D01*
X152592328Y-75706202D01*
X152457482Y-75655908D01*
X152457483Y-75655908D01*
X152397883Y-75649501D01*
X152397881Y-75649500D01*
X152397873Y-75649500D01*
X152397865Y-75649500D01*
X151050097Y-75649500D01*
X150983058Y-75629815D01*
X150962416Y-75613181D01*
X149487590Y-74138355D01*
X149487588Y-74138352D01*
X149368717Y-74019481D01*
X149368716Y-74019480D01*
X149274675Y-73965186D01*
X149231785Y-73940423D01*
X149160470Y-73921314D01*
X149153786Y-73918663D01*
X149131688Y-73901400D01*
X149107744Y-73886806D01*
X149104527Y-73880183D01*
X149098725Y-73875651D01*
X149089467Y-73849180D01*
X149077216Y-73823959D01*
X149076140Y-73811073D01*
X149075659Y-73809698D01*
X149075930Y-73808563D01*
X149075499Y-73803397D01*
X149075499Y-73799998D01*
X149075498Y-73799981D01*
X149064999Y-73697203D01*
X149064998Y-73697200D01*
X149046355Y-73640939D01*
X149009814Y-73530666D01*
X148917712Y-73381344D01*
X148793656Y-73257288D01*
X148659402Y-73174480D01*
X148612679Y-73122533D01*
X148600500Y-73068942D01*
X148600500Y-69898564D01*
X148620185Y-69831525D01*
X148672989Y-69785770D01*
X148685496Y-69780858D01*
X148699593Y-69776186D01*
X148824447Y-69734814D01*
X148973769Y-69642712D01*
X149019662Y-69596819D01*
X149080985Y-69563334D01*
X149107343Y-69560500D01*
X154854281Y-69560500D01*
X154921320Y-69580185D01*
G37*
%TD.AperFunction*%
%TA.AperFunction,Conductor*%
G36*
X160754075Y-69152993D02*
G01*
X160819901Y-69267007D01*
X160912993Y-69360099D01*
X161027007Y-69425925D01*
X161090590Y-69442962D01*
X160458282Y-70075269D01*
X160458282Y-70075270D01*
X160512452Y-70114626D01*
X160512451Y-70114626D01*
X160521495Y-70119234D01*
X160572292Y-70167208D01*
X160589087Y-70235029D01*
X160566550Y-70301164D01*
X160521499Y-70340202D01*
X160512182Y-70344949D01*
X160340213Y-70469890D01*
X160189890Y-70620213D01*
X160064949Y-70792182D01*
X160060484Y-70800946D01*
X160012509Y-70851742D01*
X159944688Y-70868536D01*
X159878553Y-70845998D01*
X159839516Y-70800946D01*
X159835050Y-70792182D01*
X159710109Y-70620213D01*
X159559786Y-70469890D01*
X159387820Y-70344951D01*
X159380136Y-70341036D01*
X159379054Y-70340484D01*
X159328259Y-70292512D01*
X159311463Y-70224692D01*
X159333999Y-70158556D01*
X159379054Y-70119515D01*
X159387816Y-70115051D01*
X159486527Y-70043334D01*
X159559786Y-69990109D01*
X159559788Y-69990106D01*
X159559792Y-69990104D01*
X159710104Y-69839792D01*
X159710106Y-69839788D01*
X159710109Y-69839786D01*
X159795890Y-69721717D01*
X159835051Y-69667816D01*
X159839793Y-69658508D01*
X159887763Y-69607711D01*
X159955583Y-69590911D01*
X160021719Y-69613445D01*
X160060763Y-69658500D01*
X160065373Y-69667547D01*
X160104728Y-69721716D01*
X160737037Y-69089408D01*
X160754075Y-69152993D01*
G37*
%TD.AperFunction*%
%TA.AperFunction,Conductor*%
G36*
X163294075Y-69152993D02*
G01*
X163359901Y-69267007D01*
X163452993Y-69360099D01*
X163567007Y-69425925D01*
X163630590Y-69442962D01*
X162998282Y-70075269D01*
X162998282Y-70075270D01*
X163052452Y-70114626D01*
X163052451Y-70114626D01*
X163061495Y-70119234D01*
X163112292Y-70167208D01*
X163129087Y-70235029D01*
X163106550Y-70301164D01*
X163061499Y-70340202D01*
X163052182Y-70344949D01*
X162880213Y-70469890D01*
X162729890Y-70620213D01*
X162604949Y-70792182D01*
X162600484Y-70800946D01*
X162552509Y-70851742D01*
X162484688Y-70868536D01*
X162418553Y-70845998D01*
X162379516Y-70800946D01*
X162375050Y-70792182D01*
X162250109Y-70620213D01*
X162099786Y-70469890D01*
X161927817Y-70344949D01*
X161918504Y-70340204D01*
X161867707Y-70292230D01*
X161850912Y-70224409D01*
X161873449Y-70158274D01*
X161918507Y-70119232D01*
X161927555Y-70114622D01*
X161981716Y-70075270D01*
X161981717Y-70075270D01*
X161349408Y-69442962D01*
X161412993Y-69425925D01*
X161527007Y-69360099D01*
X161620099Y-69267007D01*
X161685925Y-69152993D01*
X161702962Y-69089409D01*
X162335270Y-69721717D01*
X162335270Y-69721716D01*
X162374622Y-69667554D01*
X162379514Y-69657954D01*
X162427488Y-69607157D01*
X162495308Y-69590361D01*
X162561444Y-69612897D01*
X162600486Y-69657954D01*
X162605375Y-69667550D01*
X162644728Y-69721716D01*
X163277037Y-69089408D01*
X163294075Y-69152993D01*
G37*
%TD.AperFunction*%
%TA.AperFunction,Conductor*%
G36*
X165834075Y-69152993D02*
G01*
X165899901Y-69267007D01*
X165992993Y-69360099D01*
X166107007Y-69425925D01*
X166170590Y-69442962D01*
X165538282Y-70075269D01*
X165538282Y-70075270D01*
X165592452Y-70114626D01*
X165592451Y-70114626D01*
X165601495Y-70119234D01*
X165652292Y-70167208D01*
X165669087Y-70235029D01*
X165646550Y-70301164D01*
X165601499Y-70340202D01*
X165592182Y-70344949D01*
X165420213Y-70469890D01*
X165269890Y-70620213D01*
X165144949Y-70792182D01*
X165140484Y-70800946D01*
X165092509Y-70851742D01*
X165024688Y-70868536D01*
X164958553Y-70845998D01*
X164919516Y-70800946D01*
X164915050Y-70792182D01*
X164790109Y-70620213D01*
X164639786Y-70469890D01*
X164467817Y-70344949D01*
X164458504Y-70340204D01*
X164407707Y-70292230D01*
X164390912Y-70224409D01*
X164413449Y-70158274D01*
X164458507Y-70119232D01*
X164467555Y-70114622D01*
X164521716Y-70075270D01*
X164521717Y-70075270D01*
X163889408Y-69442962D01*
X163952993Y-69425925D01*
X164067007Y-69360099D01*
X164160099Y-69267007D01*
X164225925Y-69152993D01*
X164242962Y-69089408D01*
X164875270Y-69721717D01*
X164875270Y-69721716D01*
X164914622Y-69667554D01*
X164919514Y-69657954D01*
X164967488Y-69607157D01*
X165035308Y-69590361D01*
X165101444Y-69612897D01*
X165140486Y-69657954D01*
X165145375Y-69667550D01*
X165184728Y-69721716D01*
X165817037Y-69089408D01*
X165834075Y-69152993D01*
G37*
%TD.AperFunction*%
%TA.AperFunction,Conductor*%
G36*
X168374075Y-69152993D02*
G01*
X168439901Y-69267007D01*
X168532993Y-69360099D01*
X168647007Y-69425925D01*
X168710590Y-69442962D01*
X168078282Y-70075269D01*
X168078282Y-70075270D01*
X168132452Y-70114626D01*
X168132451Y-70114626D01*
X168141495Y-70119234D01*
X168192292Y-70167208D01*
X168209087Y-70235029D01*
X168186550Y-70301164D01*
X168141499Y-70340202D01*
X168132182Y-70344949D01*
X167960213Y-70469890D01*
X167809890Y-70620213D01*
X167684949Y-70792182D01*
X167680484Y-70800946D01*
X167632509Y-70851742D01*
X167564688Y-70868536D01*
X167498553Y-70845998D01*
X167459516Y-70800946D01*
X167455050Y-70792182D01*
X167330109Y-70620213D01*
X167179786Y-70469890D01*
X167007817Y-70344949D01*
X166998504Y-70340204D01*
X166947707Y-70292230D01*
X166930912Y-70224409D01*
X166953449Y-70158274D01*
X166998507Y-70119232D01*
X167007555Y-70114622D01*
X167061716Y-70075270D01*
X167061717Y-70075270D01*
X166429408Y-69442962D01*
X166492993Y-69425925D01*
X166607007Y-69360099D01*
X166700099Y-69267007D01*
X166765925Y-69152993D01*
X166782962Y-69089408D01*
X167415270Y-69721717D01*
X167415270Y-69721716D01*
X167454622Y-69667554D01*
X167459514Y-69657954D01*
X167507488Y-69607157D01*
X167575308Y-69590361D01*
X167641444Y-69612897D01*
X167680486Y-69657954D01*
X167685375Y-69667550D01*
X167724728Y-69721716D01*
X168357037Y-69089408D01*
X168374075Y-69152993D01*
G37*
%TD.AperFunction*%
%TA.AperFunction,Conductor*%
G36*
X170914075Y-69152993D02*
G01*
X170979901Y-69267007D01*
X171072993Y-69360099D01*
X171187007Y-69425925D01*
X171250590Y-69442962D01*
X170618282Y-70075269D01*
X170618282Y-70075270D01*
X170672452Y-70114626D01*
X170672451Y-70114626D01*
X170681495Y-70119234D01*
X170732292Y-70167208D01*
X170749087Y-70235029D01*
X170726550Y-70301164D01*
X170681499Y-70340202D01*
X170672182Y-70344949D01*
X170500213Y-70469890D01*
X170349890Y-70620213D01*
X170224949Y-70792182D01*
X170220484Y-70800946D01*
X170172509Y-70851742D01*
X170104688Y-70868536D01*
X170038553Y-70845998D01*
X169999516Y-70800946D01*
X169995050Y-70792182D01*
X169870109Y-70620213D01*
X169719786Y-70469890D01*
X169547817Y-70344949D01*
X169538504Y-70340204D01*
X169487707Y-70292230D01*
X169470912Y-70224409D01*
X169493449Y-70158274D01*
X169538507Y-70119232D01*
X169547555Y-70114622D01*
X169601716Y-70075270D01*
X169601717Y-70075270D01*
X168969408Y-69442962D01*
X169032993Y-69425925D01*
X169147007Y-69360099D01*
X169240099Y-69267007D01*
X169305925Y-69152993D01*
X169322962Y-69089409D01*
X169955270Y-69721717D01*
X169955270Y-69721716D01*
X169994622Y-69667554D01*
X169999514Y-69657954D01*
X170047488Y-69607157D01*
X170115308Y-69590361D01*
X170181444Y-69612897D01*
X170220486Y-69657954D01*
X170225375Y-69667550D01*
X170264728Y-69721716D01*
X170897037Y-69089408D01*
X170914075Y-69152993D01*
G37*
%TD.AperFunction*%
%TA.AperFunction,Conductor*%
G36*
X173454075Y-69152993D02*
G01*
X173519901Y-69267007D01*
X173612993Y-69360099D01*
X173727007Y-69425925D01*
X173790590Y-69442962D01*
X173158282Y-70075269D01*
X173158282Y-70075270D01*
X173212452Y-70114626D01*
X173212451Y-70114626D01*
X173221495Y-70119234D01*
X173272292Y-70167208D01*
X173289087Y-70235029D01*
X173266550Y-70301164D01*
X173221499Y-70340202D01*
X173212182Y-70344949D01*
X173040213Y-70469890D01*
X172889890Y-70620213D01*
X172764949Y-70792182D01*
X172760484Y-70800946D01*
X172712509Y-70851742D01*
X172644688Y-70868536D01*
X172578553Y-70845998D01*
X172539516Y-70800946D01*
X172535050Y-70792182D01*
X172410109Y-70620213D01*
X172259786Y-70469890D01*
X172087817Y-70344949D01*
X172078504Y-70340204D01*
X172027707Y-70292230D01*
X172010912Y-70224409D01*
X172033449Y-70158274D01*
X172078507Y-70119232D01*
X172087555Y-70114622D01*
X172141716Y-70075270D01*
X172141717Y-70075270D01*
X171509408Y-69442962D01*
X171572993Y-69425925D01*
X171687007Y-69360099D01*
X171780099Y-69267007D01*
X171845925Y-69152993D01*
X171862962Y-69089408D01*
X172495270Y-69721717D01*
X172495270Y-69721716D01*
X172534622Y-69667554D01*
X172539514Y-69657954D01*
X172587488Y-69607157D01*
X172655308Y-69590361D01*
X172721444Y-69612897D01*
X172760486Y-69657954D01*
X172765375Y-69667550D01*
X172804728Y-69721716D01*
X173437037Y-69089408D01*
X173454075Y-69152993D01*
G37*
%TD.AperFunction*%
%TA.AperFunction,Conductor*%
G36*
X175994075Y-69152993D02*
G01*
X176059901Y-69267007D01*
X176152993Y-69360099D01*
X176267007Y-69425925D01*
X176330590Y-69442962D01*
X175698282Y-70075269D01*
X175698282Y-70075270D01*
X175752452Y-70114626D01*
X175752451Y-70114626D01*
X175761495Y-70119234D01*
X175812292Y-70167208D01*
X175829087Y-70235029D01*
X175806550Y-70301164D01*
X175761499Y-70340202D01*
X175752182Y-70344949D01*
X175580213Y-70469890D01*
X175429890Y-70620213D01*
X175304949Y-70792182D01*
X175300484Y-70800946D01*
X175252509Y-70851742D01*
X175184688Y-70868536D01*
X175118553Y-70845998D01*
X175079516Y-70800946D01*
X175075050Y-70792182D01*
X174950109Y-70620213D01*
X174799786Y-70469890D01*
X174627817Y-70344949D01*
X174618504Y-70340204D01*
X174567707Y-70292230D01*
X174550912Y-70224409D01*
X174573449Y-70158274D01*
X174618507Y-70119232D01*
X174627555Y-70114622D01*
X174681716Y-70075270D01*
X174681717Y-70075270D01*
X174049408Y-69442962D01*
X174112993Y-69425925D01*
X174227007Y-69360099D01*
X174320099Y-69267007D01*
X174385925Y-69152993D01*
X174402962Y-69089409D01*
X175035270Y-69721717D01*
X175035270Y-69721716D01*
X175074622Y-69667554D01*
X175079514Y-69657954D01*
X175127488Y-69607157D01*
X175195308Y-69590361D01*
X175261444Y-69612897D01*
X175300486Y-69657954D01*
X175305375Y-69667550D01*
X175344728Y-69721716D01*
X175977037Y-69089408D01*
X175994075Y-69152993D01*
G37*
%TD.AperFunction*%
%TA.AperFunction,Conductor*%
G36*
X177579253Y-69725700D02*
G01*
X177632745Y-69736937D01*
X177682503Y-69785988D01*
X177691805Y-69807187D01*
X177715642Y-69879121D01*
X177715643Y-69879124D01*
X177807684Y-70028345D01*
X177931654Y-70152315D01*
X178080875Y-70244356D01*
X178080878Y-70244357D01*
X178091723Y-70247951D01*
X178149167Y-70287724D01*
X178175990Y-70352240D01*
X178163675Y-70421016D01*
X178125605Y-70465974D01*
X178120211Y-70469892D01*
X177969890Y-70620213D01*
X177844949Y-70792182D01*
X177840484Y-70800946D01*
X177792509Y-70851742D01*
X177724688Y-70868536D01*
X177658553Y-70845998D01*
X177619516Y-70800946D01*
X177615050Y-70792182D01*
X177490109Y-70620213D01*
X177339786Y-70469890D01*
X177167817Y-70344949D01*
X177158504Y-70340204D01*
X177107707Y-70292230D01*
X177090912Y-70224409D01*
X177113449Y-70158274D01*
X177158507Y-70119232D01*
X177167555Y-70114622D01*
X177221716Y-70075270D01*
X177221717Y-70075270D01*
X176589408Y-69442962D01*
X176652993Y-69425925D01*
X176767007Y-69360099D01*
X176860099Y-69267007D01*
X176925925Y-69152993D01*
X176942962Y-69089409D01*
X177579253Y-69725700D01*
G37*
%TD.AperFunction*%
%TD*%
M02*
