M48
; DRILL file {KiCad 9.0.6} date 2026-05-27T23:23:14+0200
; FORMAT={-:-/ absolute / metric / decimal}
; #@! TF.CreationDate,2026-05-27T23:23:14+02:00
; #@! TF.GenerationSoftware,Kicad,Pcbnew,9.0.6
; #@! TF.FileFunction,Plated,1,2,PTH
FMAT,2
METRIC
; #@! TA.AperFunction,Plated,PTH,ViaDrill
T1C0.300
; #@! TA.AperFunction,Plated,PTH,ComponentDrill
T2C0.800
; #@! TA.AperFunction,Plated,PTH,ComponentDrill
T3C0.920
; #@! TA.AperFunction,Plated,PTH,ComponentDrill
T4C1.000
; #@! TA.AperFunction,Plated,PTH,ComponentDrill
T5C2.300
%
G90
G05
T1
X136.0Y-59.0
X137.0Y-66.5
X137.0Y-73.0
X137.5Y-77.0
X137.5Y-81.5
X140.0Y-59.0
X143.5Y-62.5
X143.5Y-65.5
X143.5Y-73.0
X144.0Y-78.5
X147.5Y-62.5
X147.5Y-66.0
X148.5Y-78.5
X151.0Y-62.5
X151.0Y-66.0
X151.0Y-72.0
X154.5Y-62.5
X154.5Y-66.0
X154.5Y-79.5
X158.0Y-62.5
X158.0Y-66.0
X158.0Y-76.5
X158.0Y-79.0
X161.0Y-76.5
X161.0Y-79.0
X162.5Y-62.5
X162.5Y-66.0
X164.5Y-79.0
X167.0Y-62.5
X167.0Y-66.0
X171.5Y-62.5
X171.5Y-66.0
X176.0Y-66.0
X180.0Y-66.0
X184.5Y-66.0
X184.5Y-70.0
X184.5Y-73.5
X186.0Y-75.0
X188.5Y-66.0
X188.5Y-70.0
X192.5Y-70.5
X197.0Y-70.5
X201.0Y-70.5
X202.5Y-61.0
X202.5Y-79.5
T2
X145.955Y-68.5
X147.955Y-68.5
T3
X139.99Y-66.5
X139.99Y-69.0
X139.99Y-71.0
X139.99Y-73.5
T4
X143.08Y-59.0
X143.08Y-81.817
X145.62Y-59.0
X145.62Y-81.817
X148.16Y-59.0
X148.16Y-81.817
X150.7Y-59.0
X150.7Y-81.817
X151.5Y-77.0
X153.24Y-59.0
X153.24Y-81.817
X154.04Y-77.0
X155.78Y-59.0
X155.78Y-81.817
X156.14Y-68.96
X156.14Y-71.5
X158.32Y-59.0
X158.32Y-81.817
X158.68Y-68.96
X158.68Y-71.5
X160.86Y-59.0
X160.86Y-81.817
X161.22Y-68.96
X161.22Y-71.5
X163.4Y-59.0
X163.4Y-81.817
X163.76Y-68.96
X163.76Y-71.5
X165.94Y-59.0
X165.94Y-81.817
X166.3Y-68.96
X166.3Y-71.5
X168.48Y-59.0
X168.48Y-81.817
X168.84Y-68.96
X168.84Y-71.5
X171.02Y-59.0
X171.02Y-81.817
X171.38Y-68.96
X171.38Y-71.5
X173.56Y-59.0
X173.56Y-81.817
X173.92Y-68.96
X173.92Y-71.5
X176.1Y-59.0
X176.1Y-81.817
X176.46Y-68.96
X176.46Y-71.5
X178.64Y-59.0
X178.64Y-81.817
X179.0Y-68.96
X179.0Y-71.5
X181.18Y-59.0
X181.18Y-81.817
X183.72Y-59.0
X183.72Y-81.817
X186.26Y-59.0
X186.26Y-81.817
X188.8Y-59.0
X188.8Y-81.817
X191.34Y-59.0
X191.34Y-81.817
X193.88Y-59.0
X193.88Y-81.817
X196.42Y-59.0
X196.42Y-81.817
X198.96Y-59.0
X198.96Y-81.817
X201.5Y-59.0
X201.5Y-81.817
T5
X137.28Y-63.43
X137.28Y-76.57
M30
