%TF.GenerationSoftware,KiCad,Pcbnew,9.0.6*%
%TF.CreationDate,2026-05-27T23:23:12+02:00*%
%TF.ProjectId,cpiii-plasma-hdmi,63706969-692d-4706-9c61-736d612d6864,rev?*%
%TF.SameCoordinates,Original*%
%TF.FileFunction,Copper,L2,Bot*%
%TF.FilePolarity,Positive*%
%FSLAX46Y46*%
G04 Gerber Fmt 4.6, Leading zero omitted, Abs format (unit mm)*
G04 Created by KiCad (PCBNEW 9.0.6) date 2026-05-27 23:23:12*
%MOMM*%
%LPD*%
G01*
G04 APERTURE LIST*
G04 Aperture macros list*
%AMRoundRect*
0 Rectangle with rounded corners*
0 $1 Rounding radius*
0 $2 $3 $4 $5 $6 $7 $8 $9 X,Y pos of 4 corners*
0 Add a 4 corners polygon primitive as box body*
4,1,4,$2,$3,$4,$5,$6,$7,$8,$9,$2,$3,0*
0 Add four circle primitives for the rounded corners*
1,1,$1+$1,$2,$3*
1,1,$1+$1,$4,$5*
1,1,$1+$1,$6,$7*
1,1,$1+$1,$8,$9*
0 Add four rect primitives between the rounded corners*
20,1,$1+$1,$2,$3,$4,$5,0*
20,1,$1+$1,$4,$5,$6,$7,0*
20,1,$1+$1,$6,$7,$8,$9,0*
20,1,$1+$1,$8,$9,$2,$3,0*%
G04 Aperture macros list end*
%TA.AperFunction,ComponentPad*%
%ADD10RoundRect,0.250000X0.550000X0.550000X-0.550000X0.550000X-0.550000X-0.550000X0.550000X-0.550000X0*%
%TD*%
%TA.AperFunction,ComponentPad*%
%ADD11C,1.600000*%
%TD*%
%TA.AperFunction,ComponentPad*%
%ADD12R,1.600000X1.600000*%
%TD*%
%TA.AperFunction,ComponentPad*%
%ADD13C,3.000000*%
%TD*%
%TA.AperFunction,ComponentPad*%
%ADD14R,1.600000X2.000000*%
%TD*%
%TA.AperFunction,ComponentPad*%
%ADD15O,1.600000X2.000000*%
%TD*%
%TA.AperFunction,ComponentPad*%
%ADD16RoundRect,0.250000X-0.600000X0.600000X-0.600000X-0.600000X0.600000X-0.600000X0.600000X0.600000X0*%
%TD*%
%TA.AperFunction,ComponentPad*%
%ADD17C,1.700000*%
%TD*%
%TA.AperFunction,ComponentPad*%
%ADD18R,1.700000X1.700000*%
%TD*%
%TA.AperFunction,ViaPad*%
%ADD19C,0.600000*%
%TD*%
%TA.AperFunction,Conductor*%
%ADD20C,0.200000*%
%TD*%
G04 APERTURE END LIST*
D10*
%TO.P,C1,1*%
%TO.N,PLS_VDC*%
X147955113Y-68500000D03*
D11*
%TO.P,C1,2*%
%TO.N,GND*%
X145955113Y-68500000D03*
%TD*%
D12*
%TO.P,J4,1,VBUS*%
%TO.N,PLS_VDC*%
X139990000Y-66500000D03*
D11*
%TO.P,J4,2,D-*%
%TO.N,unconnected-(J4-D--Pad2)*%
X139990000Y-69000000D03*
%TO.P,J4,3,D+*%
%TO.N,unconnected-(J4-D+-Pad3)*%
X139990000Y-71000000D03*
%TO.P,J4,4,GND*%
%TO.N,GND*%
X139990000Y-73500000D03*
D13*
%TO.P,J4,5,Shield*%
%TO.N,unconnected-(J4-Shield-Pad5)*%
X137280000Y-63430000D03*
X137280000Y-76570000D03*
%TD*%
D14*
%TO.P,U1,1,38_IOB31B*%
%TO.N,unconnected-(U1-38_IOB31B-Pad1)*%
X201500000Y-59000000D03*
D15*
%TO.P,U1,2,37_IOB31A*%
%TO.N,unconnected-(U1-37_IOB31A-Pad2)*%
X198960000Y-59000000D03*
%TO.P,U1,3,36_IOB29B*%
%TO.N,unconnected-(U1-36_IOB29B-Pad3)*%
X196420000Y-59000000D03*
%TO.P,U1,4,39_IOB33A*%
%TO.N,unconnected-(U1-39_IOB33A-Pad4)*%
X193880000Y-59000000D03*
%TO.P,U1,5,25_IOB8A*%
%TO.N,/TG_DATA0*%
X191340000Y-59000000D03*
%TO.P,U1,6,26_IOB8B*%
%TO.N,/TG_DATA1*%
X188800000Y-59000000D03*
%TO.P,U1,7,27_IOB11A*%
%TO.N,/TG_DATA2*%
X186260000Y-59000000D03*
%TO.P,U1,8,28_IOB11B*%
%TO.N,/TG_DATA3*%
X183720000Y-59000000D03*
%TO.P,U1,9,29_IOB13A*%
%TO.N,/TG_PCLK*%
X181180000Y-59000000D03*
%TO.P,U1,10,30_IOB13B*%
%TO.N,/TG_HS*%
X178640000Y-59000000D03*
%TO.P,U1,11,33_IOB23A*%
%TO.N,/TG_VS*%
X176100000Y-59000000D03*
%TO.P,U1,12,34_IOB23B*%
%TO.N,/TG_ENA*%
X173560000Y-59000000D03*
%TO.P,U1,13,40_IOB33B*%
%TO.N,unconnected-(U1-40_IOB33B-Pad13)*%
X171020000Y-59000000D03*
%TO.P,U1,14,35_IOB29A*%
%TO.N,unconnected-(U1-35_IOB29A-Pad14)*%
X168480000Y-59000000D03*
%TO.P,U1,15,41_IOB41A*%
%TO.N,unconnected-(U1-41_IOB41A-Pad15)*%
X165940000Y-59000000D03*
%TO.P,U1,16,42_IOB41B*%
%TO.N,unconnected-(U1-42_IOB41B-Pad16)*%
X163400000Y-59000000D03*
%TO.P,U1,17,51_IOR17B*%
%TO.N,unconnected-(U1-51_IOR17B-Pad17)*%
X160860000Y-59000000D03*
%TO.P,U1,18,53_IOR15B*%
%TO.N,unconnected-(U1-53_IOR15B-Pad18)*%
X158320000Y-59000000D03*
%TO.P,U1,19,54_IOR15A*%
%TO.N,unconnected-(U1-54_IOR15A-Pad19)*%
X155780000Y-59000000D03*
%TO.P,U1,20,55_IOR14B*%
%TO.N,unconnected-(U1-55_IOR14B-Pad20)*%
X153240000Y-59000000D03*
%TO.P,U1,21,56_IOR14A*%
%TO.N,unconnected-(U1-56_IOR14A-Pad21)*%
X150700000Y-59000000D03*
%TO.P,U1,22,57_IOR13A*%
%TO.N,unconnected-(U1-57_IOR13A-Pad22)*%
X148160000Y-59000000D03*
%TO.P,U1,23,68_IOT42B*%
%TO.N,unconnected-(U1-68_IOT42B-Pad23)*%
X145620000Y-59000000D03*
%TO.P,U1,24,69_IOT42A*%
%TO.N,unconnected-(U1-69_IOT42A-Pad24)*%
X143080000Y-59000000D03*
%TO.P,U1,25,3V3*%
%TO.N,3V3*%
X143080000Y-81816900D03*
%TO.P,U1,26,GND*%
%TO.N,GND*%
X145620000Y-81816900D03*
%TO.P,U1,27,32_IOB15B*%
%TO.N,unconnected-(U1-32_IOB15B-Pad27)*%
X148160000Y-81816900D03*
%TO.P,U1,28,31_IOB15A*%
%TO.N,unconnected-(U1-31_IOB15A-Pad28)*%
X150700000Y-81816900D03*
%TO.P,U1,29,49_IOR24A*%
%TO.N,unconnected-(U1-49_IOR24A-Pad29)*%
X153240000Y-81816900D03*
%TO.P,U1,30,48_IOR24B*%
%TO.N,unconnected-(U1-48_IOR24B-Pad30)*%
X155780000Y-81816900D03*
%TO.P,U1,31,5V*%
%TO.N,/TG_5V*%
X158320000Y-81816900D03*
%TO.P,U1,32,70_IOT41B*%
%TO.N,unconnected-(U1-70_IOT41B-Pad32)*%
X160860000Y-81816900D03*
%TO.P,U1,33,71_IOT41A*%
%TO.N,unconnected-(U1-71_IOT41A-Pad33)*%
X163400000Y-81816900D03*
%TO.P,U1,34,72_IOT39B*%
%TO.N,unconnected-(U1-72_IOT39B-Pad34)*%
X165940000Y-81816900D03*
%TO.P,U1,35,73_IOT39A*%
%TO.N,unconnected-(U1-73_IOT39A-Pad35)*%
X168480000Y-81816900D03*
%TO.P,U1,36,74_IOT38B*%
%TO.N,unconnected-(U1-74_IOT38B-Pad36)*%
X171020000Y-81816900D03*
%TO.P,U1,37,75_IOT38A*%
%TO.N,unconnected-(U1-75_IOT38A-Pad37)*%
X173560000Y-81816900D03*
%TO.P,U1,38,76_IOT37B*%
%TO.N,unconnected-(U1-76_IOT37B-Pad38)*%
X176100000Y-81816900D03*
%TO.P,U1,39,77_IOT37A*%
%TO.N,unconnected-(U1-77_IOT37A-Pad39)*%
X178640000Y-81816900D03*
%TO.P,U1,40,79_IOT12B_1V8*%
%TO.N,unconnected-(U1-79_IOT12B_1V8-Pad40)*%
X181180000Y-81816900D03*
%TO.P,U1,41,80_IOT12A_1V8*%
%TO.N,unconnected-(U1-80_IOT12A_1V8-Pad41)*%
X183720000Y-81816900D03*
%TO.P,U1,42,81_IOT11B_1V8*%
%TO.N,unconnected-(U1-81_IOT11B_1V8-Pad42)*%
X186260000Y-81816900D03*
%TO.P,U1,43,82_IOT11A_1V8*%
%TO.N,unconnected-(U1-82_IOT11A_1V8-Pad43)*%
X188800000Y-81816900D03*
%TO.P,U1,44,83_IOT10B_1V8*%
%TO.N,unconnected-(U1-83_IOT10B_1V8-Pad44)*%
X191340000Y-81816900D03*
%TO.P,U1,45,84_IOT10A_1V8*%
%TO.N,unconnected-(U1-84_IOT10A_1V8-Pad45)*%
X193880000Y-81816900D03*
%TO.P,U1,46,85_IOT8B_1V8*%
%TO.N,unconnected-(U1-85_IOT8B_1V8-Pad46)*%
X196420000Y-81816900D03*
%TO.P,U1,47,86_IOT8A_1V8*%
%TO.N,unconnected-(U1-86_IOT8A_1V8-Pad47)*%
X198960000Y-81816900D03*
D14*
%TO.P,U1,48,63_IOR5A*%
%TO.N,unconnected-(U1-63_IOR5A-Pad48)*%
X201500000Y-81816900D03*
%TD*%
D16*
%TO.P,J2,1,Pin_1*%
%TO.N,GND*%
X179000000Y-68960000D03*
D17*
%TO.P,J2,2,Pin_2*%
%TO.N,/PLS_ENA*%
X179000000Y-71500000D03*
%TO.P,J2,3,Pin_3*%
%TO.N,GND*%
X176460000Y-68960000D03*
%TO.P,J2,4,Pin_4*%
%TO.N,/PLS_VS*%
X176460000Y-71500000D03*
%TO.P,J2,5,Pin_5*%
%TO.N,GND*%
X173920000Y-68960000D03*
%TO.P,J2,6,Pin_6*%
%TO.N,/PLS_HS*%
X173920000Y-71500000D03*
%TO.P,J2,7,Pin_7*%
%TO.N,GND*%
X171380000Y-68960000D03*
%TO.P,J2,8,Pin_8*%
%TO.N,/PLS_PCLK*%
X171380000Y-71500000D03*
%TO.P,J2,9,Pin_9*%
%TO.N,GND*%
X168840000Y-68960000D03*
%TO.P,J2,10,Pin_10*%
%TO.N,/PLS_DATA3*%
X168840000Y-71500000D03*
%TO.P,J2,11,Pin_11*%
%TO.N,GND*%
X166300000Y-68960000D03*
%TO.P,J2,12,Pin_12*%
%TO.N,/PLS_DATA2*%
X166300000Y-71500000D03*
%TO.P,J2,13,Pin_13*%
%TO.N,GND*%
X163760000Y-68960000D03*
%TO.P,J2,14,Pin_14*%
%TO.N,/PLS_DATA1*%
X163760000Y-71500000D03*
%TO.P,J2,15,Pin_15*%
%TO.N,GND*%
X161220000Y-68960000D03*
%TO.P,J2,16,Pin_16*%
%TO.N,/PLS_DATA0*%
X161220000Y-71500000D03*
%TO.P,J2,17,Pin_17*%
%TO.N,PLS_VDC*%
X158680000Y-68960000D03*
%TO.P,J2,18,Pin_18*%
X158680000Y-71500000D03*
%TO.P,J2,19,Pin_19*%
X156140000Y-68960000D03*
%TO.P,J2,20,Pin_20*%
X156140000Y-71500000D03*
%TD*%
D18*
%TO.P,J1,1,Pin_1*%
%TO.N,PLS_VDC*%
X151500000Y-77000000D03*
D17*
%TO.P,J1,2,Pin_2*%
%TO.N,/TG_5V*%
X154040000Y-77000000D03*
%TD*%
D19*
%TO.N,GND*%
X201000000Y-70500000D03*
X192500000Y-70500000D03*
X167000000Y-62500000D03*
X171500000Y-62500000D03*
X154500000Y-79500000D03*
X136000000Y-59000000D03*
X137000000Y-73000000D03*
X176000000Y-66000000D03*
X148500000Y-78500000D03*
X162500000Y-66000000D03*
X158000000Y-62500000D03*
X151000000Y-72000000D03*
X158000000Y-76500000D03*
X184500000Y-70000000D03*
X202500000Y-79500000D03*
X143500000Y-65500000D03*
X202500000Y-61000000D03*
X144000000Y-78500000D03*
X161000000Y-76500000D03*
X164500000Y-79000000D03*
X188500000Y-70000000D03*
X151000000Y-62500000D03*
X171500000Y-66000000D03*
X147500000Y-66000000D03*
X137000000Y-66500000D03*
X151000000Y-66000000D03*
X167000000Y-66000000D03*
X137500000Y-77000000D03*
X147500000Y-62500000D03*
X137500000Y-81500000D03*
X161000000Y-79000000D03*
X143500000Y-73000000D03*
X140000000Y-59000000D03*
X184500000Y-73500000D03*
X197000000Y-70500000D03*
X158000000Y-79000000D03*
X162500000Y-62500000D03*
X158000000Y-66000000D03*
X154500000Y-62500000D03*
X154500000Y-66000000D03*
X188500000Y-66000000D03*
X184500000Y-66000000D03*
X143500000Y-62500000D03*
X180000000Y-66000000D03*
%TO.N,3V3*%
X186000000Y-75000000D03*
%TD*%
D20*
%TO.N,3V3*%
X148500000Y-75000000D02*
X147000000Y-76500000D01*
X144896900Y-80000000D02*
X143080000Y-81816900D01*
X146000000Y-80000000D02*
X144896900Y-80000000D01*
X147000000Y-76500000D02*
X147000000Y-79000000D01*
X143080000Y-81420000D02*
X143080000Y-81816900D01*
X186000000Y-75000000D02*
X148500000Y-75000000D01*
X147000000Y-79000000D02*
X146000000Y-80000000D01*
%TD*%
%TA.AperFunction,Conductor*%
%TO.N,GND*%
G36*
X160754075Y-69152993D02*
G01*
X160819901Y-69267007D01*
X160912993Y-69360099D01*
X161027007Y-69425925D01*
X161090590Y-69442962D01*
X160458282Y-70075269D01*
X160458282Y-70075270D01*
X160512452Y-70114626D01*
X160512451Y-70114626D01*
X160521495Y-70119234D01*
X160572292Y-70167208D01*
X160589087Y-70235029D01*
X160566550Y-70301164D01*
X160521499Y-70340202D01*
X160512182Y-70344949D01*
X160340213Y-70469890D01*
X160189890Y-70620213D01*
X160064949Y-70792182D01*
X160060484Y-70800946D01*
X160012509Y-70851742D01*
X159944688Y-70868536D01*
X159878553Y-70845998D01*
X159839516Y-70800946D01*
X159835050Y-70792182D01*
X159710109Y-70620213D01*
X159559786Y-70469890D01*
X159387820Y-70344951D01*
X159380136Y-70341036D01*
X159379054Y-70340485D01*
X159328259Y-70292512D01*
X159311463Y-70224692D01*
X159333999Y-70158556D01*
X159379054Y-70119515D01*
X159387816Y-70115051D01*
X159486527Y-70043334D01*
X159559786Y-69990109D01*
X159559788Y-69990106D01*
X159559792Y-69990104D01*
X159710104Y-69839792D01*
X159710106Y-69839788D01*
X159710109Y-69839786D01*
X159795890Y-69721717D01*
X159835051Y-69667816D01*
X159839793Y-69658508D01*
X159887763Y-69607711D01*
X159955583Y-69590911D01*
X160021719Y-69613445D01*
X160060763Y-69658500D01*
X160065373Y-69667547D01*
X160104728Y-69721716D01*
X160737037Y-69089408D01*
X160754075Y-69152993D01*
G37*
%TD.AperFunction*%
%TA.AperFunction,Conductor*%
G36*
X163294075Y-69152993D02*
G01*
X163359901Y-69267007D01*
X163452993Y-69360099D01*
X163567007Y-69425925D01*
X163630590Y-69442962D01*
X162998282Y-70075269D01*
X162998282Y-70075270D01*
X163052452Y-70114626D01*
X163052451Y-70114626D01*
X163061495Y-70119234D01*
X163112292Y-70167208D01*
X163129087Y-70235029D01*
X163106550Y-70301164D01*
X163061499Y-70340202D01*
X163052182Y-70344949D01*
X162880213Y-70469890D01*
X162729890Y-70620213D01*
X162604949Y-70792182D01*
X162600484Y-70800946D01*
X162552509Y-70851742D01*
X162484688Y-70868536D01*
X162418553Y-70845998D01*
X162379516Y-70800946D01*
X162375050Y-70792182D01*
X162250109Y-70620213D01*
X162099786Y-70469890D01*
X161927817Y-70344949D01*
X161918504Y-70340204D01*
X161867707Y-70292230D01*
X161850912Y-70224409D01*
X161873449Y-70158274D01*
X161918507Y-70119232D01*
X161927555Y-70114622D01*
X161981716Y-70075270D01*
X161981717Y-70075270D01*
X161349408Y-69442962D01*
X161412993Y-69425925D01*
X161527007Y-69360099D01*
X161620099Y-69267007D01*
X161685925Y-69152993D01*
X161702962Y-69089409D01*
X162335270Y-69721717D01*
X162335270Y-69721716D01*
X162374622Y-69667554D01*
X162379514Y-69657954D01*
X162427488Y-69607157D01*
X162495308Y-69590361D01*
X162561444Y-69612897D01*
X162600486Y-69657954D01*
X162605375Y-69667550D01*
X162644728Y-69721716D01*
X163277037Y-69089408D01*
X163294075Y-69152993D01*
G37*
%TD.AperFunction*%
%TA.AperFunction,Conductor*%
G36*
X165834075Y-69152993D02*
G01*
X165899901Y-69267007D01*
X165992993Y-69360099D01*
X166107007Y-69425925D01*
X166170590Y-69442962D01*
X165538282Y-70075269D01*
X165538282Y-70075270D01*
X165592452Y-70114626D01*
X165592451Y-70114626D01*
X165601495Y-70119234D01*
X165652292Y-70167208D01*
X165669087Y-70235029D01*
X165646550Y-70301164D01*
X165601499Y-70340202D01*
X165592182Y-70344949D01*
X165420213Y-70469890D01*
X165269890Y-70620213D01*
X165144949Y-70792182D01*
X165140484Y-70800946D01*
X165092509Y-70851742D01*
X165024688Y-70868536D01*
X164958553Y-70845998D01*
X164919516Y-70800946D01*
X164915050Y-70792182D01*
X164790109Y-70620213D01*
X164639786Y-70469890D01*
X164467817Y-70344949D01*
X164458504Y-70340204D01*
X164407707Y-70292230D01*
X164390912Y-70224409D01*
X164413449Y-70158274D01*
X164458507Y-70119232D01*
X164467555Y-70114622D01*
X164521716Y-70075270D01*
X164521717Y-70075270D01*
X163889408Y-69442962D01*
X163952993Y-69425925D01*
X164067007Y-69360099D01*
X164160099Y-69267007D01*
X164225925Y-69152993D01*
X164242962Y-69089408D01*
X164875270Y-69721717D01*
X164875270Y-69721716D01*
X164914622Y-69667554D01*
X164919514Y-69657954D01*
X164967488Y-69607157D01*
X165035308Y-69590361D01*
X165101444Y-69612897D01*
X165140486Y-69657954D01*
X165145375Y-69667550D01*
X165184728Y-69721716D01*
X165817037Y-69089408D01*
X165834075Y-69152993D01*
G37*
%TD.AperFunction*%
%TA.AperFunction,Conductor*%
G36*
X168374075Y-69152993D02*
G01*
X168439901Y-69267007D01*
X168532993Y-69360099D01*
X168647007Y-69425925D01*
X168710590Y-69442962D01*
X168078282Y-70075269D01*
X168078282Y-70075270D01*
X168132452Y-70114626D01*
X168132451Y-70114626D01*
X168141495Y-70119234D01*
X168192292Y-70167208D01*
X168209087Y-70235029D01*
X168186550Y-70301164D01*
X168141499Y-70340202D01*
X168132182Y-70344949D01*
X167960213Y-70469890D01*
X167809890Y-70620213D01*
X167684949Y-70792182D01*
X167680484Y-70800946D01*
X167632509Y-70851742D01*
X167564688Y-70868536D01*
X167498553Y-70845998D01*
X167459516Y-70800946D01*
X167455050Y-70792182D01*
X167330109Y-70620213D01*
X167179786Y-70469890D01*
X167007817Y-70344949D01*
X166998504Y-70340204D01*
X166947707Y-70292230D01*
X166930912Y-70224409D01*
X166953449Y-70158274D01*
X166998507Y-70119232D01*
X167007555Y-70114622D01*
X167061716Y-70075270D01*
X167061717Y-70075270D01*
X166429408Y-69442962D01*
X166492993Y-69425925D01*
X166607007Y-69360099D01*
X166700099Y-69267007D01*
X166765925Y-69152993D01*
X166782962Y-69089408D01*
X167415270Y-69721717D01*
X167415270Y-69721716D01*
X167454622Y-69667554D01*
X167459514Y-69657954D01*
X167507488Y-69607157D01*
X167575308Y-69590361D01*
X167641444Y-69612897D01*
X167680486Y-69657954D01*
X167685375Y-69667550D01*
X167724728Y-69721716D01*
X168357037Y-69089408D01*
X168374075Y-69152993D01*
G37*
%TD.AperFunction*%
%TA.AperFunction,Conductor*%
G36*
X170914075Y-69152993D02*
G01*
X170979901Y-69267007D01*
X171072993Y-69360099D01*
X171187007Y-69425925D01*
X171250590Y-69442962D01*
X170618282Y-70075269D01*
X170618282Y-70075270D01*
X170672452Y-70114626D01*
X170672451Y-70114626D01*
X170681495Y-70119234D01*
X170732292Y-70167208D01*
X170749087Y-70235029D01*
X170726550Y-70301164D01*
X170681499Y-70340202D01*
X170672182Y-70344949D01*
X170500213Y-70469890D01*
X170349890Y-70620213D01*
X170224949Y-70792182D01*
X170220484Y-70800946D01*
X170172509Y-70851742D01*
X170104688Y-70868536D01*
X170038553Y-70845998D01*
X169999516Y-70800946D01*
X169995050Y-70792182D01*
X169870109Y-70620213D01*
X169719786Y-70469890D01*
X169547817Y-70344949D01*
X169538504Y-70340204D01*
X169487707Y-70292230D01*
X169470912Y-70224409D01*
X169493449Y-70158274D01*
X169538507Y-70119232D01*
X169547555Y-70114622D01*
X169601716Y-70075270D01*
X169601717Y-70075270D01*
X168969408Y-69442962D01*
X169032993Y-69425925D01*
X169147007Y-69360099D01*
X169240099Y-69267007D01*
X169305925Y-69152993D01*
X169322962Y-69089409D01*
X169955270Y-69721717D01*
X169955270Y-69721716D01*
X169994622Y-69667554D01*
X169999514Y-69657954D01*
X170047488Y-69607157D01*
X170115308Y-69590361D01*
X170181444Y-69612897D01*
X170220486Y-69657954D01*
X170225375Y-69667550D01*
X170264728Y-69721716D01*
X170897037Y-69089408D01*
X170914075Y-69152993D01*
G37*
%TD.AperFunction*%
%TA.AperFunction,Conductor*%
G36*
X173454075Y-69152993D02*
G01*
X173519901Y-69267007D01*
X173612993Y-69360099D01*
X173727007Y-69425925D01*
X173790590Y-69442962D01*
X173158282Y-70075269D01*
X173158282Y-70075270D01*
X173212452Y-70114626D01*
X173212451Y-70114626D01*
X173221495Y-70119234D01*
X173272292Y-70167208D01*
X173289087Y-70235029D01*
X173266550Y-70301164D01*
X173221499Y-70340202D01*
X173212182Y-70344949D01*
X173040213Y-70469890D01*
X172889890Y-70620213D01*
X172764949Y-70792182D01*
X172760484Y-70800946D01*
X172712509Y-70851742D01*
X172644688Y-70868536D01*
X172578553Y-70845998D01*
X172539516Y-70800946D01*
X172535050Y-70792182D01*
X172410109Y-70620213D01*
X172259786Y-70469890D01*
X172087817Y-70344949D01*
X172078504Y-70340204D01*
X172027707Y-70292230D01*
X172010912Y-70224409D01*
X172033449Y-70158274D01*
X172078507Y-70119232D01*
X172087555Y-70114622D01*
X172141716Y-70075270D01*
X172141717Y-70075270D01*
X171509408Y-69442962D01*
X171572993Y-69425925D01*
X171687007Y-69360099D01*
X171780099Y-69267007D01*
X171845925Y-69152993D01*
X171862962Y-69089408D01*
X172495270Y-69721717D01*
X172495270Y-69721716D01*
X172534622Y-69667554D01*
X172539514Y-69657954D01*
X172587488Y-69607157D01*
X172655308Y-69590361D01*
X172721444Y-69612897D01*
X172760486Y-69657954D01*
X172765375Y-69667550D01*
X172804728Y-69721716D01*
X173437037Y-69089408D01*
X173454075Y-69152993D01*
G37*
%TD.AperFunction*%
%TA.AperFunction,Conductor*%
G36*
X175994075Y-69152993D02*
G01*
X176059901Y-69267007D01*
X176152993Y-69360099D01*
X176267007Y-69425925D01*
X176330590Y-69442962D01*
X175698282Y-70075269D01*
X175698282Y-70075270D01*
X175752452Y-70114626D01*
X175752451Y-70114626D01*
X175761495Y-70119234D01*
X175812292Y-70167208D01*
X175829087Y-70235029D01*
X175806550Y-70301164D01*
X175761499Y-70340202D01*
X175752182Y-70344949D01*
X175580213Y-70469890D01*
X175429890Y-70620213D01*
X175304949Y-70792182D01*
X175300484Y-70800946D01*
X175252509Y-70851742D01*
X175184688Y-70868536D01*
X175118553Y-70845998D01*
X175079516Y-70800946D01*
X175075050Y-70792182D01*
X174950109Y-70620213D01*
X174799786Y-70469890D01*
X174627817Y-70344949D01*
X174618504Y-70340204D01*
X174567707Y-70292230D01*
X174550912Y-70224409D01*
X174573449Y-70158274D01*
X174618507Y-70119232D01*
X174627555Y-70114622D01*
X174681716Y-70075270D01*
X174681717Y-70075270D01*
X174049408Y-69442962D01*
X174112993Y-69425925D01*
X174227007Y-69360099D01*
X174320099Y-69267007D01*
X174385925Y-69152993D01*
X174402962Y-69089409D01*
X175035270Y-69721717D01*
X175035270Y-69721716D01*
X175074622Y-69667554D01*
X175079514Y-69657954D01*
X175127488Y-69607157D01*
X175195308Y-69590361D01*
X175261444Y-69612897D01*
X175300486Y-69657954D01*
X175305375Y-69667550D01*
X175344728Y-69721716D01*
X175977037Y-69089408D01*
X175994075Y-69152993D01*
G37*
%TD.AperFunction*%
%TA.AperFunction,Conductor*%
G36*
X177579253Y-69725700D02*
G01*
X177632745Y-69736937D01*
X177682503Y-69785988D01*
X177691805Y-69807187D01*
X177715642Y-69879121D01*
X177715643Y-69879124D01*
X177807684Y-70028345D01*
X177931654Y-70152315D01*
X178080875Y-70244356D01*
X178080878Y-70244357D01*
X178091723Y-70247951D01*
X178149167Y-70287724D01*
X178175990Y-70352240D01*
X178163675Y-70421016D01*
X178125605Y-70465974D01*
X178120211Y-70469892D01*
X177969890Y-70620213D01*
X177844949Y-70792182D01*
X177840484Y-70800946D01*
X177792509Y-70851742D01*
X177724688Y-70868536D01*
X177658553Y-70845998D01*
X177619516Y-70800946D01*
X177615050Y-70792182D01*
X177490109Y-70620213D01*
X177339786Y-70469890D01*
X177167817Y-70344949D01*
X177158504Y-70340204D01*
X177107707Y-70292230D01*
X177090912Y-70224409D01*
X177113449Y-70158274D01*
X177158507Y-70119232D01*
X177167555Y-70114622D01*
X177221716Y-70075270D01*
X177221717Y-70075270D01*
X176589408Y-69442962D01*
X176652993Y-69425925D01*
X176767007Y-69360099D01*
X176860099Y-69267007D01*
X176925925Y-69152993D01*
X176942962Y-69089409D01*
X177579253Y-69725700D01*
G37*
%TD.AperFunction*%
%TA.AperFunction,Conductor*%
G36*
X141892470Y-58020185D02*
G01*
X141938225Y-58072989D01*
X141948169Y-58142147D01*
X141935916Y-58180795D01*
X141874781Y-58300776D01*
X141811522Y-58495465D01*
X141779500Y-58697648D01*
X141779500Y-59302351D01*
X141811522Y-59504534D01*
X141874781Y-59699223D01*
X141967715Y-59881613D01*
X142088028Y-60047213D01*
X142232786Y-60191971D01*
X142387749Y-60304556D01*
X142398390Y-60312287D01*
X142487212Y-60357544D01*
X142580776Y-60405218D01*
X142580778Y-60405218D01*
X142580781Y-60405220D01*
X142685137Y-60439127D01*
X142775465Y-60468477D01*
X142876557Y-60484488D01*
X142977648Y-60500500D01*
X142977649Y-60500500D01*
X143182351Y-60500500D01*
X143182352Y-60500500D01*
X143384534Y-60468477D01*
X143579219Y-60405220D01*
X143761610Y-60312287D01*
X143857901Y-60242328D01*
X143927213Y-60191971D01*
X143927215Y-60191968D01*
X143927219Y-60191966D01*
X144071966Y-60047219D01*
X144071968Y-60047215D01*
X144071971Y-60047213D01*
X144192284Y-59881614D01*
X144192285Y-59881613D01*
X144192287Y-59881610D01*
X144239516Y-59788917D01*
X144287489Y-59738123D01*
X144355310Y-59721328D01*
X144421445Y-59743865D01*
X144460485Y-59788919D01*
X144507715Y-59881614D01*
X144628028Y-60047213D01*
X144772786Y-60191971D01*
X144927749Y-60304556D01*
X144938390Y-60312287D01*
X145027212Y-60357544D01*
X145120776Y-60405218D01*
X145120778Y-60405218D01*
X145120781Y-60405220D01*
X145225137Y-60439127D01*
X145315465Y-60468477D01*
X145416557Y-60484488D01*
X145517648Y-60500500D01*
X145517649Y-60500500D01*
X145722351Y-60500500D01*
X145722352Y-60500500D01*
X145924534Y-60468477D01*
X146119219Y-60405220D01*
X146301610Y-60312287D01*
X146397901Y-60242328D01*
X146467213Y-60191971D01*
X146467215Y-60191968D01*
X146467219Y-60191966D01*
X146611966Y-60047219D01*
X146611968Y-60047215D01*
X146611971Y-60047213D01*
X146732284Y-59881614D01*
X146732285Y-59881613D01*
X146732287Y-59881610D01*
X146779516Y-59788917D01*
X146827489Y-59738123D01*
X146895310Y-59721328D01*
X146961445Y-59743865D01*
X147000485Y-59788919D01*
X147047715Y-59881614D01*
X147168028Y-60047213D01*
X147312786Y-60191971D01*
X147467749Y-60304556D01*
X147478390Y-60312287D01*
X147567212Y-60357544D01*
X147660776Y-60405218D01*
X147660778Y-60405218D01*
X147660781Y-60405220D01*
X147765137Y-60439127D01*
X147855465Y-60468477D01*
X147956557Y-60484488D01*
X148057648Y-60500500D01*
X148057649Y-60500500D01*
X148262351Y-60500500D01*
X148262352Y-60500500D01*
X148464534Y-60468477D01*
X148659219Y-60405220D01*
X148841610Y-60312287D01*
X148937901Y-60242328D01*
X149007213Y-60191971D01*
X149007215Y-60191968D01*
X149007219Y-60191966D01*
X149151966Y-60047219D01*
X149151968Y-60047215D01*
X149151971Y-60047213D01*
X149272284Y-59881614D01*
X149272285Y-59881613D01*
X149272287Y-59881610D01*
X149319516Y-59788917D01*
X149367489Y-59738123D01*
X149435310Y-59721328D01*
X149501445Y-59743865D01*
X149540485Y-59788919D01*
X149587715Y-59881614D01*
X149708028Y-60047213D01*
X149852786Y-60191971D01*
X150007749Y-60304556D01*
X150018390Y-60312287D01*
X150107212Y-60357544D01*
X150200776Y-60405218D01*
X150200778Y-60405218D01*
X150200781Y-60405220D01*
X150305137Y-60439127D01*
X150395465Y-60468477D01*
X150496557Y-60484488D01*
X150597648Y-60500500D01*
X150597649Y-60500500D01*
X150802351Y-60500500D01*
X150802352Y-60500500D01*
X151004534Y-60468477D01*
X151199219Y-60405220D01*
X151381610Y-60312287D01*
X151477901Y-60242328D01*
X151547213Y-60191971D01*
X151547215Y-60191968D01*
X151547219Y-60191966D01*
X151691966Y-60047219D01*
X151691968Y-60047215D01*
X151691971Y-60047213D01*
X151812284Y-59881614D01*
X151812285Y-59881613D01*
X151812287Y-59881610D01*
X151859516Y-59788917D01*
X151907489Y-59738123D01*
X151975310Y-59721328D01*
X152041445Y-59743865D01*
X152080485Y-59788919D01*
X152127715Y-59881614D01*
X152248028Y-60047213D01*
X152392786Y-60191971D01*
X152547749Y-60304556D01*
X152558390Y-60312287D01*
X152647212Y-60357544D01*
X152740776Y-60405218D01*
X152740778Y-60405218D01*
X152740781Y-60405220D01*
X152845137Y-60439127D01*
X152935465Y-60468477D01*
X153036557Y-60484488D01*
X153137648Y-60500500D01*
X153137649Y-60500500D01*
X153342351Y-60500500D01*
X153342352Y-60500500D01*
X153544534Y-60468477D01*
X153739219Y-60405220D01*
X153921610Y-60312287D01*
X154017901Y-60242328D01*
X154087213Y-60191971D01*
X154087215Y-60191968D01*
X154087219Y-60191966D01*
X154231966Y-60047219D01*
X154231968Y-60047215D01*
X154231971Y-60047213D01*
X154352284Y-59881614D01*
X154352285Y-59881613D01*
X154352287Y-59881610D01*
X154399516Y-59788917D01*
X154447489Y-59738123D01*
X154515310Y-59721328D01*
X154581445Y-59743865D01*
X154620485Y-59788919D01*
X154667715Y-59881614D01*
X154788028Y-60047213D01*
X154932786Y-60191971D01*
X155087749Y-60304556D01*
X155098390Y-60312287D01*
X155187212Y-60357544D01*
X155280776Y-60405218D01*
X155280778Y-60405218D01*
X155280781Y-60405220D01*
X155385137Y-60439127D01*
X155475465Y-60468477D01*
X155576557Y-60484488D01*
X155677648Y-60500500D01*
X155677649Y-60500500D01*
X155882351Y-60500500D01*
X155882352Y-60500500D01*
X156084534Y-60468477D01*
X156279219Y-60405220D01*
X156461610Y-60312287D01*
X156557901Y-60242328D01*
X156627213Y-60191971D01*
X156627215Y-60191968D01*
X156627219Y-60191966D01*
X156771966Y-60047219D01*
X156771968Y-60047215D01*
X156771971Y-60047213D01*
X156892284Y-59881614D01*
X156892285Y-59881613D01*
X156892287Y-59881610D01*
X156939516Y-59788917D01*
X156987489Y-59738123D01*
X157055310Y-59721328D01*
X157121445Y-59743865D01*
X157160485Y-59788919D01*
X157207715Y-59881614D01*
X157328028Y-60047213D01*
X157472786Y-60191971D01*
X157627749Y-60304556D01*
X157638390Y-60312287D01*
X157727212Y-60357544D01*
X157820776Y-60405218D01*
X157820778Y-60405218D01*
X157820781Y-60405220D01*
X157925137Y-60439127D01*
X158015465Y-60468477D01*
X158116557Y-60484488D01*
X158217648Y-60500500D01*
X158217649Y-60500500D01*
X158422351Y-60500500D01*
X158422352Y-60500500D01*
X158624534Y-60468477D01*
X158819219Y-60405220D01*
X159001610Y-60312287D01*
X159097901Y-60242328D01*
X159167213Y-60191971D01*
X159167215Y-60191968D01*
X159167219Y-60191966D01*
X159311966Y-60047219D01*
X159311968Y-60047215D01*
X159311971Y-60047213D01*
X159432284Y-59881614D01*
X159432285Y-59881613D01*
X159432287Y-59881610D01*
X159479516Y-59788917D01*
X159527489Y-59738123D01*
X159595310Y-59721328D01*
X159661445Y-59743865D01*
X159700485Y-59788919D01*
X159747715Y-59881614D01*
X159868028Y-60047213D01*
X160012786Y-60191971D01*
X160167749Y-60304556D01*
X160178390Y-60312287D01*
X160267212Y-60357544D01*
X160360776Y-60405218D01*
X160360778Y-60405218D01*
X160360781Y-60405220D01*
X160465137Y-60439127D01*
X160555465Y-60468477D01*
X160656557Y-60484488D01*
X160757648Y-60500500D01*
X160757649Y-60500500D01*
X160962351Y-60500500D01*
X160962352Y-60500500D01*
X161164534Y-60468477D01*
X161359219Y-60405220D01*
X161541610Y-60312287D01*
X161637901Y-60242328D01*
X161707213Y-60191971D01*
X161707215Y-60191968D01*
X161707219Y-60191966D01*
X161851966Y-60047219D01*
X161851968Y-60047215D01*
X161851971Y-60047213D01*
X161972284Y-59881614D01*
X161972285Y-59881613D01*
X161972287Y-59881610D01*
X162019516Y-59788917D01*
X162067489Y-59738123D01*
X162135310Y-59721328D01*
X162201445Y-59743865D01*
X162240485Y-59788919D01*
X162287715Y-59881614D01*
X162408028Y-60047213D01*
X162552786Y-60191971D01*
X162707749Y-60304556D01*
X162718390Y-60312287D01*
X162807212Y-60357544D01*
X162900776Y-60405218D01*
X162900778Y-60405218D01*
X162900781Y-60405220D01*
X163005137Y-60439127D01*
X163095465Y-60468477D01*
X163196557Y-60484488D01*
X163297648Y-60500500D01*
X163297649Y-60500500D01*
X163502351Y-60500500D01*
X163502352Y-60500500D01*
X163704534Y-60468477D01*
X163899219Y-60405220D01*
X164081610Y-60312287D01*
X164177901Y-60242328D01*
X164247213Y-60191971D01*
X164247215Y-60191968D01*
X164247219Y-60191966D01*
X164391966Y-60047219D01*
X164391968Y-60047215D01*
X164391971Y-60047213D01*
X164512284Y-59881614D01*
X164512285Y-59881613D01*
X164512287Y-59881610D01*
X164559516Y-59788917D01*
X164607489Y-59738123D01*
X164675310Y-59721328D01*
X164741445Y-59743865D01*
X164780485Y-59788919D01*
X164827715Y-59881614D01*
X164948028Y-60047213D01*
X165092786Y-60191971D01*
X165247749Y-60304556D01*
X165258390Y-60312287D01*
X165347212Y-60357544D01*
X165440776Y-60405218D01*
X165440778Y-60405218D01*
X165440781Y-60405220D01*
X165545137Y-60439127D01*
X165635465Y-60468477D01*
X165736557Y-60484488D01*
X165837648Y-60500500D01*
X165837649Y-60500500D01*
X166042351Y-60500500D01*
X166042352Y-60500500D01*
X166244534Y-60468477D01*
X166439219Y-60405220D01*
X166621610Y-60312287D01*
X166717901Y-60242328D01*
X166787213Y-60191971D01*
X166787215Y-60191968D01*
X166787219Y-60191966D01*
X166931966Y-60047219D01*
X166931968Y-60047215D01*
X166931971Y-60047213D01*
X167052284Y-59881614D01*
X167052285Y-59881613D01*
X167052287Y-59881610D01*
X167099516Y-59788917D01*
X167147489Y-59738123D01*
X167215310Y-59721328D01*
X167281445Y-59743865D01*
X167320485Y-59788919D01*
X167367715Y-59881614D01*
X167488028Y-60047213D01*
X167632786Y-60191971D01*
X167787749Y-60304556D01*
X167798390Y-60312287D01*
X167887212Y-60357544D01*
X167980776Y-60405218D01*
X167980778Y-60405218D01*
X167980781Y-60405220D01*
X168085137Y-60439127D01*
X168175465Y-60468477D01*
X168276557Y-60484488D01*
X168377648Y-60500500D01*
X168377649Y-60500500D01*
X168582351Y-60500500D01*
X168582352Y-60500500D01*
X168784534Y-60468477D01*
X168979219Y-60405220D01*
X169161610Y-60312287D01*
X169257901Y-60242328D01*
X169327213Y-60191971D01*
X169327215Y-60191968D01*
X169327219Y-60191966D01*
X169471966Y-60047219D01*
X169471968Y-60047215D01*
X169471971Y-60047213D01*
X169592284Y-59881614D01*
X169592285Y-59881613D01*
X169592287Y-59881610D01*
X169639516Y-59788917D01*
X169687489Y-59738123D01*
X169755310Y-59721328D01*
X169821445Y-59743865D01*
X169860485Y-59788919D01*
X169907715Y-59881614D01*
X170028028Y-60047213D01*
X170172786Y-60191971D01*
X170327749Y-60304556D01*
X170338390Y-60312287D01*
X170427212Y-60357544D01*
X170520776Y-60405218D01*
X170520778Y-60405218D01*
X170520781Y-60405220D01*
X170625137Y-60439127D01*
X170715465Y-60468477D01*
X170816557Y-60484488D01*
X170917648Y-60500500D01*
X170917649Y-60500500D01*
X171122351Y-60500500D01*
X171122352Y-60500500D01*
X171324534Y-60468477D01*
X171519219Y-60405220D01*
X171701610Y-60312287D01*
X171797901Y-60242328D01*
X171867213Y-60191971D01*
X171867215Y-60191968D01*
X171867219Y-60191966D01*
X172011966Y-60047219D01*
X172011968Y-60047215D01*
X172011971Y-60047213D01*
X172132284Y-59881614D01*
X172132285Y-59881613D01*
X172132287Y-59881610D01*
X172179516Y-59788917D01*
X172227489Y-59738123D01*
X172295310Y-59721328D01*
X172361445Y-59743865D01*
X172400485Y-59788919D01*
X172447715Y-59881614D01*
X172568028Y-60047213D01*
X172712786Y-60191971D01*
X172867749Y-60304556D01*
X172878390Y-60312287D01*
X172967212Y-60357544D01*
X173060776Y-60405218D01*
X173060778Y-60405218D01*
X173060781Y-60405220D01*
X173165137Y-60439127D01*
X173255465Y-60468477D01*
X173356557Y-60484488D01*
X173457648Y-60500500D01*
X173457649Y-60500500D01*
X173662351Y-60500500D01*
X173662352Y-60500500D01*
X173864534Y-60468477D01*
X174059219Y-60405220D01*
X174241610Y-60312287D01*
X174337901Y-60242328D01*
X174407213Y-60191971D01*
X174407215Y-60191968D01*
X174407219Y-60191966D01*
X174551966Y-60047219D01*
X174551968Y-60047215D01*
X174551971Y-60047213D01*
X174672284Y-59881614D01*
X174672285Y-59881613D01*
X174672287Y-59881610D01*
X174719516Y-59788917D01*
X174767489Y-59738123D01*
X174835310Y-59721328D01*
X174901445Y-59743865D01*
X174940485Y-59788919D01*
X174987715Y-59881614D01*
X175108028Y-60047213D01*
X175252786Y-60191971D01*
X175407749Y-60304556D01*
X175418390Y-60312287D01*
X175507212Y-60357544D01*
X175600776Y-60405218D01*
X175600778Y-60405218D01*
X175600781Y-60405220D01*
X175705137Y-60439127D01*
X175795465Y-60468477D01*
X175896557Y-60484488D01*
X175997648Y-60500500D01*
X175997649Y-60500500D01*
X176202351Y-60500500D01*
X176202352Y-60500500D01*
X176404534Y-60468477D01*
X176599219Y-60405220D01*
X176781610Y-60312287D01*
X176877901Y-60242328D01*
X176947213Y-60191971D01*
X176947215Y-60191968D01*
X176947219Y-60191966D01*
X177091966Y-60047219D01*
X177091968Y-60047215D01*
X177091971Y-60047213D01*
X177212284Y-59881614D01*
X177212285Y-59881613D01*
X177212287Y-59881610D01*
X177259516Y-59788917D01*
X177307489Y-59738123D01*
X177375310Y-59721328D01*
X177441445Y-59743865D01*
X177480485Y-59788919D01*
X177527715Y-59881614D01*
X177648028Y-60047213D01*
X177792786Y-60191971D01*
X177947749Y-60304556D01*
X177958390Y-60312287D01*
X178047212Y-60357544D01*
X178140776Y-60405218D01*
X178140778Y-60405218D01*
X178140781Y-60405220D01*
X178245137Y-60439127D01*
X178335465Y-60468477D01*
X178436557Y-60484488D01*
X178537648Y-60500500D01*
X178537649Y-60500500D01*
X178742351Y-60500500D01*
X178742352Y-60500500D01*
X178944534Y-60468477D01*
X179139219Y-60405220D01*
X179321610Y-60312287D01*
X179417901Y-60242328D01*
X179487213Y-60191971D01*
X179487215Y-60191968D01*
X179487219Y-60191966D01*
X179631966Y-60047219D01*
X179631968Y-60047215D01*
X179631971Y-60047213D01*
X179752284Y-59881614D01*
X179752285Y-59881613D01*
X179752287Y-59881610D01*
X179799516Y-59788917D01*
X179847489Y-59738123D01*
X179915310Y-59721328D01*
X179981445Y-59743865D01*
X180020485Y-59788919D01*
X180067715Y-59881614D01*
X180188028Y-60047213D01*
X180332786Y-60191971D01*
X180487749Y-60304556D01*
X180498390Y-60312287D01*
X180587212Y-60357544D01*
X180680776Y-60405218D01*
X180680778Y-60405218D01*
X180680781Y-60405220D01*
X180785137Y-60439127D01*
X180875465Y-60468477D01*
X180976557Y-60484488D01*
X181077648Y-60500500D01*
X181077649Y-60500500D01*
X181282351Y-60500500D01*
X181282352Y-60500500D01*
X181484534Y-60468477D01*
X181679219Y-60405220D01*
X181861610Y-60312287D01*
X181957901Y-60242328D01*
X182027213Y-60191971D01*
X182027215Y-60191968D01*
X182027219Y-60191966D01*
X182171966Y-60047219D01*
X182171968Y-60047215D01*
X182171971Y-60047213D01*
X182292284Y-59881614D01*
X182292285Y-59881613D01*
X182292287Y-59881610D01*
X182339516Y-59788917D01*
X182387489Y-59738123D01*
X182455310Y-59721328D01*
X182521445Y-59743865D01*
X182560485Y-59788919D01*
X182607715Y-59881614D01*
X182728028Y-60047213D01*
X182872786Y-60191971D01*
X183027749Y-60304556D01*
X183038390Y-60312287D01*
X183127212Y-60357544D01*
X183220776Y-60405218D01*
X183220778Y-60405218D01*
X183220781Y-60405220D01*
X183325137Y-60439127D01*
X183415465Y-60468477D01*
X183516557Y-60484488D01*
X183617648Y-60500500D01*
X183617649Y-60500500D01*
X183822351Y-60500500D01*
X183822352Y-60500500D01*
X184024534Y-60468477D01*
X184219219Y-60405220D01*
X184401610Y-60312287D01*
X184497901Y-60242328D01*
X184567213Y-60191971D01*
X184567215Y-60191968D01*
X184567219Y-60191966D01*
X184711966Y-60047219D01*
X184711968Y-60047215D01*
X184711971Y-60047213D01*
X184832284Y-59881614D01*
X184832285Y-59881613D01*
X184832287Y-59881610D01*
X184879516Y-59788917D01*
X184927489Y-59738123D01*
X184995310Y-59721328D01*
X185061445Y-59743865D01*
X185100485Y-59788919D01*
X185147715Y-59881614D01*
X185268028Y-60047213D01*
X185412786Y-60191971D01*
X185567749Y-60304556D01*
X185578390Y-60312287D01*
X185667212Y-60357544D01*
X185760776Y-60405218D01*
X185760778Y-60405218D01*
X185760781Y-60405220D01*
X185865137Y-60439127D01*
X185955465Y-60468477D01*
X186056557Y-60484488D01*
X186157648Y-60500500D01*
X186157649Y-60500500D01*
X186362351Y-60500500D01*
X186362352Y-60500500D01*
X186564534Y-60468477D01*
X186759219Y-60405220D01*
X186941610Y-60312287D01*
X187037901Y-60242328D01*
X187107213Y-60191971D01*
X187107215Y-60191968D01*
X187107219Y-60191966D01*
X187251966Y-60047219D01*
X187251968Y-60047215D01*
X187251971Y-60047213D01*
X187372284Y-59881614D01*
X187372285Y-59881613D01*
X187372287Y-59881610D01*
X187419516Y-59788917D01*
X187467489Y-59738123D01*
X187535310Y-59721328D01*
X187601445Y-59743865D01*
X187640485Y-59788919D01*
X187687715Y-59881614D01*
X187808028Y-60047213D01*
X187952786Y-60191971D01*
X188107749Y-60304556D01*
X188118390Y-60312287D01*
X188207212Y-60357544D01*
X188300776Y-60405218D01*
X188300778Y-60405218D01*
X188300781Y-60405220D01*
X188405137Y-60439127D01*
X188495465Y-60468477D01*
X188596557Y-60484488D01*
X188697648Y-60500500D01*
X188697649Y-60500500D01*
X188902351Y-60500500D01*
X188902352Y-60500500D01*
X189104534Y-60468477D01*
X189299219Y-60405220D01*
X189481610Y-60312287D01*
X189577901Y-60242328D01*
X189647213Y-60191971D01*
X189647215Y-60191968D01*
X189647219Y-60191966D01*
X189791966Y-60047219D01*
X189791968Y-60047215D01*
X189791971Y-60047213D01*
X189912284Y-59881614D01*
X189912285Y-59881613D01*
X189912287Y-59881610D01*
X189959516Y-59788917D01*
X190007489Y-59738123D01*
X190075310Y-59721328D01*
X190141445Y-59743865D01*
X190180485Y-59788919D01*
X190227715Y-59881614D01*
X190348028Y-60047213D01*
X190492786Y-60191971D01*
X190647749Y-60304556D01*
X190658390Y-60312287D01*
X190747212Y-60357544D01*
X190840776Y-60405218D01*
X190840778Y-60405218D01*
X190840781Y-60405220D01*
X190945137Y-60439127D01*
X191035465Y-60468477D01*
X191136557Y-60484488D01*
X191237648Y-60500500D01*
X191237649Y-60500500D01*
X191442351Y-60500500D01*
X191442352Y-60500500D01*
X191644534Y-60468477D01*
X191839219Y-60405220D01*
X192021610Y-60312287D01*
X192117901Y-60242328D01*
X192187213Y-60191971D01*
X192187215Y-60191968D01*
X192187219Y-60191966D01*
X192331966Y-60047219D01*
X192331968Y-60047215D01*
X192331971Y-60047213D01*
X192452284Y-59881614D01*
X192452285Y-59881613D01*
X192452287Y-59881610D01*
X192499516Y-59788917D01*
X192547489Y-59738123D01*
X192615310Y-59721328D01*
X192681445Y-59743865D01*
X192720485Y-59788919D01*
X192767715Y-59881614D01*
X192888028Y-60047213D01*
X193032786Y-60191971D01*
X193187749Y-60304556D01*
X193198390Y-60312287D01*
X193287212Y-60357544D01*
X193380776Y-60405218D01*
X193380778Y-60405218D01*
X193380781Y-60405220D01*
X193485137Y-60439127D01*
X193575465Y-60468477D01*
X193676557Y-60484488D01*
X193777648Y-60500500D01*
X193777649Y-60500500D01*
X193982351Y-60500500D01*
X193982352Y-60500500D01*
X194184534Y-60468477D01*
X194379219Y-60405220D01*
X194561610Y-60312287D01*
X194657901Y-60242328D01*
X194727213Y-60191971D01*
X194727215Y-60191968D01*
X194727219Y-60191966D01*
X194871966Y-60047219D01*
X194871968Y-60047215D01*
X194871971Y-60047213D01*
X194992284Y-59881614D01*
X194992285Y-59881613D01*
X194992287Y-59881610D01*
X195039516Y-59788917D01*
X195087489Y-59738123D01*
X195155310Y-59721328D01*
X195221445Y-59743865D01*
X195260485Y-59788919D01*
X195307715Y-59881614D01*
X195428028Y-60047213D01*
X195572786Y-60191971D01*
X195727749Y-60304556D01*
X195738390Y-60312287D01*
X195827212Y-60357544D01*
X195920776Y-60405218D01*
X195920778Y-60405218D01*
X195920781Y-60405220D01*
X196025137Y-60439127D01*
X196115465Y-60468477D01*
X196216557Y-60484488D01*
X196317648Y-60500500D01*
X196317649Y-60500500D01*
X196522351Y-60500500D01*
X196522352Y-60500500D01*
X196724534Y-60468477D01*
X196919219Y-60405220D01*
X197101610Y-60312287D01*
X197197901Y-60242328D01*
X197267213Y-60191971D01*
X197267215Y-60191968D01*
X197267219Y-60191966D01*
X197411966Y-60047219D01*
X197411968Y-60047215D01*
X197411971Y-60047213D01*
X197532284Y-59881614D01*
X197532285Y-59881613D01*
X197532287Y-59881610D01*
X197579516Y-59788917D01*
X197627489Y-59738123D01*
X197695310Y-59721328D01*
X197761445Y-59743865D01*
X197800485Y-59788919D01*
X197847715Y-59881614D01*
X197968028Y-60047213D01*
X198112786Y-60191971D01*
X198267749Y-60304556D01*
X198278390Y-60312287D01*
X198367212Y-60357544D01*
X198460776Y-60405218D01*
X198460778Y-60405218D01*
X198460781Y-60405220D01*
X198565137Y-60439127D01*
X198655465Y-60468477D01*
X198756557Y-60484488D01*
X198857648Y-60500500D01*
X198857649Y-60500500D01*
X199062351Y-60500500D01*
X199062352Y-60500500D01*
X199264534Y-60468477D01*
X199459219Y-60405220D01*
X199641610Y-60312287D01*
X199737901Y-60242328D01*
X199807213Y-60191971D01*
X199807215Y-60191968D01*
X199807219Y-60191966D01*
X199951966Y-60047219D01*
X199978330Y-60010930D01*
X200033658Y-59968265D01*
X200103271Y-59962284D01*
X200165067Y-59994889D01*
X200199426Y-60055726D01*
X200201938Y-60070559D01*
X200205907Y-60107480D01*
X200256202Y-60242328D01*
X200256206Y-60242335D01*
X200342452Y-60357544D01*
X200342455Y-60357547D01*
X200457664Y-60443793D01*
X200457671Y-60443797D01*
X200592517Y-60494091D01*
X200592516Y-60494091D01*
X200599444Y-60494835D01*
X200652127Y-60500500D01*
X202347872Y-60500499D01*
X202407483Y-60494091D01*
X202542331Y-60443796D01*
X202657546Y-60357546D01*
X202743796Y-60242331D01*
X202794091Y-60107483D01*
X202800500Y-60047873D01*
X202800499Y-58124499D01*
X202820184Y-58057461D01*
X202872987Y-58011706D01*
X202924499Y-58000500D01*
X203375500Y-58000500D01*
X203442539Y-58020185D01*
X203488294Y-58072989D01*
X203499500Y-58124500D01*
X203499500Y-82375500D01*
X203479815Y-82442539D01*
X203427011Y-82488294D01*
X203375500Y-82499500D01*
X202924500Y-82499500D01*
X202857461Y-82479815D01*
X202811706Y-82427011D01*
X202800500Y-82375500D01*
X202800499Y-80769029D01*
X202800498Y-80769023D01*
X202794091Y-80709416D01*
X202743797Y-80574571D01*
X202743793Y-80574564D01*
X202657547Y-80459355D01*
X202657544Y-80459352D01*
X202542335Y-80373106D01*
X202542328Y-80373102D01*
X202407482Y-80322808D01*
X202407483Y-80322808D01*
X202347883Y-80316401D01*
X202347881Y-80316400D01*
X202347873Y-80316400D01*
X202347864Y-80316400D01*
X200652129Y-80316400D01*
X200652123Y-80316401D01*
X200592516Y-80322808D01*
X200457671Y-80373102D01*
X200457664Y-80373106D01*
X200342455Y-80459352D01*
X200342452Y-80459355D01*
X200256206Y-80574564D01*
X200256202Y-80574571D01*
X200205908Y-80709416D01*
X200201939Y-80746340D01*
X200175201Y-80810891D01*
X200117809Y-80850739D01*
X200047983Y-80853232D01*
X199987895Y-80817579D01*
X199978332Y-80805970D01*
X199951967Y-80769682D01*
X199807213Y-80624928D01*
X199641613Y-80504615D01*
X199641612Y-80504614D01*
X199641610Y-80504613D01*
X199567651Y-80466929D01*
X199459223Y-80411681D01*
X199264534Y-80348422D01*
X199089995Y-80320778D01*
X199062352Y-80316400D01*
X198857648Y-80316400D01*
X198833329Y-80320251D01*
X198655465Y-80348422D01*
X198460776Y-80411681D01*
X198278386Y-80504615D01*
X198112786Y-80624928D01*
X197968028Y-80769686D01*
X197847715Y-80935286D01*
X197800485Y-81027980D01*
X197752510Y-81078776D01*
X197684689Y-81095571D01*
X197618554Y-81073034D01*
X197579515Y-81027980D01*
X197573951Y-81017060D01*
X197532287Y-80935290D01*
X197470858Y-80850739D01*
X197411971Y-80769686D01*
X197267213Y-80624928D01*
X197101613Y-80504615D01*
X197101612Y-80504614D01*
X197101610Y-80504613D01*
X197027651Y-80466929D01*
X196919223Y-80411681D01*
X196724534Y-80348422D01*
X196549995Y-80320778D01*
X196522352Y-80316400D01*
X196317648Y-80316400D01*
X196293329Y-80320251D01*
X196115465Y-80348422D01*
X195920776Y-80411681D01*
X195738386Y-80504615D01*
X195572786Y-80624928D01*
X195428028Y-80769686D01*
X195307715Y-80935286D01*
X195260485Y-81027980D01*
X195212510Y-81078776D01*
X195144689Y-81095571D01*
X195078554Y-81073034D01*
X195039515Y-81027980D01*
X195033951Y-81017060D01*
X194992287Y-80935290D01*
X194930858Y-80850739D01*
X194871971Y-80769686D01*
X194727213Y-80624928D01*
X194561613Y-80504615D01*
X194561612Y-80504614D01*
X194561610Y-80504613D01*
X194487651Y-80466929D01*
X194379223Y-80411681D01*
X194184534Y-80348422D01*
X194009995Y-80320778D01*
X193982352Y-80316400D01*
X193777648Y-80316400D01*
X193753329Y-80320251D01*
X193575465Y-80348422D01*
X193380776Y-80411681D01*
X193198386Y-80504615D01*
X193032786Y-80624928D01*
X192888028Y-80769686D01*
X192767715Y-80935286D01*
X192720485Y-81027980D01*
X192672510Y-81078776D01*
X192604689Y-81095571D01*
X192538554Y-81073034D01*
X192499515Y-81027980D01*
X192493951Y-81017060D01*
X192452287Y-80935290D01*
X192390858Y-80850739D01*
X192331971Y-80769686D01*
X192187213Y-80624928D01*
X192021613Y-80504615D01*
X192021612Y-80504614D01*
X192021610Y-80504613D01*
X191947651Y-80466929D01*
X191839223Y-80411681D01*
X191644534Y-80348422D01*
X191469995Y-80320778D01*
X191442352Y-80316400D01*
X191237648Y-80316400D01*
X191213329Y-80320251D01*
X191035465Y-80348422D01*
X190840776Y-80411681D01*
X190658386Y-80504615D01*
X190492786Y-80624928D01*
X190348028Y-80769686D01*
X190227715Y-80935286D01*
X190180485Y-81027980D01*
X190132510Y-81078776D01*
X190064689Y-81095571D01*
X189998554Y-81073034D01*
X189959515Y-81027980D01*
X189953951Y-81017060D01*
X189912287Y-80935290D01*
X189850858Y-80850739D01*
X189791971Y-80769686D01*
X189647213Y-80624928D01*
X189481613Y-80504615D01*
X189481612Y-80504614D01*
X189481610Y-80504613D01*
X189407651Y-80466929D01*
X189299223Y-80411681D01*
X189104534Y-80348422D01*
X188929995Y-80320778D01*
X188902352Y-80316400D01*
X188697648Y-80316400D01*
X188673329Y-80320251D01*
X188495465Y-80348422D01*
X188300776Y-80411681D01*
X188118386Y-80504615D01*
X187952786Y-80624928D01*
X187808028Y-80769686D01*
X187687715Y-80935286D01*
X187640485Y-81027980D01*
X187592510Y-81078776D01*
X187524689Y-81095571D01*
X187458554Y-81073034D01*
X187419515Y-81027980D01*
X187413951Y-81017060D01*
X187372287Y-80935290D01*
X187310858Y-80850739D01*
X187251971Y-80769686D01*
X187107213Y-80624928D01*
X186941613Y-80504615D01*
X186941612Y-80504614D01*
X186941610Y-80504613D01*
X186867651Y-80466929D01*
X186759223Y-80411681D01*
X186564534Y-80348422D01*
X186389995Y-80320778D01*
X186362352Y-80316400D01*
X186157648Y-80316400D01*
X186133329Y-80320251D01*
X185955465Y-80348422D01*
X185760776Y-80411681D01*
X185578386Y-80504615D01*
X185412786Y-80624928D01*
X185268028Y-80769686D01*
X185147715Y-80935286D01*
X185100485Y-81027980D01*
X185052510Y-81078776D01*
X184984689Y-81095571D01*
X184918554Y-81073034D01*
X184879515Y-81027980D01*
X184873951Y-81017060D01*
X184832287Y-80935290D01*
X184770858Y-80850739D01*
X184711971Y-80769686D01*
X184567213Y-80624928D01*
X184401613Y-80504615D01*
X184401612Y-80504614D01*
X184401610Y-80504613D01*
X184327651Y-80466929D01*
X184219223Y-80411681D01*
X184024534Y-80348422D01*
X183849995Y-80320778D01*
X183822352Y-80316400D01*
X183617648Y-80316400D01*
X183593329Y-80320251D01*
X183415465Y-80348422D01*
X183220776Y-80411681D01*
X183038386Y-80504615D01*
X182872786Y-80624928D01*
X182728028Y-80769686D01*
X182607715Y-80935286D01*
X182560485Y-81027980D01*
X182512510Y-81078776D01*
X182444689Y-81095571D01*
X182378554Y-81073034D01*
X182339515Y-81027980D01*
X182333951Y-81017060D01*
X182292287Y-80935290D01*
X182230858Y-80850739D01*
X182171971Y-80769686D01*
X182027213Y-80624928D01*
X181861613Y-80504615D01*
X181861612Y-80504614D01*
X181861610Y-80504613D01*
X181787651Y-80466929D01*
X181679223Y-80411681D01*
X181484534Y-80348422D01*
X181309995Y-80320778D01*
X181282352Y-80316400D01*
X181077648Y-80316400D01*
X181053329Y-80320251D01*
X180875465Y-80348422D01*
X180680776Y-80411681D01*
X180498386Y-80504615D01*
X180332786Y-80624928D01*
X180188028Y-80769686D01*
X180067715Y-80935286D01*
X180020485Y-81027980D01*
X179972510Y-81078776D01*
X179904689Y-81095571D01*
X179838554Y-81073034D01*
X179799515Y-81027980D01*
X179793951Y-81017060D01*
X179752287Y-80935290D01*
X179690858Y-80850739D01*
X179631971Y-80769686D01*
X179487213Y-80624928D01*
X179321613Y-80504615D01*
X179321612Y-80504614D01*
X179321610Y-80504613D01*
X179247651Y-80466929D01*
X179139223Y-80411681D01*
X178944534Y-80348422D01*
X178769995Y-80320778D01*
X178742352Y-80316400D01*
X178537648Y-80316400D01*
X178513329Y-80320251D01*
X178335465Y-80348422D01*
X178140776Y-80411681D01*
X177958386Y-80504615D01*
X177792786Y-80624928D01*
X177648028Y-80769686D01*
X177527715Y-80935286D01*
X177480485Y-81027980D01*
X177432510Y-81078776D01*
X177364689Y-81095571D01*
X177298554Y-81073034D01*
X177259515Y-81027980D01*
X177253951Y-81017060D01*
X177212287Y-80935290D01*
X177150858Y-80850739D01*
X177091971Y-80769686D01*
X176947213Y-80624928D01*
X176781613Y-80504615D01*
X176781612Y-80504614D01*
X176781610Y-80504613D01*
X176707651Y-80466929D01*
X176599223Y-80411681D01*
X176404534Y-80348422D01*
X176229995Y-80320778D01*
X176202352Y-80316400D01*
X175997648Y-80316400D01*
X175973329Y-80320251D01*
X175795465Y-80348422D01*
X175600776Y-80411681D01*
X175418386Y-80504615D01*
X175252786Y-80624928D01*
X175108028Y-80769686D01*
X174987715Y-80935286D01*
X174940485Y-81027980D01*
X174892510Y-81078776D01*
X174824689Y-81095571D01*
X174758554Y-81073034D01*
X174719515Y-81027980D01*
X174713951Y-81017060D01*
X174672287Y-80935290D01*
X174610858Y-80850739D01*
X174551971Y-80769686D01*
X174407213Y-80624928D01*
X174241613Y-80504615D01*
X174241612Y-80504614D01*
X174241610Y-80504613D01*
X174167651Y-80466929D01*
X174059223Y-80411681D01*
X173864534Y-80348422D01*
X173689995Y-80320778D01*
X173662352Y-80316400D01*
X173457648Y-80316400D01*
X173433329Y-80320251D01*
X173255465Y-80348422D01*
X173060776Y-80411681D01*
X172878386Y-80504615D01*
X172712786Y-80624928D01*
X172568028Y-80769686D01*
X172447715Y-80935286D01*
X172400485Y-81027980D01*
X172352510Y-81078776D01*
X172284689Y-81095571D01*
X172218554Y-81073034D01*
X172179515Y-81027980D01*
X172173951Y-81017060D01*
X172132287Y-80935290D01*
X172070858Y-80850739D01*
X172011971Y-80769686D01*
X171867213Y-80624928D01*
X171701613Y-80504615D01*
X171701612Y-80504614D01*
X171701610Y-80504613D01*
X171627651Y-80466929D01*
X171519223Y-80411681D01*
X171324534Y-80348422D01*
X171149995Y-80320778D01*
X171122352Y-80316400D01*
X170917648Y-80316400D01*
X170893329Y-80320251D01*
X170715465Y-80348422D01*
X170520776Y-80411681D01*
X170338386Y-80504615D01*
X170172786Y-80624928D01*
X170028028Y-80769686D01*
X169907715Y-80935286D01*
X169860485Y-81027980D01*
X169812510Y-81078776D01*
X169744689Y-81095571D01*
X169678554Y-81073034D01*
X169639515Y-81027980D01*
X169633951Y-81017060D01*
X169592287Y-80935290D01*
X169530858Y-80850739D01*
X169471971Y-80769686D01*
X169327213Y-80624928D01*
X169161613Y-80504615D01*
X169161612Y-80504614D01*
X169161610Y-80504613D01*
X169087651Y-80466929D01*
X168979223Y-80411681D01*
X168784534Y-80348422D01*
X168609995Y-80320778D01*
X168582352Y-80316400D01*
X168377648Y-80316400D01*
X168353329Y-80320251D01*
X168175465Y-80348422D01*
X167980776Y-80411681D01*
X167798386Y-80504615D01*
X167632786Y-80624928D01*
X167488028Y-80769686D01*
X167367715Y-80935286D01*
X167320485Y-81027980D01*
X167272510Y-81078776D01*
X167204689Y-81095571D01*
X167138554Y-81073034D01*
X167099515Y-81027980D01*
X167093951Y-81017060D01*
X167052287Y-80935290D01*
X166990858Y-80850739D01*
X166931971Y-80769686D01*
X166787213Y-80624928D01*
X166621613Y-80504615D01*
X166621612Y-80504614D01*
X166621610Y-80504613D01*
X166547651Y-80466929D01*
X166439223Y-80411681D01*
X166244534Y-80348422D01*
X166069995Y-80320778D01*
X166042352Y-80316400D01*
X165837648Y-80316400D01*
X165813329Y-80320251D01*
X165635465Y-80348422D01*
X165440776Y-80411681D01*
X165258386Y-80504615D01*
X165092786Y-80624928D01*
X164948028Y-80769686D01*
X164827715Y-80935286D01*
X164780485Y-81027980D01*
X164732510Y-81078776D01*
X164664689Y-81095571D01*
X164598554Y-81073034D01*
X164559515Y-81027980D01*
X164553951Y-81017060D01*
X164512287Y-80935290D01*
X164450858Y-80850739D01*
X164391971Y-80769686D01*
X164247213Y-80624928D01*
X164081613Y-80504615D01*
X164081612Y-80504614D01*
X164081610Y-80504613D01*
X164007651Y-80466929D01*
X163899223Y-80411681D01*
X163704534Y-80348422D01*
X163529995Y-80320778D01*
X163502352Y-80316400D01*
X163297648Y-80316400D01*
X163273329Y-80320251D01*
X163095465Y-80348422D01*
X162900776Y-80411681D01*
X162718386Y-80504615D01*
X162552786Y-80624928D01*
X162408028Y-80769686D01*
X162287715Y-80935286D01*
X162240485Y-81027980D01*
X162192510Y-81078776D01*
X162124689Y-81095571D01*
X162058554Y-81073034D01*
X162019515Y-81027980D01*
X162013951Y-81017060D01*
X161972287Y-80935290D01*
X161910858Y-80850739D01*
X161851971Y-80769686D01*
X161707213Y-80624928D01*
X161541613Y-80504615D01*
X161541612Y-80504614D01*
X161541610Y-80504613D01*
X161467651Y-80466929D01*
X161359223Y-80411681D01*
X161164534Y-80348422D01*
X160989995Y-80320778D01*
X160962352Y-80316400D01*
X160757648Y-80316400D01*
X160733329Y-80320251D01*
X160555465Y-80348422D01*
X160360776Y-80411681D01*
X160178386Y-80504615D01*
X160012786Y-80624928D01*
X159868028Y-80769686D01*
X159747715Y-80935286D01*
X159700485Y-81027980D01*
X159652510Y-81078776D01*
X159584689Y-81095571D01*
X159518554Y-81073034D01*
X159479515Y-81027980D01*
X159473951Y-81017060D01*
X159432287Y-80935290D01*
X159370858Y-80850739D01*
X159311971Y-80769686D01*
X159167213Y-80624928D01*
X159001613Y-80504615D01*
X159001612Y-80504614D01*
X159001610Y-80504613D01*
X158927651Y-80466929D01*
X158819223Y-80411681D01*
X158624534Y-80348422D01*
X158449995Y-80320778D01*
X158422352Y-80316400D01*
X158217648Y-80316400D01*
X158193329Y-80320251D01*
X158015465Y-80348422D01*
X157820776Y-80411681D01*
X157638386Y-80504615D01*
X157472786Y-80624928D01*
X157328028Y-80769686D01*
X157207715Y-80935286D01*
X157160485Y-81027980D01*
X157112510Y-81078776D01*
X157044689Y-81095571D01*
X156978554Y-81073034D01*
X156939515Y-81027980D01*
X156933951Y-81017060D01*
X156892287Y-80935290D01*
X156830858Y-80850739D01*
X156771971Y-80769686D01*
X156627213Y-80624928D01*
X156461613Y-80504615D01*
X156461612Y-80504614D01*
X156461610Y-80504613D01*
X156387651Y-80466929D01*
X156279223Y-80411681D01*
X156084534Y-80348422D01*
X155909995Y-80320778D01*
X155882352Y-80316400D01*
X155677648Y-80316400D01*
X155653329Y-80320251D01*
X155475465Y-80348422D01*
X155280776Y-80411681D01*
X155098386Y-80504615D01*
X154932786Y-80624928D01*
X154788028Y-80769686D01*
X154667715Y-80935286D01*
X154620485Y-81027980D01*
X154572510Y-81078776D01*
X154504689Y-81095571D01*
X154438554Y-81073034D01*
X154399515Y-81027980D01*
X154393951Y-81017060D01*
X154352287Y-80935290D01*
X154290858Y-80850739D01*
X154231971Y-80769686D01*
X154087213Y-80624928D01*
X153921613Y-80504615D01*
X153921612Y-80504614D01*
X153921610Y-80504613D01*
X153847651Y-80466929D01*
X153739223Y-80411681D01*
X153544534Y-80348422D01*
X153369995Y-80320778D01*
X153342352Y-80316400D01*
X153137648Y-80316400D01*
X153113329Y-80320251D01*
X152935465Y-80348422D01*
X152740776Y-80411681D01*
X152558386Y-80504615D01*
X152392786Y-80624928D01*
X152248028Y-80769686D01*
X152127715Y-80935286D01*
X152080485Y-81027980D01*
X152032510Y-81078776D01*
X151964689Y-81095571D01*
X151898554Y-81073034D01*
X151859515Y-81027980D01*
X151853951Y-81017060D01*
X151812287Y-80935290D01*
X151750858Y-80850739D01*
X151691971Y-80769686D01*
X151547213Y-80624928D01*
X151381613Y-80504615D01*
X151381612Y-80504614D01*
X151381610Y-80504613D01*
X151307651Y-80466929D01*
X151199223Y-80411681D01*
X151004534Y-80348422D01*
X150829995Y-80320778D01*
X150802352Y-80316400D01*
X150597648Y-80316400D01*
X150573329Y-80320251D01*
X150395465Y-80348422D01*
X150200776Y-80411681D01*
X150018386Y-80504615D01*
X149852786Y-80624928D01*
X149708028Y-80769686D01*
X149587715Y-80935286D01*
X149540485Y-81027980D01*
X149492510Y-81078776D01*
X149424689Y-81095571D01*
X149358554Y-81073034D01*
X149319515Y-81027980D01*
X149313951Y-81017060D01*
X149272287Y-80935290D01*
X149210858Y-80850739D01*
X149151971Y-80769686D01*
X149007213Y-80624928D01*
X148841613Y-80504615D01*
X148841612Y-80504614D01*
X148841610Y-80504613D01*
X148767651Y-80466929D01*
X148659223Y-80411681D01*
X148464534Y-80348422D01*
X148289995Y-80320778D01*
X148262352Y-80316400D01*
X148057648Y-80316400D01*
X148033329Y-80320251D01*
X147855465Y-80348422D01*
X147660776Y-80411681D01*
X147478386Y-80504615D01*
X147312786Y-80624928D01*
X147168028Y-80769686D01*
X147047713Y-80935288D01*
X147000203Y-81028530D01*
X146952228Y-81079326D01*
X146884407Y-81096120D01*
X146818272Y-81073582D01*
X146779234Y-81028528D01*
X146773390Y-81017060D01*
X146102961Y-81687488D01*
X146085925Y-81623907D01*
X146020099Y-81509893D01*
X145927007Y-81416801D01*
X145812993Y-81350975D01*
X145749410Y-81333937D01*
X146461761Y-80621586D01*
X146461760Y-80621584D01*
X146443622Y-80608406D01*
X146432207Y-80593603D01*
X146417242Y-80582401D01*
X146411314Y-80566508D01*
X146400956Y-80553076D01*
X146399356Y-80534450D01*
X146392824Y-80516937D01*
X146396429Y-80500362D01*
X146394978Y-80483463D01*
X146403701Y-80466929D01*
X146407675Y-80448664D01*
X146426869Y-80423021D01*
X146427584Y-80421668D01*
X146428687Y-80420548D01*
X146480520Y-80368716D01*
X146480521Y-80368713D01*
X147480520Y-79368716D01*
X147559577Y-79231784D01*
X147600501Y-79079057D01*
X147600501Y-78920942D01*
X147600501Y-78913347D01*
X147600500Y-78913329D01*
X147600500Y-76800097D01*
X147620185Y-76733058D01*
X147636819Y-76712416D01*
X148712416Y-75636819D01*
X148773739Y-75603334D01*
X148800097Y-75600500D01*
X150188429Y-75600500D01*
X150255468Y-75620185D01*
X150301223Y-75672989D01*
X150311167Y-75742147D01*
X150287695Y-75798811D01*
X150206206Y-75907664D01*
X150206202Y-75907671D01*
X150155908Y-76042517D01*
X150149501Y-76102116D01*
X150149500Y-76102135D01*
X150149500Y-77897870D01*
X150149501Y-77897876D01*
X150155908Y-77957483D01*
X150206202Y-78092328D01*
X150206206Y-78092335D01*
X150292452Y-78207544D01*
X150292455Y-78207547D01*
X150407664Y-78293793D01*
X150407671Y-78293797D01*
X150542517Y-78344091D01*
X150542516Y-78344091D01*
X150549444Y-78344835D01*
X150602127Y-78350500D01*
X152397872Y-78350499D01*
X152457483Y-78344091D01*
X152592331Y-78293796D01*
X152707546Y-78207546D01*
X152793796Y-78092331D01*
X152842810Y-77960916D01*
X152884681Y-77904984D01*
X152950145Y-77880566D01*
X153018418Y-77895417D01*
X153046673Y-77916569D01*
X153160213Y-78030109D01*
X153332179Y-78155048D01*
X153332181Y-78155049D01*
X153332184Y-78155051D01*
X153521588Y-78251557D01*
X153723757Y-78317246D01*
X153933713Y-78350500D01*
X153933714Y-78350500D01*
X154146286Y-78350500D01*
X154146287Y-78350500D01*
X154356243Y-78317246D01*
X154558412Y-78251557D01*
X154747816Y-78155051D01*
X154834138Y-78092335D01*
X154919786Y-78030109D01*
X154919788Y-78030106D01*
X154919792Y-78030104D01*
X155070104Y-77879792D01*
X155070106Y-77879788D01*
X155070109Y-77879786D01*
X155195048Y-77707820D01*
X155195047Y-77707820D01*
X155195051Y-77707816D01*
X155291557Y-77518412D01*
X155357246Y-77316243D01*
X155390500Y-77106287D01*
X155390500Y-76893713D01*
X155357246Y-76683757D01*
X155291557Y-76481588D01*
X155195051Y-76292184D01*
X155195049Y-76292181D01*
X155195048Y-76292179D01*
X155070109Y-76120213D01*
X154919786Y-75969890D01*
X154747817Y-75844949D01*
X154728261Y-75834985D01*
X154677464Y-75787011D01*
X154660669Y-75719190D01*
X154683206Y-75653055D01*
X154737921Y-75609603D01*
X154784555Y-75600500D01*
X185420234Y-75600500D01*
X185487273Y-75620185D01*
X185489125Y-75621398D01*
X185620814Y-75709390D01*
X185620827Y-75709397D01*
X185766498Y-75769735D01*
X185766503Y-75769737D01*
X185912667Y-75798811D01*
X185921153Y-75800499D01*
X185921156Y-75800500D01*
X185921158Y-75800500D01*
X186078844Y-75800500D01*
X186078845Y-75800499D01*
X186233497Y-75769737D01*
X186379179Y-75709394D01*
X186510289Y-75621789D01*
X186621789Y-75510289D01*
X186709394Y-75379179D01*
X186769737Y-75233497D01*
X186800500Y-75078842D01*
X186800500Y-74921158D01*
X186800500Y-74921155D01*
X186800499Y-74921153D01*
X186770822Y-74771958D01*
X186769737Y-74766503D01*
X186769735Y-74766498D01*
X186709397Y-74620827D01*
X186709390Y-74620814D01*
X186621789Y-74489711D01*
X186621786Y-74489707D01*
X186510292Y-74378213D01*
X186510288Y-74378210D01*
X186379185Y-74290609D01*
X186379172Y-74290602D01*
X186233501Y-74230264D01*
X186233489Y-74230261D01*
X186078845Y-74199500D01*
X186078842Y-74199500D01*
X185921158Y-74199500D01*
X185921155Y-74199500D01*
X185766510Y-74230261D01*
X185766498Y-74230264D01*
X185620827Y-74290602D01*
X185620814Y-74290609D01*
X185489125Y-74378602D01*
X185422447Y-74399480D01*
X185420234Y-74399500D01*
X148420940Y-74399500D01*
X148380019Y-74410464D01*
X148380019Y-74410465D01*
X148342751Y-74420451D01*
X148268214Y-74440423D01*
X148268209Y-74440426D01*
X148131290Y-74519475D01*
X148131282Y-74519481D01*
X146519481Y-76131282D01*
X146519479Y-76131285D01*
X146469361Y-76218094D01*
X146469359Y-76218096D01*
X146440425Y-76268209D01*
X146440424Y-76268210D01*
X146440423Y-76268215D01*
X146399499Y-76420943D01*
X146399499Y-76420945D01*
X146399499Y-76589046D01*
X146399500Y-76589059D01*
X146399500Y-78699902D01*
X146379815Y-78766941D01*
X146363181Y-78787583D01*
X145787584Y-79363181D01*
X145726261Y-79396666D01*
X145699903Y-79399500D01*
X144983570Y-79399500D01*
X144983554Y-79399499D01*
X144975958Y-79399499D01*
X144817843Y-79399499D01*
X144741479Y-79419961D01*
X144665114Y-79440423D01*
X144665109Y-79440426D01*
X144528190Y-79519475D01*
X144528182Y-79519481D01*
X143675794Y-80371868D01*
X143614471Y-80405353D01*
X143549795Y-80402118D01*
X143384537Y-80348423D01*
X143222810Y-80322808D01*
X143182352Y-80316400D01*
X142977648Y-80316400D01*
X142953329Y-80320251D01*
X142775465Y-80348422D01*
X142580776Y-80411681D01*
X142398386Y-80504615D01*
X142232786Y-80624928D01*
X142088028Y-80769686D01*
X141967715Y-80935286D01*
X141874781Y-81117676D01*
X141811522Y-81312365D01*
X141779500Y-81514548D01*
X141779500Y-82119251D01*
X141811523Y-82321435D01*
X141811524Y-82321442D01*
X141816639Y-82337183D01*
X141818634Y-82407024D01*
X141782553Y-82466857D01*
X141719852Y-82497684D01*
X141698708Y-82499500D01*
X134624500Y-82499500D01*
X134557461Y-82479815D01*
X134511706Y-82427011D01*
X134500500Y-82375500D01*
X134500500Y-76438872D01*
X135279500Y-76438872D01*
X135279500Y-76701127D01*
X135304856Y-76893713D01*
X135313730Y-76961116D01*
X135381602Y-77214418D01*
X135381605Y-77214428D01*
X135481953Y-77456690D01*
X135481958Y-77456700D01*
X135613075Y-77683803D01*
X135772718Y-77891851D01*
X135772726Y-77891860D01*
X135958140Y-78077274D01*
X135958148Y-78077281D01*
X136166196Y-78236924D01*
X136393299Y-78368041D01*
X136393309Y-78368046D01*
X136635571Y-78468394D01*
X136635581Y-78468398D01*
X136888884Y-78536270D01*
X137148880Y-78570500D01*
X137148887Y-78570500D01*
X137411113Y-78570500D01*
X137411120Y-78570500D01*
X137671116Y-78536270D01*
X137924419Y-78468398D01*
X138166697Y-78368043D01*
X138393803Y-78236924D01*
X138601851Y-78077282D01*
X138601855Y-78077277D01*
X138601860Y-78077274D01*
X138787274Y-77891860D01*
X138787277Y-77891855D01*
X138787282Y-77891851D01*
X138946924Y-77683803D01*
X139078043Y-77456697D01*
X139178398Y-77214419D01*
X139246270Y-76961116D01*
X139280500Y-76701120D01*
X139280500Y-76438880D01*
X139246270Y-76178884D01*
X139178398Y-75925581D01*
X139178394Y-75925571D01*
X139078046Y-75683309D01*
X139078041Y-75683299D01*
X138946924Y-75456196D01*
X138787281Y-75248148D01*
X138787274Y-75248140D01*
X138601860Y-75062726D01*
X138601851Y-75062718D01*
X138393803Y-74903075D01*
X138166700Y-74771958D01*
X138166690Y-74771953D01*
X137924428Y-74671605D01*
X137924421Y-74671603D01*
X137924419Y-74671602D01*
X137671116Y-74603730D01*
X137613339Y-74596123D01*
X137411127Y-74569500D01*
X137411120Y-74569500D01*
X137148880Y-74569500D01*
X137148872Y-74569500D01*
X136917772Y-74599926D01*
X136888884Y-74603730D01*
X136635581Y-74671602D01*
X136635571Y-74671605D01*
X136393309Y-74771953D01*
X136393299Y-74771958D01*
X136166196Y-74903075D01*
X135958148Y-75062718D01*
X135772718Y-75248148D01*
X135613075Y-75456196D01*
X135481958Y-75683299D01*
X135481953Y-75683309D01*
X135381605Y-75925571D01*
X135381602Y-75925581D01*
X135326485Y-76131284D01*
X135313730Y-76178885D01*
X135279500Y-76438872D01*
X134500500Y-76438872D01*
X134500500Y-65652135D01*
X138689500Y-65652135D01*
X138689500Y-67347870D01*
X138689501Y-67347876D01*
X138695908Y-67407483D01*
X138746202Y-67542328D01*
X138746206Y-67542335D01*
X138832452Y-67657544D01*
X138832455Y-67657547D01*
X138947664Y-67743793D01*
X138947671Y-67743797D01*
X139082514Y-67794090D01*
X139082517Y-67794091D01*
X139082519Y-67794091D01*
X139088033Y-67795394D01*
X139148751Y-67829965D01*
X139181139Y-67891874D01*
X139174915Y-67961466D01*
X139145033Y-68003396D01*
X139146226Y-68004589D01*
X138998032Y-68152782D01*
X138998028Y-68152786D01*
X138877715Y-68318386D01*
X138784781Y-68500776D01*
X138721522Y-68695465D01*
X138689500Y-68897648D01*
X138689500Y-69102351D01*
X138721522Y-69304534D01*
X138784781Y-69499223D01*
X138842173Y-69611859D01*
X138857893Y-69642712D01*
X138877715Y-69681613D01*
X138998028Y-69847213D01*
X139063134Y-69912319D01*
X139096619Y-69973642D01*
X139091635Y-70043334D01*
X139063134Y-70087681D01*
X138998032Y-70152782D01*
X138998028Y-70152786D01*
X138877715Y-70318386D01*
X138784781Y-70500776D01*
X138721522Y-70695465D01*
X138689500Y-70897648D01*
X138689500Y-71102351D01*
X138721522Y-71304534D01*
X138784781Y-71499223D01*
X138877715Y-71681613D01*
X138998028Y-71847213D01*
X139142786Y-71991971D01*
X139308385Y-72112284D01*
X139308387Y-72112285D01*
X139308390Y-72112287D01*
X139362378Y-72139795D01*
X139413174Y-72187769D01*
X139429969Y-72255590D01*
X139407432Y-72321725D01*
X139362378Y-72360765D01*
X139308644Y-72388143D01*
X139264077Y-72420523D01*
X139264077Y-72420524D01*
X139893250Y-73049697D01*
X139812447Y-73071349D01*
X139707554Y-73131909D01*
X139621909Y-73217554D01*
X139561349Y-73322447D01*
X139539697Y-73403250D01*
X138910524Y-72774077D01*
X138910523Y-72774077D01*
X138878143Y-72818644D01*
X138785244Y-73000968D01*
X138722009Y-73195582D01*
X138690000Y-73397682D01*
X138690000Y-73602317D01*
X138722009Y-73804417D01*
X138785244Y-73999031D01*
X138878141Y-74181350D01*
X138878147Y-74181359D01*
X138910523Y-74225921D01*
X138910524Y-74225922D01*
X139539697Y-73596749D01*
X139561349Y-73677553D01*
X139621909Y-73782446D01*
X139707554Y-73868091D01*
X139812447Y-73928651D01*
X139893249Y-73950302D01*
X139264076Y-74579474D01*
X139308650Y-74611859D01*
X139490968Y-74704755D01*
X139685582Y-74767990D01*
X139887683Y-74800000D01*
X140092317Y-74800000D01*
X140294417Y-74767990D01*
X140489031Y-74704755D01*
X140671349Y-74611859D01*
X140715921Y-74579474D01*
X140086749Y-73950302D01*
X140167553Y-73928651D01*
X140272446Y-73868091D01*
X140358091Y-73782446D01*
X140418651Y-73677553D01*
X140440302Y-73596750D01*
X141069474Y-74225922D01*
X141069474Y-74225921D01*
X141101859Y-74181349D01*
X141194755Y-73999031D01*
X141257990Y-73804417D01*
X141290000Y-73602317D01*
X141290000Y-73397682D01*
X141257990Y-73195582D01*
X141194755Y-73000968D01*
X141101859Y-72818650D01*
X141069474Y-72774077D01*
X141069474Y-72774076D01*
X140440302Y-73403249D01*
X140418651Y-73322447D01*
X140358091Y-73217554D01*
X140272446Y-73131909D01*
X140167553Y-73071349D01*
X140086748Y-73049697D01*
X140715922Y-72420524D01*
X140715921Y-72420523D01*
X140671359Y-72388147D01*
X140671350Y-72388141D01*
X140617621Y-72360765D01*
X140566825Y-72312791D01*
X140550030Y-72244970D01*
X140572567Y-72178835D01*
X140617621Y-72139795D01*
X140671610Y-72112287D01*
X140721144Y-72076298D01*
X140837213Y-71991971D01*
X140837215Y-71991968D01*
X140837219Y-71991966D01*
X140981966Y-71847219D01*
X140981968Y-71847215D01*
X140981971Y-71847213D01*
X141034732Y-71774590D01*
X141102287Y-71681610D01*
X141195220Y-71499219D01*
X141258477Y-71304534D01*
X141290500Y-71102352D01*
X141290500Y-70897648D01*
X141258477Y-70695466D01*
X141195220Y-70500781D01*
X141195218Y-70500778D01*
X141195218Y-70500776D01*
X141119534Y-70352240D01*
X141102287Y-70318390D01*
X141051468Y-70248443D01*
X140981971Y-70152786D01*
X140916866Y-70087681D01*
X140883381Y-70026358D01*
X140888365Y-69956666D01*
X140916866Y-69912319D01*
X140981966Y-69847219D01*
X140981968Y-69847215D01*
X140981971Y-69847213D01*
X141063632Y-69734814D01*
X141102287Y-69681610D01*
X141195220Y-69499219D01*
X141258477Y-69304534D01*
X141290500Y-69102352D01*
X141290500Y-68897648D01*
X141258477Y-68695466D01*
X141195220Y-68500781D01*
X141195218Y-68500778D01*
X141195218Y-68500776D01*
X141168893Y-68449111D01*
X141142688Y-68397682D01*
X144655113Y-68397682D01*
X144655113Y-68602317D01*
X144687122Y-68804417D01*
X144750357Y-68999031D01*
X144843254Y-69181350D01*
X144843260Y-69181359D01*
X144875636Y-69225921D01*
X144875637Y-69225922D01*
X145555113Y-68546446D01*
X145555113Y-68552661D01*
X145582372Y-68654394D01*
X145635033Y-68745606D01*
X145709507Y-68820080D01*
X145800719Y-68872741D01*
X145902452Y-68900000D01*
X145908665Y-68900000D01*
X145229189Y-69579474D01*
X145273763Y-69611859D01*
X145456081Y-69704755D01*
X145650695Y-69767990D01*
X145852796Y-69800000D01*
X146057430Y-69800000D01*
X146259530Y-69767990D01*
X146454144Y-69704755D01*
X146636454Y-69611863D01*
X146636462Y-69611858D01*
X146706665Y-69560852D01*
X146772471Y-69537371D01*
X146840525Y-69553196D01*
X146867233Y-69573488D01*
X146936457Y-69642712D01*
X147085779Y-69734814D01*
X147252316Y-69789999D01*
X147355104Y-69800500D01*
X148555121Y-69800499D01*
X148657910Y-69789999D01*
X148824447Y-69734814D01*
X148973769Y-69642712D01*
X149097825Y-69518656D01*
X149189927Y-69369334D01*
X149245112Y-69202797D01*
X149255613Y-69100009D01*
X149255613Y-68853713D01*
X154789500Y-68853713D01*
X154789500Y-69066286D01*
X154814783Y-69225921D01*
X154822754Y-69276243D01*
X154853001Y-69369334D01*
X154888444Y-69478414D01*
X154984951Y-69667820D01*
X155109890Y-69839786D01*
X155260213Y-69990109D01*
X155432182Y-70115050D01*
X155440946Y-70119516D01*
X155491742Y-70167491D01*
X155508536Y-70235312D01*
X155485998Y-70301447D01*
X155440946Y-70340484D01*
X155432182Y-70344949D01*
X155260213Y-70469890D01*
X155109890Y-70620213D01*
X154984951Y-70792179D01*
X154888444Y-70981585D01*
X154822753Y-71183760D01*
X154789500Y-71393713D01*
X154789500Y-71606286D01*
X154822753Y-71816239D01*
X154888444Y-72018414D01*
X154984951Y-72207820D01*
X155109890Y-72379786D01*
X155260213Y-72530109D01*
X155432179Y-72655048D01*
X155432181Y-72655049D01*
X155432184Y-72655051D01*
X155621588Y-72751557D01*
X155823757Y-72817246D01*
X156033713Y-72850500D01*
X156033714Y-72850500D01*
X156246286Y-72850500D01*
X156246287Y-72850500D01*
X156456243Y-72817246D01*
X156658412Y-72751557D01*
X156847816Y-72655051D01*
X156869789Y-72639086D01*
X157019786Y-72530109D01*
X157019788Y-72530106D01*
X157019792Y-72530104D01*
X157170104Y-72379792D01*
X157170106Y-72379788D01*
X157170109Y-72379786D01*
X157295048Y-72207820D01*
X157295047Y-72207820D01*
X157295051Y-72207816D01*
X157299514Y-72199054D01*
X157347488Y-72148259D01*
X157415308Y-72131463D01*
X157481444Y-72153999D01*
X157520486Y-72199056D01*
X157524951Y-72207820D01*
X157649890Y-72379786D01*
X157800213Y-72530109D01*
X157972179Y-72655048D01*
X157972181Y-72655049D01*
X157972184Y-72655051D01*
X158161588Y-72751557D01*
X158363757Y-72817246D01*
X158573713Y-72850500D01*
X158573714Y-72850500D01*
X158786286Y-72850500D01*
X158786287Y-72850500D01*
X158996243Y-72817246D01*
X159198412Y-72751557D01*
X159387816Y-72655051D01*
X159409789Y-72639086D01*
X159559786Y-72530109D01*
X159559788Y-72530106D01*
X159559792Y-72530104D01*
X159710104Y-72379792D01*
X159710106Y-72379788D01*
X159710109Y-72379786D01*
X159835048Y-72207820D01*
X159835047Y-72207820D01*
X159835051Y-72207816D01*
X159839514Y-72199054D01*
X159887488Y-72148259D01*
X159955308Y-72131463D01*
X160021444Y-72153999D01*
X160060486Y-72199056D01*
X160064951Y-72207820D01*
X160189890Y-72379786D01*
X160340213Y-72530109D01*
X160512179Y-72655048D01*
X160512181Y-72655049D01*
X160512184Y-72655051D01*
X160701588Y-72751557D01*
X160903757Y-72817246D01*
X161113713Y-72850500D01*
X161113714Y-72850500D01*
X161326286Y-72850500D01*
X161326287Y-72850500D01*
X161536243Y-72817246D01*
X161738412Y-72751557D01*
X161927816Y-72655051D01*
X161949789Y-72639086D01*
X162099786Y-72530109D01*
X162099788Y-72530106D01*
X162099792Y-72530104D01*
X162250104Y-72379792D01*
X162250106Y-72379788D01*
X162250109Y-72379786D01*
X162375048Y-72207820D01*
X162375047Y-72207820D01*
X162375051Y-72207816D01*
X162379514Y-72199054D01*
X162427488Y-72148259D01*
X162495308Y-72131463D01*
X162561444Y-72153999D01*
X162600486Y-72199056D01*
X162604951Y-72207820D01*
X162729890Y-72379786D01*
X162880213Y-72530109D01*
X163052179Y-72655048D01*
X163052181Y-72655049D01*
X163052184Y-72655051D01*
X163241588Y-72751557D01*
X163443757Y-72817246D01*
X163653713Y-72850500D01*
X163653714Y-72850500D01*
X163866286Y-72850500D01*
X163866287Y-72850500D01*
X164076243Y-72817246D01*
X164278412Y-72751557D01*
X164467816Y-72655051D01*
X164489789Y-72639086D01*
X164639786Y-72530109D01*
X164639788Y-72530106D01*
X164639792Y-72530104D01*
X164790104Y-72379792D01*
X164790106Y-72379788D01*
X164790109Y-72379786D01*
X164915048Y-72207820D01*
X164915047Y-72207820D01*
X164915051Y-72207816D01*
X164919514Y-72199054D01*
X164967488Y-72148259D01*
X165035308Y-72131463D01*
X165101444Y-72153999D01*
X165140486Y-72199056D01*
X165144951Y-72207820D01*
X165269890Y-72379786D01*
X165420213Y-72530109D01*
X165592179Y-72655048D01*
X165592181Y-72655049D01*
X165592184Y-72655051D01*
X165781588Y-72751557D01*
X165983757Y-72817246D01*
X166193713Y-72850500D01*
X166193714Y-72850500D01*
X166406286Y-72850500D01*
X166406287Y-72850500D01*
X166616243Y-72817246D01*
X166818412Y-72751557D01*
X167007816Y-72655051D01*
X167029789Y-72639086D01*
X167179786Y-72530109D01*
X167179788Y-72530106D01*
X167179792Y-72530104D01*
X167330104Y-72379792D01*
X167330106Y-72379788D01*
X167330109Y-72379786D01*
X167455048Y-72207820D01*
X167455047Y-72207820D01*
X167455051Y-72207816D01*
X167459514Y-72199054D01*
X167507488Y-72148259D01*
X167575308Y-72131463D01*
X167641444Y-72153999D01*
X167680486Y-72199056D01*
X167684951Y-72207820D01*
X167809890Y-72379786D01*
X167960213Y-72530109D01*
X168132179Y-72655048D01*
X168132181Y-72655049D01*
X168132184Y-72655051D01*
X168321588Y-72751557D01*
X168523757Y-72817246D01*
X168733713Y-72850500D01*
X168733714Y-72850500D01*
X168946286Y-72850500D01*
X168946287Y-72850500D01*
X169156243Y-72817246D01*
X169358412Y-72751557D01*
X169547816Y-72655051D01*
X169569789Y-72639086D01*
X169719786Y-72530109D01*
X169719788Y-72530106D01*
X169719792Y-72530104D01*
X169870104Y-72379792D01*
X169870106Y-72379788D01*
X169870109Y-72379786D01*
X169995048Y-72207820D01*
X169995047Y-72207820D01*
X169995051Y-72207816D01*
X169999514Y-72199054D01*
X170047488Y-72148259D01*
X170115308Y-72131463D01*
X170181444Y-72153999D01*
X170220486Y-72199056D01*
X170224951Y-72207820D01*
X170349890Y-72379786D01*
X170500213Y-72530109D01*
X170672179Y-72655048D01*
X170672181Y-72655049D01*
X170672184Y-72655051D01*
X170861588Y-72751557D01*
X171063757Y-72817246D01*
X171273713Y-72850500D01*
X171273714Y-72850500D01*
X171486286Y-72850500D01*
X171486287Y-72850500D01*
X171696243Y-72817246D01*
X171898412Y-72751557D01*
X172087816Y-72655051D01*
X172109789Y-72639086D01*
X172259786Y-72530109D01*
X172259788Y-72530106D01*
X172259792Y-72530104D01*
X172410104Y-72379792D01*
X172410106Y-72379788D01*
X172410109Y-72379786D01*
X172535048Y-72207820D01*
X172535047Y-72207820D01*
X172535051Y-72207816D01*
X172539514Y-72199054D01*
X172587488Y-72148259D01*
X172655308Y-72131463D01*
X172721444Y-72153999D01*
X172760486Y-72199056D01*
X172764951Y-72207820D01*
X172889890Y-72379786D01*
X173040213Y-72530109D01*
X173212179Y-72655048D01*
X173212181Y-72655049D01*
X173212184Y-72655051D01*
X173401588Y-72751557D01*
X173603757Y-72817246D01*
X173813713Y-72850500D01*
X173813714Y-72850500D01*
X174026286Y-72850500D01*
X174026287Y-72850500D01*
X174236243Y-72817246D01*
X174438412Y-72751557D01*
X174627816Y-72655051D01*
X174649789Y-72639086D01*
X174799786Y-72530109D01*
X174799788Y-72530106D01*
X174799792Y-72530104D01*
X174950104Y-72379792D01*
X174950106Y-72379788D01*
X174950109Y-72379786D01*
X175075048Y-72207820D01*
X175075047Y-72207820D01*
X175075051Y-72207816D01*
X175079514Y-72199054D01*
X175127488Y-72148259D01*
X175195308Y-72131463D01*
X175261444Y-72153999D01*
X175300486Y-72199056D01*
X175304951Y-72207820D01*
X175429890Y-72379786D01*
X175580213Y-72530109D01*
X175752179Y-72655048D01*
X175752181Y-72655049D01*
X175752184Y-72655051D01*
X175941588Y-72751557D01*
X176143757Y-72817246D01*
X176353713Y-72850500D01*
X176353714Y-72850500D01*
X176566286Y-72850500D01*
X176566287Y-72850500D01*
X176776243Y-72817246D01*
X176978412Y-72751557D01*
X177167816Y-72655051D01*
X177189789Y-72639086D01*
X177339786Y-72530109D01*
X177339788Y-72530106D01*
X177339792Y-72530104D01*
X177490104Y-72379792D01*
X177490106Y-72379788D01*
X177490109Y-72379786D01*
X177615048Y-72207820D01*
X177615047Y-72207820D01*
X177615051Y-72207816D01*
X177619514Y-72199054D01*
X177667488Y-72148259D01*
X177735308Y-72131463D01*
X177801444Y-72153999D01*
X177840486Y-72199056D01*
X177844951Y-72207820D01*
X177969890Y-72379786D01*
X178120213Y-72530109D01*
X178292179Y-72655048D01*
X178292181Y-72655049D01*
X178292184Y-72655051D01*
X178481588Y-72751557D01*
X178683757Y-72817246D01*
X178893713Y-72850500D01*
X178893714Y-72850500D01*
X179106286Y-72850500D01*
X179106287Y-72850500D01*
X179316243Y-72817246D01*
X179518412Y-72751557D01*
X179707816Y-72655051D01*
X179729789Y-72639086D01*
X179879786Y-72530109D01*
X179879788Y-72530106D01*
X179879792Y-72530104D01*
X180030104Y-72379792D01*
X180030106Y-72379788D01*
X180030109Y-72379786D01*
X180155048Y-72207820D01*
X180155047Y-72207820D01*
X180155051Y-72207816D01*
X180251557Y-72018412D01*
X180317246Y-71816243D01*
X180350500Y-71606287D01*
X180350500Y-71393713D01*
X180317246Y-71183757D01*
X180251557Y-70981588D01*
X180155051Y-70792184D01*
X180155049Y-70792181D01*
X180155048Y-70792179D01*
X180030109Y-70620213D01*
X179879790Y-70469894D01*
X179879785Y-70469890D01*
X179874399Y-70465977D01*
X179831731Y-70410649D01*
X179825750Y-70341036D01*
X179858354Y-70279240D01*
X179908278Y-70247951D01*
X179919117Y-70244359D01*
X179919124Y-70244356D01*
X180068345Y-70152315D01*
X180192315Y-70028345D01*
X180284356Y-69879124D01*
X180284358Y-69879119D01*
X180339505Y-69712697D01*
X180339506Y-69712690D01*
X180349999Y-69609986D01*
X180350000Y-69609973D01*
X180350000Y-69210000D01*
X179433012Y-69210000D01*
X179465925Y-69152993D01*
X179500000Y-69025826D01*
X179500000Y-68894174D01*
X179465925Y-68767007D01*
X179433012Y-68710000D01*
X180349999Y-68710000D01*
X180349999Y-68310028D01*
X180349998Y-68310013D01*
X180339505Y-68207302D01*
X180284358Y-68040880D01*
X180284356Y-68040875D01*
X180192315Y-67891654D01*
X180068345Y-67767684D01*
X179919124Y-67675643D01*
X179919119Y-67675641D01*
X179752697Y-67620494D01*
X179752690Y-67620493D01*
X179649986Y-67610000D01*
X179250000Y-67610000D01*
X179250000Y-68526988D01*
X179192993Y-68494075D01*
X179065826Y-68460000D01*
X178934174Y-68460000D01*
X178807007Y-68494075D01*
X178750000Y-68526988D01*
X178750000Y-67610000D01*
X178350028Y-67610000D01*
X178350012Y-67610001D01*
X178247302Y-67620494D01*
X178080880Y-67675641D01*
X178080875Y-67675643D01*
X177931654Y-67767684D01*
X177807684Y-67891654D01*
X177715643Y-68040875D01*
X177715642Y-68040878D01*
X177691806Y-68112811D01*
X177652033Y-68170255D01*
X177587517Y-68197078D01*
X177576306Y-68197245D01*
X176942962Y-68830590D01*
X176925925Y-68767007D01*
X176860099Y-68652993D01*
X176767007Y-68559901D01*
X176652993Y-68494075D01*
X176589409Y-68477037D01*
X177221716Y-67844728D01*
X177167550Y-67805375D01*
X176978217Y-67708904D01*
X176776129Y-67643242D01*
X176566246Y-67610000D01*
X176353754Y-67610000D01*
X176143872Y-67643242D01*
X176143869Y-67643242D01*
X175941782Y-67708904D01*
X175752439Y-67805380D01*
X175698282Y-67844727D01*
X175698282Y-67844728D01*
X176330591Y-68477037D01*
X176267007Y-68494075D01*
X176152993Y-68559901D01*
X176059901Y-68652993D01*
X175994075Y-68767007D01*
X175977037Y-68830591D01*
X175344728Y-68198282D01*
X175344727Y-68198282D01*
X175305380Y-68252440D01*
X175300483Y-68262051D01*
X175252506Y-68312845D01*
X175184684Y-68329638D01*
X175118550Y-68307098D01*
X175079516Y-68262048D01*
X175074626Y-68252452D01*
X175035270Y-68198282D01*
X175035269Y-68198282D01*
X174402962Y-68830590D01*
X174385925Y-68767007D01*
X174320099Y-68652993D01*
X174227007Y-68559901D01*
X174112993Y-68494075D01*
X174049409Y-68477037D01*
X174681716Y-67844728D01*
X174627550Y-67805375D01*
X174438217Y-67708904D01*
X174236129Y-67643242D01*
X174026246Y-67610000D01*
X173813754Y-67610000D01*
X173603872Y-67643242D01*
X173603869Y-67643242D01*
X173401782Y-67708904D01*
X173212439Y-67805380D01*
X173158282Y-67844727D01*
X173158282Y-67844728D01*
X173790591Y-68477037D01*
X173727007Y-68494075D01*
X173612993Y-68559901D01*
X173519901Y-68652993D01*
X173454075Y-68767007D01*
X173437037Y-68830591D01*
X172804728Y-68198282D01*
X172804727Y-68198282D01*
X172765380Y-68252440D01*
X172760483Y-68262051D01*
X172712506Y-68312845D01*
X172644684Y-68329638D01*
X172578550Y-68307098D01*
X172539516Y-68262048D01*
X172534626Y-68252452D01*
X172495270Y-68198282D01*
X172495269Y-68198282D01*
X171862962Y-68830590D01*
X171845925Y-68767007D01*
X171780099Y-68652993D01*
X171687007Y-68559901D01*
X171572993Y-68494075D01*
X171509409Y-68477037D01*
X172141716Y-67844728D01*
X172087550Y-67805375D01*
X171898217Y-67708904D01*
X171696129Y-67643242D01*
X171486246Y-67610000D01*
X171273754Y-67610000D01*
X171063872Y-67643242D01*
X171063869Y-67643242D01*
X170861782Y-67708904D01*
X170672439Y-67805380D01*
X170618282Y-67844727D01*
X170618282Y-67844728D01*
X171250591Y-68477037D01*
X171187007Y-68494075D01*
X171072993Y-68559901D01*
X170979901Y-68652993D01*
X170914075Y-68767007D01*
X170897037Y-68830591D01*
X170264728Y-68198282D01*
X170264727Y-68198282D01*
X170225380Y-68252440D01*
X170220483Y-68262051D01*
X170172506Y-68312845D01*
X170104684Y-68329638D01*
X170038550Y-68307098D01*
X169999516Y-68262048D01*
X169994626Y-68252452D01*
X169955270Y-68198282D01*
X169955269Y-68198282D01*
X169322962Y-68830590D01*
X169305925Y-68767007D01*
X169240099Y-68652993D01*
X169147007Y-68559901D01*
X169032993Y-68494075D01*
X168969409Y-68477037D01*
X169601716Y-67844728D01*
X169547550Y-67805375D01*
X169358217Y-67708904D01*
X169156129Y-67643242D01*
X168946246Y-67610000D01*
X168733754Y-67610000D01*
X168523872Y-67643242D01*
X168523869Y-67643242D01*
X168321782Y-67708904D01*
X168132439Y-67805380D01*
X168078282Y-67844727D01*
X168078282Y-67844728D01*
X168710591Y-68477037D01*
X168647007Y-68494075D01*
X168532993Y-68559901D01*
X168439901Y-68652993D01*
X168374075Y-68767007D01*
X168357037Y-68830591D01*
X167724728Y-68198282D01*
X167724727Y-68198282D01*
X167685380Y-68252440D01*
X167680483Y-68262051D01*
X167632506Y-68312845D01*
X167564684Y-68329638D01*
X167498550Y-68307098D01*
X167459516Y-68262048D01*
X167454626Y-68252452D01*
X167415270Y-68198282D01*
X167415269Y-68198282D01*
X166782962Y-68830590D01*
X166765925Y-68767007D01*
X166700099Y-68652993D01*
X166607007Y-68559901D01*
X166492993Y-68494075D01*
X166429409Y-68477037D01*
X167061716Y-67844728D01*
X167007550Y-67805375D01*
X166818217Y-67708904D01*
X166616129Y-67643242D01*
X166406246Y-67610000D01*
X166193754Y-67610000D01*
X165983872Y-67643242D01*
X165983869Y-67643242D01*
X165781782Y-67708904D01*
X165592439Y-67805380D01*
X165538282Y-67844727D01*
X165538282Y-67844728D01*
X166170591Y-68477037D01*
X166107007Y-68494075D01*
X165992993Y-68559901D01*
X165899901Y-68652993D01*
X165834075Y-68767007D01*
X165817037Y-68830591D01*
X165184728Y-68198282D01*
X165184727Y-68198282D01*
X165145380Y-68252440D01*
X165140483Y-68262051D01*
X165092506Y-68312845D01*
X165024684Y-68329638D01*
X164958550Y-68307098D01*
X164919516Y-68262048D01*
X164914626Y-68252452D01*
X164875270Y-68198282D01*
X164875269Y-68198282D01*
X164242962Y-68830590D01*
X164225925Y-68767007D01*
X164160099Y-68652993D01*
X164067007Y-68559901D01*
X163952993Y-68494075D01*
X163889409Y-68477037D01*
X164521716Y-67844728D01*
X164467550Y-67805375D01*
X164278217Y-67708904D01*
X164076129Y-67643242D01*
X163866246Y-67610000D01*
X163653754Y-67610000D01*
X163443872Y-67643242D01*
X163443869Y-67643242D01*
X163241782Y-67708904D01*
X163052439Y-67805380D01*
X162998282Y-67844727D01*
X162998282Y-67844728D01*
X163630591Y-68477037D01*
X163567007Y-68494075D01*
X163452993Y-68559901D01*
X163359901Y-68652993D01*
X163294075Y-68767007D01*
X163277037Y-68830591D01*
X162644728Y-68198282D01*
X162644727Y-68198282D01*
X162605380Y-68252440D01*
X162600483Y-68262051D01*
X162552506Y-68312845D01*
X162484684Y-68329638D01*
X162418550Y-68307098D01*
X162379516Y-68262048D01*
X162374626Y-68252452D01*
X162335270Y-68198282D01*
X162335269Y-68198282D01*
X161702962Y-68830590D01*
X161685925Y-68767007D01*
X161620099Y-68652993D01*
X161527007Y-68559901D01*
X161412993Y-68494075D01*
X161349409Y-68477037D01*
X161981716Y-67844728D01*
X161927550Y-67805375D01*
X161738217Y-67708904D01*
X161536129Y-67643242D01*
X161326246Y-67610000D01*
X161113754Y-67610000D01*
X160903872Y-67643242D01*
X160903869Y-67643242D01*
X160701782Y-67708904D01*
X160512439Y-67805380D01*
X160458282Y-67844727D01*
X160458282Y-67844728D01*
X161090591Y-68477037D01*
X161027007Y-68494075D01*
X160912993Y-68559901D01*
X160819901Y-68652993D01*
X160754075Y-68767007D01*
X160737037Y-68830591D01*
X160104728Y-68198282D01*
X160104727Y-68198282D01*
X160065380Y-68252440D01*
X160065376Y-68252446D01*
X160060760Y-68261505D01*
X160012781Y-68312297D01*
X159944959Y-68329087D01*
X159878826Y-68306543D01*
X159839794Y-68261493D01*
X159835051Y-68252184D01*
X159835049Y-68252181D01*
X159835048Y-68252179D01*
X159710109Y-68080213D01*
X159559786Y-67929890D01*
X159387820Y-67804951D01*
X159198414Y-67708444D01*
X159198413Y-67708443D01*
X159198412Y-67708443D01*
X158996243Y-67642754D01*
X158996241Y-67642753D01*
X158996240Y-67642753D01*
X158834957Y-67617208D01*
X158786287Y-67609500D01*
X158573713Y-67609500D01*
X158525042Y-67617208D01*
X158363760Y-67642753D01*
X158161585Y-67708444D01*
X157972179Y-67804951D01*
X157800213Y-67929890D01*
X157649890Y-68080213D01*
X157524949Y-68252182D01*
X157520484Y-68260946D01*
X157472509Y-68311742D01*
X157404688Y-68328536D01*
X157338553Y-68305998D01*
X157299516Y-68260946D01*
X157295050Y-68252182D01*
X157170109Y-68080213D01*
X157019786Y-67929890D01*
X156847820Y-67804951D01*
X156658414Y-67708444D01*
X156658413Y-67708443D01*
X156658412Y-67708443D01*
X156456243Y-67642754D01*
X156456241Y-67642753D01*
X156456240Y-67642753D01*
X156294957Y-67617208D01*
X156246287Y-67609500D01*
X156033713Y-67609500D01*
X155985042Y-67617208D01*
X155823760Y-67642753D01*
X155621585Y-67708444D01*
X155432179Y-67804951D01*
X155260213Y-67929890D01*
X155109890Y-68080213D01*
X154984951Y-68252179D01*
X154888444Y-68441585D01*
X154822753Y-68643760D01*
X154789500Y-68853713D01*
X149255613Y-68853713D01*
X149255612Y-68500000D01*
X149255612Y-67899998D01*
X149255611Y-67899981D01*
X149245112Y-67797203D01*
X149245111Y-67797200D01*
X149227415Y-67743797D01*
X149189927Y-67630666D01*
X149097825Y-67481344D01*
X148973769Y-67357288D01*
X148824447Y-67265186D01*
X148657910Y-67210001D01*
X148657908Y-67210000D01*
X148555123Y-67199500D01*
X147355111Y-67199500D01*
X147355094Y-67199501D01*
X147252316Y-67210000D01*
X147252313Y-67210001D01*
X147085781Y-67265185D01*
X147085776Y-67265187D01*
X146936458Y-67357287D01*
X146867234Y-67426511D01*
X146805910Y-67459995D01*
X146736219Y-67455010D01*
X146706668Y-67439147D01*
X146636465Y-67388142D01*
X146454144Y-67295244D01*
X146259530Y-67232009D01*
X146057430Y-67200000D01*
X145852796Y-67200000D01*
X145650695Y-67232009D01*
X145456081Y-67295244D01*
X145273757Y-67388143D01*
X145229190Y-67420523D01*
X145229190Y-67420524D01*
X145908666Y-68100000D01*
X145902452Y-68100000D01*
X145800719Y-68127259D01*
X145709507Y-68179920D01*
X145635033Y-68254394D01*
X145582372Y-68345606D01*
X145555113Y-68447339D01*
X145555113Y-68453553D01*
X144875637Y-67774077D01*
X144875636Y-67774077D01*
X144843256Y-67818644D01*
X144750357Y-68000968D01*
X144687122Y-68195582D01*
X144655113Y-68397682D01*
X141142688Y-68397682D01*
X141116154Y-68345606D01*
X141102287Y-68318390D01*
X141061355Y-68262051D01*
X140981971Y-68152786D01*
X140833774Y-68004589D01*
X140835219Y-68003143D01*
X140801737Y-67951806D01*
X140801268Y-67881938D01*
X140838646Y-67822907D01*
X140891967Y-67795394D01*
X140897478Y-67794091D01*
X140897483Y-67794091D01*
X141032331Y-67743796D01*
X141147546Y-67657546D01*
X141233796Y-67542331D01*
X141279228Y-67420523D01*
X141284091Y-67407482D01*
X141286170Y-67388142D01*
X141290500Y-67347873D01*
X141290499Y-65652128D01*
X141284091Y-65592517D01*
X141233796Y-65457669D01*
X141233795Y-65457668D01*
X141233793Y-65457664D01*
X141147547Y-65342455D01*
X141147544Y-65342452D01*
X141032335Y-65256206D01*
X141032328Y-65256202D01*
X140897482Y-65205908D01*
X140897483Y-65205908D01*
X140837883Y-65199501D01*
X140837881Y-65199500D01*
X140837873Y-65199500D01*
X140837864Y-65199500D01*
X139142129Y-65199500D01*
X139142123Y-65199501D01*
X139082516Y-65205908D01*
X138947671Y-65256202D01*
X138947664Y-65256206D01*
X138832455Y-65342452D01*
X138832452Y-65342455D01*
X138746206Y-65457664D01*
X138746202Y-65457671D01*
X138695908Y-65592517D01*
X138689501Y-65652116D01*
X138689501Y-65652123D01*
X138689500Y-65652135D01*
X134500500Y-65652135D01*
X134500500Y-63298872D01*
X135279500Y-63298872D01*
X135279500Y-63561127D01*
X135306123Y-63763339D01*
X135313730Y-63821116D01*
X135381602Y-64074418D01*
X135381605Y-64074428D01*
X135481953Y-64316690D01*
X135481958Y-64316700D01*
X135613075Y-64543803D01*
X135772718Y-64751851D01*
X135772726Y-64751860D01*
X135958140Y-64937274D01*
X135958148Y-64937281D01*
X136166196Y-65096924D01*
X136393299Y-65228041D01*
X136393309Y-65228046D01*
X136635571Y-65328394D01*
X136635581Y-65328398D01*
X136888884Y-65396270D01*
X137148880Y-65430500D01*
X137148887Y-65430500D01*
X137411113Y-65430500D01*
X137411120Y-65430500D01*
X137671116Y-65396270D01*
X137924419Y-65328398D01*
X138166697Y-65228043D01*
X138393803Y-65096924D01*
X138601851Y-64937282D01*
X138601855Y-64937277D01*
X138601860Y-64937274D01*
X138787274Y-64751860D01*
X138787277Y-64751855D01*
X138787282Y-64751851D01*
X138946924Y-64543803D01*
X139078043Y-64316697D01*
X139178398Y-64074419D01*
X139246270Y-63821116D01*
X139280500Y-63561120D01*
X139280500Y-63298880D01*
X139246270Y-63038884D01*
X139178398Y-62785581D01*
X139178394Y-62785571D01*
X139078046Y-62543309D01*
X139078041Y-62543299D01*
X138946924Y-62316196D01*
X138787281Y-62108148D01*
X138787274Y-62108140D01*
X138601860Y-61922726D01*
X138601851Y-61922718D01*
X138393803Y-61763075D01*
X138166700Y-61631958D01*
X138166690Y-61631953D01*
X137924428Y-61531605D01*
X137924421Y-61531603D01*
X137924419Y-61531602D01*
X137671116Y-61463730D01*
X137613339Y-61456123D01*
X137411127Y-61429500D01*
X137411120Y-61429500D01*
X137148880Y-61429500D01*
X137148872Y-61429500D01*
X136917772Y-61459926D01*
X136888884Y-61463730D01*
X136635581Y-61531602D01*
X136635571Y-61531605D01*
X136393309Y-61631953D01*
X136393299Y-61631958D01*
X136166196Y-61763075D01*
X135958148Y-61922718D01*
X135772718Y-62108148D01*
X135613075Y-62316196D01*
X135481958Y-62543299D01*
X135481953Y-62543309D01*
X135381605Y-62785571D01*
X135381602Y-62785581D01*
X135313730Y-63038885D01*
X135279500Y-63298872D01*
X134500500Y-63298872D01*
X134500500Y-58124500D01*
X134520185Y-58057461D01*
X134572989Y-58011706D01*
X134624500Y-58000500D01*
X141825431Y-58000500D01*
X141892470Y-58020185D01*
G37*
%TD.AperFunction*%
%TD*%
%TA.AperFunction,NonConductor*%
G36*
X153301558Y-75602294D02*
G01*
X153307820Y-75601119D01*
X153334677Y-75612019D01*
X153362484Y-75620185D01*
X153366655Y-75624999D01*
X153372560Y-75627396D01*
X153389262Y-75651088D01*
X153408239Y-75672989D01*
X153409145Y-75679293D01*
X153412817Y-75684502D01*
X153414058Y-75713459D01*
X153418183Y-75742147D01*
X153415536Y-75747942D01*
X153415809Y-75754308D01*
X153401198Y-75779337D01*
X153389158Y-75805703D01*
X153382992Y-75810528D01*
X153380586Y-75814650D01*
X153351739Y-75834985D01*
X153332182Y-75844949D01*
X153160215Y-75969889D01*
X153046673Y-76083431D01*
X152985350Y-76116915D01*
X152915658Y-76111931D01*
X152859725Y-76070059D01*
X152842810Y-76039082D01*
X152793797Y-75907671D01*
X152793793Y-75907664D01*
X152712305Y-75798811D01*
X152687887Y-75733347D01*
X152702738Y-75665074D01*
X152752143Y-75615668D01*
X152811571Y-75600500D01*
X153295445Y-75600500D01*
X153301558Y-75602294D01*
G37*
%TD.AperFunction*%
%TA.AperFunction,NonConductor*%
G36*
X157481444Y-69613999D02*
G01*
X157520486Y-69659056D01*
X157524951Y-69667820D01*
X157649890Y-69839786D01*
X157800213Y-69990109D01*
X157972182Y-70115050D01*
X157980946Y-70119516D01*
X158031742Y-70167491D01*
X158048536Y-70235312D01*
X158025998Y-70301447D01*
X157980946Y-70340484D01*
X157972182Y-70344949D01*
X157800213Y-70469890D01*
X157649890Y-70620213D01*
X157524949Y-70792182D01*
X157520484Y-70800946D01*
X157472509Y-70851742D01*
X157404688Y-70868536D01*
X157338553Y-70845998D01*
X157299516Y-70800946D01*
X157295050Y-70792182D01*
X157170109Y-70620213D01*
X157019786Y-70469890D01*
X156847820Y-70344951D01*
X156840136Y-70341036D01*
X156839054Y-70340485D01*
X156788259Y-70292512D01*
X156771463Y-70224692D01*
X156793999Y-70158556D01*
X156839054Y-70119515D01*
X156847816Y-70115051D01*
X156946527Y-70043334D01*
X157019786Y-69990109D01*
X157019788Y-69990106D01*
X157019792Y-69990104D01*
X157170104Y-69839792D01*
X157170106Y-69839788D01*
X157170109Y-69839786D01*
X157295048Y-69667820D01*
X157295047Y-69667820D01*
X157295051Y-69667816D01*
X157299514Y-69659054D01*
X157347488Y-69608259D01*
X157415308Y-69591463D01*
X157481444Y-69613999D01*
G37*
%TD.AperFunction*%
M02*
