%TF.GenerationSoftware,KiCad,Pcbnew,9.0.6*%
%TF.CreationDate,2026-05-27T23:23:12+02:00*%
%TF.ProjectId,cpiii-plasma-hdmi,63706969-692d-4706-9c61-736d612d6864,rev?*%
%TF.SameCoordinates,Original*%
%TF.FileFunction,Soldermask,Bot*%
%TF.FilePolarity,Negative*%
%FSLAX46Y46*%
G04 Gerber Fmt 4.6, Leading zero omitted, Abs format (unit mm)*
G04 Created by KiCad (PCBNEW 9.0.6) date 2026-05-27 23:23:12*
%MOMM*%
%LPD*%
G01*
G04 APERTURE LIST*
G04 Aperture macros list*
%AMRoundRect*
0 Rectangle with rounded corners*
0 $1 Rounding radius*
0 $2 $3 $4 $5 $6 $7 $8 $9 X,Y pos of 4 corners*
0 Add a 4 corners polygon primitive as box body*
4,1,4,$2,$3,$4,$5,$6,$7,$8,$9,$2,$3,0*
0 Add four circle primitives for the rounded corners*
1,1,$1+$1,$2,$3*
1,1,$1+$1,$4,$5*
1,1,$1+$1,$6,$7*
1,1,$1+$1,$8,$9*
0 Add four rect primitives between the rounded corners*
20,1,$1+$1,$2,$3,$4,$5,0*
20,1,$1+$1,$4,$5,$6,$7,0*
20,1,$1+$1,$6,$7,$8,$9,0*
20,1,$1+$1,$8,$9,$2,$3,0*%
G04 Aperture macros list end*
%ADD10RoundRect,0.250000X0.550000X0.550000X-0.550000X0.550000X-0.550000X-0.550000X0.550000X-0.550000X0*%
%ADD11C,1.600000*%
%ADD12R,1.600000X1.600000*%
%ADD13C,3.000000*%
%ADD14R,1.600000X2.000000*%
%ADD15O,1.600000X2.000000*%
%ADD16RoundRect,0.250000X-0.600000X0.600000X-0.600000X-0.600000X0.600000X-0.600000X0.600000X0.600000X0*%
%ADD17C,1.700000*%
%ADD18R,1.700000X1.700000*%
G04 APERTURE END LIST*
D10*
%TO.C,C1*%
X147955113Y-68500000D03*
D11*
X145955113Y-68500000D03*
%TD*%
D12*
%TO.C,J4*%
X139990000Y-66500000D03*
D11*
X139990000Y-69000000D03*
X139990000Y-71000000D03*
X139990000Y-73500000D03*
D13*
X137280000Y-63430000D03*
X137280000Y-76570000D03*
%TD*%
D14*
%TO.C,U1*%
X201500000Y-59000000D03*
D15*
X198960000Y-59000000D03*
X196420000Y-59000000D03*
X193880000Y-59000000D03*
X191340000Y-59000000D03*
X188800000Y-59000000D03*
X186260000Y-59000000D03*
X183720000Y-59000000D03*
X181180000Y-59000000D03*
X178640000Y-59000000D03*
X176100000Y-59000000D03*
X173560000Y-59000000D03*
X171020000Y-59000000D03*
X168480000Y-59000000D03*
X165940000Y-59000000D03*
X163400000Y-59000000D03*
X160860000Y-59000000D03*
X158320000Y-59000000D03*
X155780000Y-59000000D03*
X153240000Y-59000000D03*
X150700000Y-59000000D03*
X148160000Y-59000000D03*
X145620000Y-59000000D03*
X143080000Y-59000000D03*
X143080000Y-81816900D03*
X145620000Y-81816900D03*
X148160000Y-81816900D03*
X150700000Y-81816900D03*
X153240000Y-81816900D03*
X155780000Y-81816900D03*
X158320000Y-81816900D03*
X160860000Y-81816900D03*
X163400000Y-81816900D03*
X165940000Y-81816900D03*
X168480000Y-81816900D03*
X171020000Y-81816900D03*
X173560000Y-81816900D03*
X176100000Y-81816900D03*
X178640000Y-81816900D03*
X181180000Y-81816900D03*
X183720000Y-81816900D03*
X186260000Y-81816900D03*
X188800000Y-81816900D03*
X191340000Y-81816900D03*
X193880000Y-81816900D03*
X196420000Y-81816900D03*
X198960000Y-81816900D03*
D14*
X201500000Y-81816900D03*
%TD*%
D16*
%TO.C,J2*%
X179000000Y-68960000D03*
D17*
X179000000Y-71500000D03*
X176460000Y-68960000D03*
X176460000Y-71500000D03*
X173920000Y-68960000D03*
X173920000Y-71500000D03*
X171380000Y-68960000D03*
X171380000Y-71500000D03*
X168840000Y-68960000D03*
X168840000Y-71500000D03*
X166300000Y-68960000D03*
X166300000Y-71500000D03*
X163760000Y-68960000D03*
X163760000Y-71500000D03*
X161220000Y-68960000D03*
X161220000Y-71500000D03*
X158680000Y-68960000D03*
X158680000Y-71500000D03*
X156140000Y-68960000D03*
X156140000Y-71500000D03*
%TD*%
D18*
%TO.C,J1*%
X151500000Y-77000000D03*
D17*
X154040000Y-77000000D03*
%TD*%
M02*
